<?xml version="1.0" encoding="UTF-8"?>
<svg width="1840px" height="1330px" viewBox="0 0 1840 1330" version="1.1" xmlns="http://www.w3.org/2000/svg" xmlns:xlink="http://www.w3.org/1999/xlink">
    <!-- Generator: Sketch 40.3 (33839) - http://www.bohemiancoding.com/sketch -->
    <title>Group</title>
    <desc>Created with Sketch.</desc>
    <defs></defs>
    <g id="Page-1" stroke="none" stroke-width="1" fill="none" fill-rule="evenodd">
        <g id="Group">
            <rect id="Rectangle" fill="#FFFFFF" x="2.27373675e-13" y="0.3" width="1840" height="1329.4"></rect>
            <g id="logo-dark" transform="translate(577.000000, 246.000000)">
                <g id="Page-1">
                    <g>
                        <g id="logo-dark">
                            <g id="Layer_1">
                                <polygon id="XMLID_35_" fill="#43EFCE" points="309.9 0.6 270.7 45.6 292.3 96.1 328.4 146.6 277.9 211.5 220.2 189.9 205.7 153.8 176.9 197.1 200.7 326.1 169.7 355.8 126.7 316.1 119.4 251.9 75.9 341.4 90.3 435.2 145.6 501.9 263.4 557.8 415 541.1 530.4 485.7 573.7 399.1 568.3 329.2 523.8 388.4 501.7 341.4 537.6 247.6 523.2 204.3 474.8 181 487.1 247.6 415 283.7 364.4 254.8 415 146.6 422.2 103.3 357.2 81.7 317.1 69.7"></polygon>
                                <polygon id="XMLID_34_" fill="#05CEB6" points="126.7 316.1 75.9 341.4 90.3 435.2"></polygon>
                                <polygon id="XMLID_33_" fill="#05CEB6" points="169.7 355.8 126.7 316.1 90.3 435.2"></polygon>
                                <polygon id="XMLID_32_" fill="#327DA7" points="145.6 501.9 169.7 355.8 90.3 435.2"></polygon>
                                <polygon id="XMLID_31_" fill="#2DAEBE" points="263.4 558 169.7 356 145.6 502"></polygon>
                                <polygon id="XMLID_30_" fill="#05CEB6" points="328.4 146.6 364.4 254.8 277.9 211.5"></polygon>
                                <polygon id="XMLID_29_" fill="#05CEB6" points="220.2 189.9 176.9 197.1 205.7 153.8"></polygon>
                                <polygon id="XMLID_27_" fill="#43EFCE" points="200.7 326.1 220.2 189.9 176.9 197.1"></polygon>
                                <polygon id="XMLID_25_" fill="#43EFCE" points="573.7 399.1 523.8 388.4 568.3 329.2"></polygon>
                                <polygon id="XMLID_23_" fill="#327DA7" points="530.4 485.7 523.8 388.4 573.7 399.1"></polygon>
                                <polygon id="XMLID_21_" fill="#A6F7D4" points="415 283.7 501.7 341.4 487.1 247.6"></polygon>
                                <polygon id="XMLID_19_" fill="#2A5D8B" points="169.7 355.8 415 541.1 263.4 557.8"></polygon>
                                <polygon id="XMLID_18_" fill="#A6F7D4" points="364.4 254.8 169.7 355.8 200.7 326.1 220.2 189.9"></polygon>
                                <polygon id="XMLID_16_" fill="#43EFCE" points="364.4 254.8 415 541.1 501.7 341.4"></polygon>
                                <polygon id="XMLID_15_" fill="#05CEB6" points="328.4 146.6 309.9 0.6 270.7 45.6"></polygon>
                                <polygon id="XMLID_14_" fill="#43EFCE" points="523.2 204.3 501.7 341.4 474.8 181"></polygon>
                                <polygon id="XMLID_13_" fill="#2DAEBE" points="169.7 355.7 415 541.1 364.4 254.7"></polygon>
                                <polygon id="XMLID_11_" fill="#2DAEBE" points="530.4 485.8 415 541.3 501.7 341.6 523.8 388.5"></polygon>
                                <path d="M245.4,403 C251.1,403 256.6,403.9 261.8,405.6 L277.3,371.5 L277.6,371.5 L273.4,360.6 L260.6,360.6 L260.6,350.5 L308.4,350.5 L308.4,360.6 L284.4,360.6 L288.6,371.5 L382,371.5 L377.3,357.1 C376.7,355.3 375.5,353.1 374.9,352.6 C373.6,352 368.8,351.4 364.7,351.4 L350.6,351.4 L350.6,341.3 L364.7,341.3 C367.2,341.3 375.8,341.5 380.1,343.9 C384.5,346.3 386.7,352.4 387.3,354.2 L403.5,404 C406.6,403.4 409.8,403.1 413.1,403.1 C441.7,403.1 465,425.7 465,453.5 C465,481.3 441.7,503.9 413.1,503.9 C384.5,503.9 361.2,481.3 361.2,453.5 C361.2,432.4 374.6,414.3 393.6,406.8 L388.9,392.3 L324.4,463.3 L296.5,463.3 C291.8,486.4 270.7,503.9 245.6,503.9 C217,503.9 193.7,481.3 193.7,453.5 C193.5,425.6 216.8,403 245.4,403 L245.4,403 L245.4,403 Z M371.4,453.4 C371.4,475.6 390,493.7 412.9,493.7 C435.8,493.7 454.4,475.6 454.4,453.4 C454.4,431.2 435.8,413.1 412.9,413.1 C410.7,413.1 408.6,413.3 406.5,413.6 L420.3,456 L410.4,459 L396.6,416.4 C381.8,422.6 371.4,436.8 371.4,453.4 L371.4,453.4 L371.4,453.4 Z M271.3,409.7 C286.8,418.4 297.2,434.6 297.3,453.1 L309,453.1 L282.6,384.7 L271.3,409.7 L271.3,409.7 L271.3,409.7 Z M267.1,419 L251.6,453.1 L287,453.1 C286.8,438.7 278.9,426.1 267.1,419 L267.1,419 L267.1,419 Z M384.5,381.6 L292.5,381.6 L319.9,452.7 L384.5,381.6 L384.5,381.6 L384.5,381.6 Z M245.4,493.7 C264.8,493.7 281.2,480.7 285.7,463.2 L247.6,463.2 C245.7,463.2 242.2,462.8 240.4,460 C238.8,457.4 239.6,454.4 240.6,452.3 L257.6,414.9 C253.7,413.7 249.6,413.1 245.4,413.1 C222.5,413.1 203.9,431.2 203.9,453.4 C203.9,475.6 222.5,493.7 245.4,493.7 L245.4,493.7 L245.4,493.7 Z" id="XMLID_48_" fill="#FDFDFE"></path>
                                <text id="b" fill="#000000" font-family="Helvetica" font-size="140.121" font-weight="normal">
                                    <tspan x="0.2668" y="689.2048">b</tspan>
                                </text>
                                <text id="a" fill="#000000" font-family="Helvetica" font-size="140.121" font-weight="normal">
                                    <tspan x="80.5939" y="689.2048">a</tspan>
                                </text>
                                <text id="r" fill="#000000" font-family="Helvetica" font-size="140.121" font-weight="normal">
                                    <tspan x="164.9904" y="689.2048">r</tspan>
                                </text>
                                <text id="c" fill="#05CEB6" font-family="Helvetica" font-size="140.121" font-weight="normal">
                                    <tspan x="201.7267" y="689.2048">c</tspan>
                                </text>
                                <text id="a" fill="#05CEB6" font-family="Helvetica" font-size="140.121" font-weight="normal">
                                    <tspan x="275.6301" y="689.2048">a</tspan>
                                </text>
                                <text id="m" fill="#05CEB6" font-family="Helvetica" font-size="140.121" font-weight="normal">
                                    <tspan x="356.968" y="689.2048">m</tspan>
                                </text>
                                <text id="p" fill="#05CEB6" font-family="Helvetica" font-size="140.121" font-weight="normal">
                                    <tspan x="471.5441" y="689.2048">p</tspan>
                                </text>
                                <text id="BANGKHEN-2016" fill="#000000" font-family="Helvetica" font-size="30.101" font-weight="normal">
                                    <tspan x="101.2707" y="720.2048">BANGKHEN 2016</tspan>
                                </text>
                                <text id="7" fill="#2C5D87" font-family="Helvetica" font-size="309.1632" font-weight="normal">
                                    <tspan x="513.3029" y="765.3981">7</tspan>
                                </text>
                            </g>
                        </g>
                    </g>
                </g>
            </g>
        </g>
    </g>
</svg>