<?xml version="1.0" encoding="UTF-8"?>
<svg width="202px" height="202px" viewBox="0 0 202 202" version="1.1" xmlns="http://www.w3.org/2000/svg" xmlns:xlink="http://www.w3.org/1999/xlink">
    <!-- Generator: Sketch 40.3 (33839) - http://www.bohemiancoding.com/sketch -->
    <title>Group</title>
    <desc>Created with Sketch.</desc>
    <defs></defs>
    <g id="Page-1" stroke="none" stroke-width="1" fill="none" fill-rule="evenodd">
        <g id="Group" transform="translate(1.000000, 1.000000)" stroke="#B3B3B3" stroke-width="0.25">
            <path d="M0,0 L11,13.6" id="Shape"></path>
            <path d="M11,13.6 L8.4,0" id="Shape"></path>
            <path d="M11,13.6 L0,40.3" id="Shape"></path>
            <path d="M0,40.3 L19.5,50" id="Shape"></path>
            <path d="M11,13.6 L19.5,50" id="Shape"></path>
            <path d="M0,25.3 L11,13.6" id="Shape"></path>
            <path d="M19.5,50 L0,55" id="Shape"></path>
            <path d="M11,13.6 L26.7,30.2" id="Shape"></path>
            <path d="M19.5,50 L26.7,30.2" id="Shape"></path>
            <path d="M26.7,30.2 L8.4,0" id="Shape"></path>
            <path d="M26.7,30.2 L50,0.7" id="Shape"></path>
            <path d="M26.7,11.3 L8.4,0" id="Shape"></path>
            <path d="M26.7,11.3 L50,0" id="Shape"></path>
            <path d="M26.7,30.2 L26.7,11.3" id="Shape"></path>
            <path d="M26.7,11.3 L32.9,0" id="Shape"></path>
            <path d="M26.7,30.2 L32.9,50" id="Shape"></path>
            <path d="M32.9,50.7 L50,0" id="Shape"></path>
            <path d="M19.5,50 L28.6,70.1" id="Shape"></path>
            <path d="M19.5,50 L32.9,50" id="Shape"></path>
            <path d="M28.6,70.1 L32.9,50.7" id="Shape"></path>
            <path d="M28.6,70.1 L17.5,55" id="Shape"></path>
            <path d="M17.5,55 L0,55" id="Shape"></path>
            <path d="M17.5,55 L19.5,50" id="Shape"></path>
            <path d="M17.5,55 L0,67.1" id="Shape"></path>
            <path d="M28.6,70.1 L15.2,84.3" id="Shape"></path>
            <path d="M15.2,84.3 L19.5,69" id="Shape"></path>
            <path d="M19.5,69 L17.5,55" id="Shape"></path>
            <path d="M19.5,69 L0,67.1" id="Shape"></path>
            <path d="M15.2,84.3 L5.5,77.2" id="Shape"></path>
            <path d="M5.5,77.2 L19.5,69" id="Shape"></path>
            <path d="M5.5,77.2 L0,67.1" id="Shape"></path>
            <path d="M5.5,77.2 L0,94" id="Shape"></path>
            <path d="M0,100 L15.2,94" id="Shape"></path>
            <path d="M0,94 L15.2,94" id="Shape"></path>
            <path d="M15.2,94 L5.5,77.2" id="Shape"></path>
            <path d="M15.2,94 L15.2,84.3" id="Shape"></path>
            <path d="M15.2,94 L28.6,70.1" id="Shape"></path>
            <path d="M28.6,70.1 L28.6,84.3" id="Shape"></path>
            <path d="M28.6,84.3 L15.2,94" id="Shape"></path>
            <path d="M15.2,94 L28.6,100" id="Shape"></path>
            <path d="M28.6,84.3 L41.4,90.8" id="Shape"></path>
            <path d="M41.4,90.8 L15.2,94" id="Shape"></path>
            <path d="M28.6,100 L41.4,90.8" id="Shape"></path>
            <path d="M41.4,90.8 L55.5,100" id="Shape"></path>
            <path d="M41.4,90.8 L44.8,100" id="Shape"></path>
            <path d="M41.4,90.8 L28.6,70.1" id="Shape"></path>
            <path d="M50,0 L59.3,11.3" id="Shape"></path>
            <path d="M41.6,25.3 L59.3,11.3" id="Shape"></path>
            <path d="M41.6,25.3 L26.7,30.2" id="Shape"></path>
            <path d="M41.6,25.3 L56.8,35.3" id="Shape"></path>
            <path d="M56.8,35.3 L59.3,11.3" id="Shape"></path>
            <path d="M59.3,11.3 L72,0" id="Shape"></path>
            <path d="M59.3,11.3 L78,19.4" id="Shape"></path>
            <path d="M78,19.4 L100,0.7" id="Shape"></path>
            <path d="M78,19.4 L72,0" id="Shape"></path>
            <path d="M78,19.4 L85,0" id="Shape"></path>
            <path d="M78,19.4 L56.8,35.3" id="Shape"></path>
            <path d="M32.9,50 L56.8,35.3" id="Shape"></path>
            <path d="M89,10.1 L100,19.4" id="Shape"></path>
            <path d="M87.3,27.3 L78,19.4" id="Shape"></path>
            <path d="M87.3,27.3 L89,10.1" id="Shape"></path>
            <path d="M87.3,27.3 L100,40.3" id="Shape"></path>
            <path d="M87.3,27.3 L100,19.4" id="Shape"></path>
            <path d="M87.3,27.3 L56.8,35.3" id="Shape"></path>
            <path d="M87.3,27.3 L100,55" id="Shape"></path>
            <path d="M87.3,27.3 L81.5,39" id="Shape"></path>
            <path d="M81.5,39 L100,55" id="Shape"></path>
            <path d="M81.5,39 L56.8,35.3" id="Shape"></path>
            <path d="M32.9,50 L44.8,64.3" id="Shape"></path>
            <path d="M28.6,70.1 L44.8,64.3" id="Shape"></path>
            <path d="M41.4,90.8 L44.8,64.3" id="Shape"></path>
            <path d="M81.5,39 L69.1,50" id="Shape"></path>
            <path d="M69.1,50 L56.8,35.3" id="Shape"></path>
            <path d="M69.1,50 L100,55" id="Shape"></path>
            <path d="M54.6,44.5 L69.1,50" id="Shape"></path>
            <path d="M54.6,44.5 L32.9,50" id="Shape"></path>
            <path d="M44.8,64.3 L54.6,44.5" id="Shape"></path>
            <path d="M69.1,50 L44.8,64.3" id="Shape"></path>
            <path d="M69.1,50 L84.6,64.3" id="Shape"></path>
            <path d="M84.6,64.3 L100,55" id="Shape"></path>
            <path d="M84.6,64.3 L69.1,57.1" id="Shape"></path>
            <path d="M69.1,57.1 L44.8,64.3" id="Shape"></path>
            <path d="M69.1,57.1 L69.1,50" id="Shape"></path>
            <path d="M84.6,64.3 L100,72.2" id="Shape"></path>
            <path d="M84.6,64.3 L79.3,74.8" id="Shape"></path>
            <path d="M79.3,74.8 L100,72.2" id="Shape"></path>
            <path d="M79.3,74.8 L69.1,57.1" id="Shape"></path>
            <path d="M79.3,74.8 L100,85.6" id="Shape"></path>
            <path d="M100,100 L89,80.2" id="Shape"></path>
            <path d="M89,80.2 L76.8,100" id="Shape"></path>
            <path d="M76.8,100 L79.3,74.8" id="Shape"></path>
            <path d="M59.3,74.8 L44.8,64.3" id="Shape"></path>
            <path d="M59.3,74.8 L69.1,57.1" id="Shape"></path>
            <path d="M59.3,74.8 L41.4,90.8" id="Shape"></path>
            <path d="M59.3,74.8 L79.3,74.8" id="Shape"></path>
            <path d="M59.3,74.8 L55.5,100" id="Shape"></path>
            <path d="M59.3,74.8 L76.8,100" id="Shape"></path>
            <path d="M55.5,100 L69.9,90.1" id="Shape"></path>
            <path d="M69.9,90.1 L79.3,74.8" id="Shape"></path>
            <path d="M76.8,100 L89,90.8" id="Shape"></path>
            <path d="M89,90.8 L100,100" id="Shape"></path>
            <path d="M89,90.8 L89,80.2" id="Shape"></path>
            <path d="M200,0 L189,13.6" id="Shape"></path>
            <path d="M189,13.6 L191.6,0" id="Shape"></path>
            <path d="M189,13.6 L200,40.3" id="Shape"></path>
            <path d="M200,40.3 L180.5,50" id="Shape"></path>
            <path d="M189,13.6 L180.5,50" id="Shape"></path>
            <path d="M200,25.3 L189,13.6" id="Shape"></path>
            <path d="M180.5,50 L200,55" id="Shape"></path>
            <path d="M189,13.6 L173.3,30.2" id="Shape"></path>
            <path d="M180.5,50 L173.3,30.2" id="Shape"></path>
            <path d="M173.3,30.2 L191.6,0" id="Shape"></path>
            <path d="M173.3,30.2 L150,0.7" id="Shape"></path>
            <path d="M173.3,11.3 L191.6,0" id="Shape"></path>
            <path d="M173.3,11.3 L150,0" id="Shape"></path>
            <path d="M173.3,30.2 L173.3,11.3" id="Shape"></path>
            <path d="M173.3,11.3 L167.1,0" id="Shape"></path>
            <path d="M173.3,30.2 L167.1,50" id="Shape"></path>
            <path d="M167.1,50.7 L150,0" id="Shape"></path>
            <path d="M180.5,50 L171.4,70.1" id="Shape"></path>
            <path d="M180.5,50 L167.1,50" id="Shape"></path>
            <path d="M171.4,70.1 L167.1,50.7" id="Shape"></path>
            <path d="M171.4,70.1 L182.5,55" id="Shape"></path>
            <path d="M182.5,55 L200,55" id="Shape"></path>
            <path d="M182.5,55 L180.5,50" id="Shape"></path>
            <path d="M182.5,55 L200,67.1" id="Shape"></path>
            <path d="M171.4,70.1 L184.8,84.3" id="Shape"></path>
            <path d="M184.8,84.3 L180.5,69" id="Shape"></path>
            <path d="M180.5,69 L182.5,55" id="Shape"></path>
            <path d="M180.5,69 L200,67.1" id="Shape"></path>
            <path d="M184.8,84.3 L194.5,77.2" id="Shape"></path>
            <path d="M194.5,77.2 L180.5,69" id="Shape"></path>
            <path d="M194.5,77.2 L200,67.1" id="Shape"></path>
            <path d="M194.5,77.2 L200,94" id="Shape"></path>
            <path d="M200,100 L184.8,94" id="Shape"></path>
            <path d="M200,94 L184.8,94" id="Shape"></path>
            <path d="M184.8,94 L194.5,77.2" id="Shape"></path>
            <path d="M184.8,94 L184.8,84.3" id="Shape"></path>
            <path d="M184.8,94 L171.4,70.1" id="Shape"></path>
            <path d="M171.4,70.1 L171.4,84.3" id="Shape"></path>
            <path d="M171.4,84.3 L184.8,94" id="Shape"></path>
            <path d="M184.8,94 L171.4,100" id="Shape"></path>
            <path d="M171.4,84.3 L158.6,90.8" id="Shape"></path>
            <path d="M158.6,90.8 L184.8,94" id="Shape"></path>
            <path d="M171.4,100 L158.6,90.8" id="Shape"></path>
            <path d="M158.6,90.8 L144.5,100" id="Shape"></path>
            <path d="M158.6,90.8 L155.3,100" id="Shape"></path>
            <path d="M158.6,90.8 L171.4,70.1" id="Shape"></path>
            <path d="M150,0 L140.8,11.3" id="Shape"></path>
            <path d="M158.4,25.3 L140.8,11.3" id="Shape"></path>
            <path d="M158.4,25.3 L173.3,30.2" id="Shape"></path>
            <path d="M158.4,25.3 L143.3,35.3" id="Shape"></path>
            <path d="M143.3,35.3 L140.8,11.3" id="Shape"></path>
            <path d="M140.8,11.3 L128,0" id="Shape"></path>
            <path d="M140.8,11.3 L122,19.4" id="Shape"></path>
            <path d="M122,19.4 L100,0.7" id="Shape"></path>
            <path d="M122,19.4 L128,0" id="Shape"></path>
            <path d="M122,19.4 L115,0" id="Shape"></path>
            <path d="M122,19.4 L143.3,35.3" id="Shape"></path>
            <path d="M167.1,50 L143.3,35.3" id="Shape"></path>
            <path d="M111,10.1 L100,19.4" id="Shape"></path>
            <path d="M112.8,27.3 L122,19.4" id="Shape"></path>
            <path d="M112.8,27.3 L111,10.1" id="Shape"></path>
            <path d="M112.8,27.3 L100,40.3" id="Shape"></path>
            <path d="M112.8,27.3 L100,19.4" id="Shape"></path>
            <path d="M112.8,27.3 L143.3,35.3" id="Shape"></path>
            <path d="M112.8,27.3 L100,55" id="Shape"></path>
            <path d="M112.8,27.3 L118.5,39" id="Shape"></path>
            <path d="M118.5,39 L100,55" id="Shape"></path>
            <path d="M118.5,39 L143.3,35.3" id="Shape"></path>
            <path d="M167.1,50 L155.2,64.3" id="Shape"></path>
            <path d="M171.4,70.1 L155.2,64.3" id="Shape"></path>
            <path d="M158.6,90.8 L155.2,64.3" id="Shape"></path>
            <path d="M118.5,39 L130.9,50" id="Shape"></path>
            <path d="M130.9,50 L143.3,35.3" id="Shape"></path>
            <path d="M130.9,50 L100,55" id="Shape"></path>
            <path d="M145.4,44.5 L130.9,50" id="Shape"></path>
            <path d="M145.4,44.5 L167.1,50" id="Shape"></path>
            <path d="M155.2,64.3 L145.4,44.5" id="Shape"></path>
            <path d="M130.9,50 L155.2,64.3" id="Shape"></path>
            <path d="M130.9,50 L115.4,64.3" id="Shape"></path>
            <path d="M115.4,64.3 L100,55" id="Shape"></path>
            <path d="M115.4,64.3 L130.9,57.1" id="Shape"></path>
            <path d="M130.9,57.1 L155.2,64.3" id="Shape"></path>
            <path d="M130.9,57.1 L130.9,50" id="Shape"></path>
            <path d="M115.4,64.3 L100,72.2" id="Shape"></path>
            <path d="M115.4,64.3 L120.8,74.8" id="Shape"></path>
            <path d="M120.8,74.8 L100,72.2" id="Shape"></path>
            <path d="M120.8,74.8 L130.9,57.1" id="Shape"></path>
            <path d="M120.8,74.8 L100,85.6" id="Shape"></path>
            <path d="M100,100 L111,80.2" id="Shape"></path>
            <path d="M111,80.2 L123.2,100" id="Shape"></path>
            <path d="M123.2,100 L120.8,74.8" id="Shape"></path>
            <path d="M140.8,74.8 L155.2,64.3" id="Shape"></path>
            <path d="M140.8,74.8 L130.9,57.1" id="Shape"></path>
            <path d="M140.8,74.8 L158.6,90.8" id="Shape"></path>
            <path d="M140.8,74.8 L120.8,74.8" id="Shape"></path>
            <path d="M140.8,74.8 L144.5,100" id="Shape"></path>
            <path d="M140.8,74.8 L123.2,100" id="Shape"></path>
            <path d="M144.5,100 L130.1,90.1" id="Shape"></path>
            <path d="M130.1,90.1 L120.8,74.8" id="Shape"></path>
            <path d="M123.2,100 L111,90.8" id="Shape"></path>
            <path d="M111,90.8 L100,100" id="Shape"></path>
            <path d="M111,90.8 L111,80.2" id="Shape"></path>
            <path d="M0,200 L11,186.4" id="Shape"></path>
            <path d="M11,186.4 L8.4,200" id="Shape"></path>
            <path d="M11,186.4 L0,159.7" id="Shape"></path>
            <path d="M0,159.7 L19.5,150" id="Shape"></path>
            <path d="M11,186.4 L19.5,150" id="Shape"></path>
            <path d="M0,174.7 L11,186.4" id="Shape"></path>
            <path d="M19.5,150 L0,145" id="Shape"></path>
            <path d="M11,186.4 L26.7,169.8" id="Shape"></path>
            <path d="M19.5,150 L26.7,169.8" id="Shape"></path>
            <path d="M26.7,169.8 L8.4,200" id="Shape"></path>
            <path d="M26.7,169.8 L50,199.3" id="Shape"></path>
            <path d="M26.7,188.7 L8.4,200" id="Shape"></path>
            <path d="M26.7,188.7 L50,200" id="Shape"></path>
            <path d="M26.7,169.8 L26.7,188.7" id="Shape"></path>
            <path d="M26.7,188.7 L32.9,200" id="Shape"></path>
            <path d="M26.7,169.8 L32.9,150" id="Shape"></path>
            <path d="M32.9,149.3 L50,200" id="Shape"></path>
            <path d="M19.5,150 L28.6,129.9" id="Shape"></path>
            <path d="M19.5,150 L32.9,150" id="Shape"></path>
            <path d="M28.6,129.9 L32.9,149.3" id="Shape"></path>
            <path d="M28.6,129.9 L17.5,145" id="Shape"></path>
            <path d="M17.5,145 L0,145" id="Shape"></path>
            <path d="M17.5,145 L19.5,150" id="Shape"></path>
            <path d="M17.5,145 L0,132.9" id="Shape"></path>
            <path d="M28.6,129.9 L15.2,115.8" id="Shape"></path>
            <path d="M15.2,115.8 L19.5,131" id="Shape"></path>
            <path d="M19.5,131 L17.5,145" id="Shape"></path>
            <path d="M19.5,131 L0,132.9" id="Shape"></path>
            <path d="M15.2,115.8 L5.5,122.8" id="Shape"></path>
            <path d="M5.5,122.8 L19.5,131" id="Shape"></path>
            <path d="M5.5,122.8 L0,132.9" id="Shape"></path>
            <path d="M5.5,122.8 L0,106" id="Shape"></path>
            <path d="M0,100 L15.2,106" id="Shape"></path>
            <path d="M0,106 L15.2,106" id="Shape"></path>
            <path d="M15.2,106 L5.5,122.8" id="Shape"></path>
            <path d="M15.2,106 L15.2,115.8" id="Shape"></path>
            <path d="M15.2,106 L28.6,129.9" id="Shape"></path>
            <path d="M28.6,129.9 L28.6,115.8" id="Shape"></path>
            <path d="M28.6,115.8 L15.2,106" id="Shape"></path>
            <path d="M15.2,106 L28.6,100" id="Shape"></path>
            <path d="M28.6,115.8 L41.4,109.3" id="Shape"></path>
            <path d="M41.4,109.3 L15.2,106" id="Shape"></path>
            <path d="M28.6,100 L41.4,109.3" id="Shape"></path>
            <path d="M41.4,109.3 L55.5,100" id="Shape"></path>
            <path d="M41.4,109.3 L44.8,100" id="Shape"></path>
            <path d="M41.4,109.3 L28.6,129.9" id="Shape"></path>
            <path d="M50,200 L59.3,188.7" id="Shape"></path>
            <path d="M41.6,174.7 L59.3,188.7" id="Shape"></path>
            <path d="M41.6,174.7 L26.7,169.8" id="Shape"></path>
            <path d="M41.6,174.7 L56.8,164.8" id="Shape"></path>
            <path d="M56.8,164.8 L59.3,188.7" id="Shape"></path>
            <path d="M59.3,188.7 L72,200" id="Shape"></path>
            <path d="M59.3,188.7 L78,180.6" id="Shape"></path>
            <path d="M78,180.6 L100,199.3" id="Shape"></path>
            <path d="M78,180.6 L72,200" id="Shape"></path>
            <path d="M78,180.6 L85,200" id="Shape"></path>
            <path d="M78,180.6 L56.8,164.8" id="Shape"></path>
            <path d="M32.9,150 L56.8,164.8" id="Shape"></path>
            <path d="M89,189.9 L100,180.6" id="Shape"></path>
            <path d="M87.3,172.7 L78,180.6" id="Shape"></path>
            <path d="M87.3,172.7 L89,189.9" id="Shape"></path>
            <path d="M87.3,172.7 L100,159.7" id="Shape"></path>
            <path d="M87.3,172.7 L100,180.6" id="Shape"></path>
            <path d="M87.3,172.7 L56.8,164.8" id="Shape"></path>
            <path d="M87.3,172.7 L100,145" id="Shape"></path>
            <path d="M87.3,172.7 L81.5,161" id="Shape"></path>
            <path d="M81.5,161 L100,145" id="Shape"></path>
            <path d="M81.5,161 L56.8,164.8" id="Shape"></path>
            <path d="M32.9,150 L44.8,135.8" id="Shape"></path>
            <path d="M28.6,129.9 L44.8,135.8" id="Shape"></path>
            <path d="M41.4,109.3 L44.8,135.8" id="Shape"></path>
            <path d="M81.5,161 L69.1,150" id="Shape"></path>
            <path d="M69.1,150 L56.8,164.8" id="Shape"></path>
            <path d="M69.1,150 L100,145" id="Shape"></path>
            <path d="M54.6,155.5 L69.1,150" id="Shape"></path>
            <path d="M54.6,155.5 L32.9,150" id="Shape"></path>
            <path d="M44.8,135.8 L54.6,155.5" id="Shape"></path>
            <path d="M69.1,150 L44.8,135.8" id="Shape"></path>
            <path d="M69.1,150 L84.6,135.8" id="Shape"></path>
            <path d="M84.6,135.8 L100,145" id="Shape"></path>
            <path d="M84.6,135.8 L69.1,142.9" id="Shape"></path>
            <path d="M69.1,142.9 L44.8,135.8" id="Shape"></path>
            <path d="M69.1,142.9 L69.1,150" id="Shape"></path>
            <path d="M84.6,135.8 L100,127.8" id="Shape"></path>
            <path d="M84.6,135.8 L79.3,125.3" id="Shape"></path>
            <path d="M79.3,125.3 L100,127.8" id="Shape"></path>
            <path d="M79.3,125.3 L69.1,142.9" id="Shape"></path>
            <path d="M79.3,125.3 L100,114.4" id="Shape"></path>
            <path d="M100,100 L89,119.8" id="Shape"></path>
            <path d="M89,119.8 L76.8,100" id="Shape"></path>
            <path d="M76.8,100 L79.3,125.3" id="Shape"></path>
            <path d="M59.3,125.3 L44.8,135.8" id="Shape"></path>
            <path d="M59.3,125.3 L69.1,142.9" id="Shape"></path>
            <path d="M59.3,125.3 L41.4,109.3" id="Shape"></path>
            <path d="M59.3,125.3 L79.3,125.3" id="Shape"></path>
            <path d="M59.3,125.3 L55.5,100" id="Shape"></path>
            <path d="M59.3,125.3 L76.8,100" id="Shape"></path>
            <path d="M55.5,100 L69.9,109.9" id="Shape"></path>
            <path d="M69.9,109.9 L79.3,125.3" id="Shape"></path>
            <path d="M76.8,100 L89,109.3" id="Shape"></path>
            <path d="M89,109.3 L100,100" id="Shape"></path>
            <path d="M89,109.3 L89,119.8" id="Shape"></path>
            <path d="M200,200 L189,186.4" id="Shape"></path>
            <path d="M189,186.4 L191.6,200" id="Shape"></path>
            <path d="M189,186.4 L200,159.7" id="Shape"></path>
            <path d="M200,159.7 L180.5,150" id="Shape"></path>
            <path d="M189,186.4 L180.5,150" id="Shape"></path>
            <path d="M200,174.7 L189,186.4" id="Shape"></path>
            <path d="M180.5,150 L200,145" id="Shape"></path>
            <path d="M189,186.4 L173.3,169.8" id="Shape"></path>
            <path d="M180.5,150 L173.3,169.8" id="Shape"></path>
            <path d="M173.3,169.8 L191.6,200" id="Shape"></path>
            <path d="M173.3,169.8 L150,199.3" id="Shape"></path>
            <path d="M173.3,188.7 L191.6,200" id="Shape"></path>
            <path d="M173.3,188.7 L150,200" id="Shape"></path>
            <path d="M173.3,169.8 L173.3,188.7" id="Shape"></path>
            <path d="M173.3,188.7 L167.1,200" id="Shape"></path>
            <path d="M173.3,169.8 L167.1,150" id="Shape"></path>
            <path d="M167.1,149.3 L150,200" id="Shape"></path>
            <path d="M180.5,150 L171.4,129.9" id="Shape"></path>
            <path d="M180.5,150 L167.1,150" id="Shape"></path>
            <path d="M171.4,129.9 L167.1,149.3" id="Shape"></path>
            <path d="M171.4,129.9 L182.5,145" id="Shape"></path>
            <path d="M182.5,145 L200,145" id="Shape"></path>
            <path d="M182.5,145 L180.5,150" id="Shape"></path>
            <path d="M182.5,145 L200,132.9" id="Shape"></path>
            <path d="M171.4,129.9 L184.8,115.8" id="Shape"></path>
            <path d="M184.8,115.8 L180.5,131" id="Shape"></path>
            <path d="M180.5,131 L182.5,145" id="Shape"></path>
            <path d="M180.5,131 L200,132.9" id="Shape"></path>
            <path d="M184.8,115.8 L194.5,122.8" id="Shape"></path>
            <path d="M194.5,122.8 L180.5,131" id="Shape"></path>
            <path d="M194.5,122.8 L200,132.9" id="Shape"></path>
            <path d="M194.5,122.8 L200,106" id="Shape"></path>
            <path d="M200,100 L184.8,106" id="Shape"></path>
            <path d="M200,106 L184.8,106" id="Shape"></path>
            <path d="M184.8,106 L194.5,122.8" id="Shape"></path>
            <path d="M184.8,106 L184.8,115.8" id="Shape"></path>
            <path d="M184.8,106 L171.4,129.9" id="Shape"></path>
            <path d="M171.4,129.9 L171.4,115.8" id="Shape"></path>
            <path d="M171.4,115.8 L184.8,106" id="Shape"></path>
            <path d="M184.8,106 L171.4,100" id="Shape"></path>
            <path d="M171.4,115.8 L158.6,109.3" id="Shape"></path>
            <path d="M158.6,109.3 L184.8,106" id="Shape"></path>
            <path d="M171.4,100 L158.6,109.3" id="Shape"></path>
            <path d="M158.6,109.3 L144.5,100" id="Shape"></path>
            <path d="M158.6,109.3 L155.3,100" id="Shape"></path>
            <path d="M158.6,109.3 L171.4,129.9" id="Shape"></path>
            <path d="M150,200 L140.8,188.7" id="Shape"></path>
            <path d="M158.4,174.7 L140.8,188.7" id="Shape"></path>
            <path d="M158.4,174.7 L173.3,169.8" id="Shape"></path>
            <path d="M158.4,174.7 L143.3,164.8" id="Shape"></path>
            <path d="M143.3,164.8 L140.8,188.7" id="Shape"></path>
            <path d="M140.8,188.7 L128,200" id="Shape"></path>
            <path d="M140.8,188.7 L122,180.6" id="Shape"></path>
            <path d="M122,180.6 L100,199.3" id="Shape"></path>
            <path d="M122,180.6 L128,200" id="Shape"></path>
            <path d="M122,180.6 L115,200" id="Shape"></path>
            <path d="M122,180.6 L143.3,164.8" id="Shape"></path>
            <path d="M167.1,150 L143.3,164.8" id="Shape"></path>
            <path d="M111,189.9 L100,180.6" id="Shape"></path>
            <path d="M112.8,172.7 L122,180.6" id="Shape"></path>
            <path d="M112.8,172.7 L111,189.9" id="Shape"></path>
            <path d="M112.8,172.7 L100,159.7" id="Shape"></path>
            <path d="M112.8,172.7 L100,180.6" id="Shape"></path>
            <path d="M112.8,172.7 L143.3,164.8" id="Shape"></path>
            <path d="M112.8,172.7 L100,145" id="Shape"></path>
            <path d="M112.8,172.7 L118.5,161" id="Shape"></path>
            <path d="M118.5,161 L100,145" id="Shape"></path>
            <path d="M118.5,161 L143.3,164.8" id="Shape"></path>
            <path d="M167.1,150 L155.2,135.8" id="Shape"></path>
            <path d="M171.4,129.9 L155.2,135.8" id="Shape"></path>
            <path d="M158.6,109.3 L155.2,135.8" id="Shape"></path>
            <path d="M118.5,161 L130.9,150" id="Shape"></path>
            <path d="M130.9,150 L143.3,164.8" id="Shape"></path>
            <path d="M130.9,150 L100,145" id="Shape"></path>
            <path d="M145.4,155.5 L130.9,150" id="Shape"></path>
            <path d="M145.4,155.5 L167.1,150" id="Shape"></path>
            <path d="M155.2,135.8 L145.4,155.5" id="Shape"></path>
            <path d="M130.9,150 L155.2,135.8" id="Shape"></path>
            <path d="M130.9,150 L115.4,135.8" id="Shape"></path>
            <path d="M115.4,135.8 L100,145" id="Shape"></path>
            <path d="M115.4,135.8 L130.9,142.9" id="Shape"></path>
            <path d="M130.9,142.9 L155.2,135.8" id="Shape"></path>
            <path d="M130.9,142.9 L130.9,150" id="Shape"></path>
            <path d="M115.4,135.8 L100,127.8" id="Shape"></path>
            <path d="M115.4,135.8 L120.8,125.3" id="Shape"></path>
            <path d="M120.8,125.3 L100,127.8" id="Shape"></path>
            <path d="M120.8,125.3 L130.9,142.9" id="Shape"></path>
            <path d="M120.8,125.3 L100,114.4" id="Shape"></path>
            <path d="M100,100 L111,119.8" id="Shape"></path>
            <path d="M111,119.8 L123.2,100" id="Shape"></path>
            <path d="M123.2,100 L120.8,125.3" id="Shape"></path>
            <path d="M140.8,125.3 L155.2,135.8" id="Shape"></path>
            <path d="M140.8,125.3 L130.9,142.9" id="Shape"></path>
            <path d="M140.8,125.3 L158.6,109.3" id="Shape"></path>
            <path d="M140.8,125.3 L120.8,125.3" id="Shape"></path>
            <path d="M140.8,125.3 L144.5,100" id="Shape"></path>
            <path d="M140.8,125.3 L123.2,100" id="Shape"></path>
            <path d="M144.5,100 L130.1,109.9" id="Shape"></path>
            <path d="M130.1,109.9 L120.8,125.3" id="Shape"></path>
            <path d="M123.2,100 L111,109.3" id="Shape"></path>
            <path d="M111,109.3 L100,100" id="Shape"></path>
            <path d="M111,109.3 L111,119.8" id="Shape"></path>
        </g>
    </g>
</svg>