<?xml version="1.0" encoding="utf-8"?>
<!-- Generator: Adobe Illustrator 17.1.0, SVG Export Plug-In . SVG Version: 6.00 Build 0)  -->
<!DOCTYPE svg PUBLIC "-//W3C//DTD SVG 1.1//EN" "http://www.w3.org/Graphics/SVG/1.1/DTD/svg11.dtd">
<svg version="1.1" id="Layer_1" xmlns="http://www.w3.org/2000/svg" xmlns:xlink="http://www.w3.org/1999/xlink" x="0px" y="0px"
	 viewBox="0 0 200 200" enable-background="new 0 0 200 200" xml:space="preserve">
<line fill="none" stroke="#FFFFFF" stroke-miterlimit="10" x1="0" y1="0" x2="21.9" y2="27.2"/>
<line fill="none" stroke="#FFFFFF" stroke-miterlimit="10" x1="21.9" y1="27.2" x2="16.3" y2="-2.5"/>
<line fill="none" stroke="#FFFFFF" stroke-miterlimit="10" x1="21.9" y1="27.2" x2="0" y2="80.6"/>
<line fill="none" stroke="#FFFFFF" stroke-miterlimit="10" x1="0" y1="80.6" x2="38.9" y2="100"/>
<line fill="none" stroke="#FFFFFF" stroke-miterlimit="10" x1="21.9" y1="27.2" x2="38.9" y2="100"/>
<line fill="none" stroke="#FFFFFF" stroke-miterlimit="10" x1="0" y1="50.5" x2="21.9" y2="27.2"/>
<line fill="none" stroke="#FFFFFF" stroke-miterlimit="10" x1="38.9" y1="100" x2="0" y2="109.9"/>
<line fill="none" stroke="#FFFFFF" stroke-miterlimit="10" x1="21.9" y1="27.2" x2="53.4" y2="60.4"/>
<line fill="none" stroke="#FFFFFF" stroke-miterlimit="10" x1="38.9" y1="100" x2="53.4" y2="60.4"/>
<line fill="none" stroke="#FFFFFF" stroke-miterlimit="10" x1="53.4" y1="60.4" x2="16.8" y2="0"/>
<line fill="none" stroke="#FFFFFF" stroke-miterlimit="10" x1="53.4" y1="60.4" x2="100" y2="1.4"/>
<line fill="none" stroke="#FFFFFF" stroke-miterlimit="10" x1="53.4" y1="22.6" x2="16.8" y2="0"/>
<line fill="none" stroke="#FFFFFF" stroke-miterlimit="10" x1="53.4" y1="22.6" x2="100" y2="1.4"/>
<line fill="none" stroke="#FFFFFF" stroke-miterlimit="10" x1="53.4" y1="60.4" x2="53.4" y2="22.6"/>
<line fill="none" stroke="#FFFFFF" stroke-miterlimit="10" x1="53.4" y1="22.6" x2="65.8" y2="0"/>
<line fill="none" stroke="#FFFFFF" stroke-miterlimit="10" x1="53.4" y1="60.4" x2="65.8" y2="100"/>
<line fill="none" stroke="#FFFFFF" stroke-miterlimit="10" x1="65.8" y1="101.4" x2="100" y2="1.4"/>
<line fill="none" stroke="#FFFFFF" stroke-miterlimit="10" x1="38.9" y1="100" x2="57.3" y2="140.3"/>
<line fill="none" stroke="#FFFFFF" stroke-miterlimit="10" x1="38.9" y1="100" x2="65.8" y2="100"/>
<line fill="none" stroke="#FFFFFF" stroke-miterlimit="10" x1="57.3" y1="140.3" x2="65.8" y2="101.4"/>
<line fill="none" stroke="#FFFFFF" stroke-miterlimit="10" x1="57.3" y1="140.3" x2="35.1" y2="109.9"/>
<line fill="none" stroke="#FFFFFF" stroke-miterlimit="10" x1="35.1" y1="109.9" x2="0" y2="109.9"/>
<line fill="none" stroke="#FFFFFF" stroke-miterlimit="10" x1="35.1" y1="109.9" x2="38.9" y2="100"/>
<line fill="none" stroke="#FFFFFF" stroke-miterlimit="10" x1="35.1" y1="109.9" x2="0" y2="134.3"/>
<line fill="none" stroke="#FFFFFF" stroke-miterlimit="10" x1="57.3" y1="140.3" x2="30.4" y2="168.5"/>
<line fill="none" stroke="#FFFFFF" stroke-miterlimit="10" x1="30.4" y1="168.5" x2="38.9" y2="138"/>
<line fill="none" stroke="#FFFFFF" stroke-miterlimit="10" x1="38.9" y1="138" x2="35.1" y2="109.9"/>
<line fill="none" stroke="#FFFFFF" stroke-miterlimit="10" x1="38.9" y1="138" x2="0" y2="134.3"/>
<line fill="none" stroke="#FFFFFF" stroke-miterlimit="10" x1="30.4" y1="168.5" x2="11" y2="154.4"/>
<line fill="none" stroke="#FFFFFF" stroke-miterlimit="10" x1="11" y1="154.4" x2="38.9" y2="138"/>
<line fill="none" stroke="#FFFFFF" stroke-miterlimit="10" x1="11" y1="154.4" x2="0" y2="134.3"/>
<line fill="none" stroke="#FFFFFF" stroke-miterlimit="10" x1="11" y1="154.4" x2="0" y2="188"/>
<line fill="none" stroke="#FFFFFF" stroke-miterlimit="10" x1="0" y1="200" x2="30.4" y2="188"/>
<line fill="none" stroke="#FFFFFF" stroke-miterlimit="10" x1="0" y1="188" x2="30.4" y2="188"/>
<line fill="none" stroke="#FFFFFF" stroke-miterlimit="10" x1="30.4" y1="188" x2="11" y2="154.4"/>
<line fill="none" stroke="#FFFFFF" stroke-miterlimit="10" x1="30.4" y1="188" x2="30.4" y2="168.5"/>
<line fill="none" stroke="#FFFFFF" stroke-miterlimit="10" x1="30.4" y1="188" x2="57.3" y2="140.3"/>
<line fill="none" stroke="#FFFFFF" stroke-miterlimit="10" x1="57.3" y1="140.3" x2="57.3" y2="168.5"/>
<line fill="none" stroke="#FFFFFF" stroke-miterlimit="10" x1="57.3" y1="168.5" x2="30.4" y2="188"/>
<line fill="none" stroke="#FFFFFF" stroke-miterlimit="10" x1="30.4" y1="188" x2="57.3" y2="200"/>
<line fill="none" stroke="#FFFFFF" stroke-miterlimit="10" x1="57.3" y1="168.5" x2="82.9" y2="181.5"/>
<line fill="none" stroke="#FFFFFF" stroke-miterlimit="10" x1="82.9" y1="181.5" x2="30.4" y2="188"/>
<line fill="none" stroke="#FFFFFF" stroke-miterlimit="10" x1="57.3" y1="200" x2="82.9" y2="181.5"/>
<line fill="none" stroke="#FFFFFF" stroke-miterlimit="10" x1="82.9" y1="181.5" x2="111" y2="200"/>
<line fill="none" stroke="#FFFFFF" stroke-miterlimit="10" x1="82.9" y1="181.5" x2="89.5" y2="200"/>
<line fill="none" stroke="#FFFFFF" stroke-miterlimit="10" x1="82.9" y1="181.5" x2="57.3" y2="140.3"/>
<line fill="none" stroke="#FFFFFF" stroke-miterlimit="10" x1="100" y1="1.4" x2="118.5" y2="22.6"/>
<line fill="none" stroke="#FFFFFF" stroke-miterlimit="10" x1="83.2" y1="50.5" x2="118.5" y2="22.6"/>
<line fill="none" stroke="#FFFFFF" stroke-miterlimit="10" x1="83.2" y1="50.5" x2="53.4" y2="60.4"/>
<line fill="none" stroke="#FFFFFF" stroke-miterlimit="10" x1="83.2" y1="50.5" x2="113.5" y2="70.5"/>
<line fill="none" stroke="#FFFFFF" stroke-miterlimit="10" x1="113.5" y1="70.5" x2="118.5" y2="22.6"/>
<line fill="none" stroke="#FFFFFF" stroke-miterlimit="10" x1="118.5" y1="22.6" x2="144" y2="0"/>
<line fill="none" stroke="#FFFFFF" stroke-miterlimit="10" x1="118.5" y1="22.6" x2="156" y2="38.9"/>
<line fill="none" stroke="#FFFFFF" stroke-miterlimit="10" x1="156" y1="38.9" x2="200" y2="1.4"/>
<line fill="none" stroke="#FFFFFF" stroke-miterlimit="10" x1="156" y1="38.9" x2="144" y2="0"/>
<line fill="none" stroke="#FFFFFF" stroke-miterlimit="10" x1="156" y1="38.9" x2="170" y2="0"/>
<line fill="none" stroke="#FFFFFF" stroke-miterlimit="10" x1="156" y1="38.9" x2="113.5" y2="70.5"/>
<line fill="none" stroke="#FFFFFF" stroke-miterlimit="10" x1="65.8" y1="100" x2="113.5" y2="70.5"/>
<line fill="none" stroke="#FFFFFF" stroke-miterlimit="10" x1="178" y1="20.1" x2="200" y2="38.9"/>
<line fill="none" stroke="#FFFFFF" stroke-miterlimit="10" x1="174.5" y1="54.7" x2="156" y2="38.9"/>
<line fill="none" stroke="#FFFFFF" stroke-miterlimit="10" x1="174.5" y1="54.7" x2="178" y2="20.1"/>
<line fill="none" stroke="#FFFFFF" stroke-miterlimit="10" x1="174.5" y1="54.7" x2="200" y2="80.6"/>
<line fill="none" stroke="#FFFFFF" stroke-miterlimit="10" x1="174.5" y1="54.7" x2="200" y2="38.9"/>
<line fill="none" stroke="#FFFFFF" stroke-miterlimit="10" x1="174.5" y1="54.7" x2="113.5" y2="70.5"/>
<line fill="none" stroke="#FFFFFF" stroke-miterlimit="10" x1="174.5" y1="54.7" x2="200" y2="109.9"/>
<line fill="none" stroke="#FFFFFF" stroke-miterlimit="10" x1="174.5" y1="54.7" x2="163" y2="78"/>
<line fill="none" stroke="#FFFFFF" stroke-miterlimit="10" x1="163" y1="78" x2="200" y2="109.9"/>
<line fill="none" stroke="#FFFFFF" stroke-miterlimit="10" x1="163" y1="78" x2="113.5" y2="70.5"/>
<line fill="none" stroke="#FFFFFF" stroke-miterlimit="10" x1="65.8" y1="100" x2="89.6" y2="128.5"/>
<line fill="none" stroke="#FFFFFF" stroke-miterlimit="10" x1="57.3" y1="140.3" x2="89.6" y2="128.5"/>
<line fill="none" stroke="#FFFFFF" stroke-miterlimit="10" x1="82.9" y1="181.5" x2="89.6" y2="128.5"/>
<line fill="none" stroke="#FFFFFF" stroke-miterlimit="10" x1="163" y1="78" x2="138.3" y2="100"/>
<line fill="none" stroke="#FFFFFF" stroke-miterlimit="10" x1="138.3" y1="100" x2="113.5" y2="70.5"/>
<line fill="none" stroke="#FFFFFF" stroke-miterlimit="10" x1="138.3" y1="100" x2="200" y2="109.9"/>
<line fill="none" stroke="#FFFFFF" stroke-miterlimit="10" x1="109.3" y1="89" x2="138.3" y2="100"/>
<line fill="none" stroke="#FFFFFF" stroke-miterlimit="10" x1="109.3" y1="89" x2="65.8" y2="100"/>
<line fill="none" stroke="#FFFFFF" stroke-miterlimit="10" x1="89.6" y1="128.5" x2="109.3" y2="89"/>
<line fill="none" stroke="#FFFFFF" stroke-miterlimit="10" x1="138.3" y1="100" x2="89.6" y2="128.5"/>
<line fill="none" stroke="#FFFFFF" stroke-miterlimit="10" x1="138.3" y1="100" x2="169.1" y2="128.5"/>
<line fill="none" stroke="#FFFFFF" stroke-miterlimit="10" x1="169.1" y1="128.5" x2="200" y2="109.9"/>
<line fill="none" stroke="#FFFFFF" stroke-miterlimit="10" x1="169.1" y1="128.5" x2="138.3" y2="114.3"/>
<line fill="none" stroke="#FFFFFF" stroke-miterlimit="10" x1="138.3" y1="114.3" x2="89.6" y2="128.5"/>
<line fill="none" stroke="#FFFFFF" stroke-miterlimit="10" x1="138.3" y1="114.3" x2="138.3" y2="100"/>
<line fill="none" stroke="#FFFFFF" stroke-miterlimit="10" x1="169.1" y1="128.5" x2="200" y2="144.3"/>
<line fill="none" stroke="#FFFFFF" stroke-miterlimit="10" x1="169.1" y1="128.5" x2="158.5" y2="149.5"/>
<line fill="none" stroke="#FFFFFF" stroke-miterlimit="10" x1="158.5" y1="149.5" x2="200" y2="144.3"/>
<line fill="none" stroke="#FFFFFF" stroke-miterlimit="10" x1="158.5" y1="149.5" x2="138.3" y2="114.3"/>
<line fill="none" stroke="#FFFFFF" stroke-miterlimit="10" x1="158.5" y1="149.5" x2="200" y2="171.2"/>
<line fill="none" stroke="#FFFFFF" stroke-miterlimit="10" x1="200" y1="200" x2="178" y2="160.3"/>
<line fill="none" stroke="#FFFFFF" stroke-miterlimit="10" x1="178" y1="160.3" x2="153.7" y2="200"/>
<line fill="none" stroke="#FFFFFF" stroke-miterlimit="10" x1="153.7" y1="200" x2="158.5" y2="149.5"/>
<line fill="none" stroke="#FFFFFF" stroke-miterlimit="10" x1="118.5" y1="149.5" x2="89.6" y2="128.5"/>
<line fill="none" stroke="#FFFFFF" stroke-miterlimit="10" x1="118.5" y1="149.5" x2="138.3" y2="114.3"/>
<line fill="none" stroke="#FFFFFF" stroke-miterlimit="10" x1="118.5" y1="149.5" x2="82.9" y2="181.5"/>
<line fill="none" stroke="#FFFFFF" stroke-miterlimit="10" x1="118.5" y1="149.5" x2="158.5" y2="149.5"/>
<line fill="none" stroke="#FFFFFF" stroke-miterlimit="10" x1="118.5" y1="149.5" x2="111" y2="200"/>
<line fill="none" stroke="#FFFFFF" stroke-miterlimit="10" x1="118.5" y1="149.5" x2="153.7" y2="200"/>
<line fill="none" stroke="#FFFFFF" stroke-miterlimit="10" x1="111" y1="200" x2="139.9" y2="180.2"/>
<line fill="none" stroke="#FFFFFF" stroke-miterlimit="10" x1="139.9" y1="180.2" x2="158.5" y2="149.5"/>
<line fill="none" stroke="#FFFFFF" stroke-miterlimit="10" x1="153.7" y1="200" x2="178" y2="181.5"/>
<line fill="none" stroke="#FFFFFF" stroke-miterlimit="10" x1="178" y1="181.5" x2="200" y2="200"/>
<line fill="none" stroke="#FFFFFF" stroke-miterlimit="10" x1="178" y1="181.5" x2="178" y2="160.3"/>
</svg>
