<?xml version="1.0" encoding="UTF-8" standalone="no"?>
<svg width="202px" height="204px" viewBox="0 0 202 204" version="1.1" xmlns="http://www.w3.org/2000/svg" xmlns:xlink="http://www.w3.org/1999/xlink">
    <!-- Generator: Sketch 40.1 (33804) - http://www.bohemiancoding.com/sketch -->
    <title>Group 2</title>
    <desc>Created with Sketch.</desc>
    <defs></defs>
    <g id="Page-1" stroke="none" stroke-width="1" fill="none" fill-rule="evenodd">
        <g id="Group-2" transform="translate(1.000000, 0.000000)" stroke="#FF0000">
            <g id="Group">
                <path d="M0,3 L21.9,30.2" id="Shape"></path>
                <path d="M21.9,30.2 L16.3,0.5" id="Shape"></path>
                <path d="M21.9,30.2 L0,83.6" id="Shape"></path>
                <path d="M0,83.6 L38.9,103" id="Shape"></path>
                <path d="M21.9,30.2 L38.9,103" id="Shape"></path>
                <path d="M0,53.5 L21.9,30.2" id="Shape"></path>
                <path d="M38.9,103 L0,112.9" id="Shape"></path>
                <path d="M21.9,30.2 L53.4,63.4" id="Shape"></path>
                <path d="M38.9,103 L53.4,63.4" id="Shape"></path>
                <path d="M53.4,63.4 L16.8,3" id="Shape"></path>
                <path d="M53.4,63.4 L100,4.4" id="Shape"></path>
                <path d="M53.4,25.6 L16.8,3" id="Shape"></path>
                <path d="M53.4,25.6 L100,4.4" id="Shape"></path>
                <path d="M53.4,63.4 L53.4,25.6" id="Shape"></path>
                <path d="M53.4,25.6 L65.8,3" id="Shape"></path>
                <path d="M53.4,63.4 L65.8,103" id="Shape"></path>
                <path d="M65.8,104.4 L100,4.4" id="Shape"></path>
                <path d="M38.9,103 L57.3,143.3" id="Shape"></path>
                <path d="M38.9,103 L65.8,103" id="Shape"></path>
                <path d="M57.3,143.3 L65.8,104.4" id="Shape"></path>
                <path d="M57.3,143.3 L35.1,112.9" id="Shape"></path>
                <path d="M35.1,112.9 L0,112.9" id="Shape"></path>
                <path d="M35.1,112.9 L38.9,103" id="Shape"></path>
                <path d="M35.1,112.9 L0,137.3" id="Shape"></path>
                <path d="M57.3,143.3 L30.4,171.5" id="Shape"></path>
                <path d="M30.4,171.5 L38.9,141" id="Shape"></path>
                <path d="M38.9,141 L35.1,112.9" id="Shape"></path>
                <path d="M38.9,141 L0,137.3" id="Shape"></path>
                <path d="M30.4,171.5 L11,157.4" id="Shape"></path>
                <path d="M11,157.4 L38.9,141" id="Shape"></path>
                <path d="M11,157.4 L0,137.3" id="Shape"></path>
                <path d="M11,157.4 L0,191" id="Shape"></path>
                <path d="M0,203 L30.4,191" id="Shape"></path>
                <path d="M0,191 L30.4,191" id="Shape"></path>
                <path d="M30.4,191 L11,157.4" id="Shape"></path>
                <path d="M30.4,191 L30.4,171.5" id="Shape"></path>
                <path d="M30.4,191 L57.3,143.3" id="Shape"></path>
                <path d="M57.3,143.3 L57.3,171.5" id="Shape"></path>
                <path d="M57.3,171.5 L30.4,191" id="Shape"></path>
                <path d="M30.4,191 L57.3,203" id="Shape"></path>
                <path d="M57.3,171.5 L82.9,184.5" id="Shape"></path>
                <path d="M82.9,184.5 L30.4,191" id="Shape"></path>
                <path d="M57.3,203 L82.9,184.5" id="Shape"></path>
                <path d="M82.9,184.5 L111,203" id="Shape"></path>
                <path d="M82.9,184.5 L89.5,203" id="Shape"></path>
                <path d="M82.9,184.5 L57.3,143.3" id="Shape"></path>
                <path d="M100,4.4 L118.5,25.6" id="Shape"></path>
                <path d="M83.2,53.5 L118.5,25.6" id="Shape"></path>
                <path d="M83.2,53.5 L53.4,63.4" id="Shape"></path>
                <path d="M83.2,53.5 L113.5,73.5" id="Shape"></path>
                <path d="M113.5,73.5 L118.5,25.6" id="Shape"></path>
                <path d="M118.5,25.6 L144,3" id="Shape"></path>
                <path d="M118.5,25.6 L156,41.9" id="Shape"></path>
                <path d="M156,41.9 L200,4.4" id="Shape"></path>
                <path d="M156,41.9 L144,3" id="Shape"></path>
                <path d="M156,41.9 L170,3" id="Shape"></path>
                <path d="M156,41.9 L113.5,73.5" id="Shape"></path>
                <path d="M65.8,103 L113.5,73.5" id="Shape"></path>
                <path d="M178,23.1 L200,41.9" id="Shape"></path>
                <path d="M174.5,57.7 L156,41.9" id="Shape"></path>
                <path d="M174.5,57.7 L178,23.1" id="Shape"></path>
                <path d="M174.5,57.7 L200,83.6" id="Shape"></path>
                <path d="M174.5,57.7 L200,41.9" id="Shape"></path>
                <path d="M174.5,57.7 L113.5,73.5" id="Shape"></path>
                <path d="M174.5,57.7 L200,112.9" id="Shape"></path>
                <path d="M174.5,57.7 L163,81" id="Shape"></path>
                <path d="M163,81 L200,112.9" id="Shape"></path>
                <path d="M163,81 L113.5,73.5" id="Shape"></path>
                <path d="M65.8,103 L89.6,131.5" id="Shape"></path>
                <path d="M57.3,143.3 L89.6,131.5" id="Shape"></path>
                <path d="M82.9,184.5 L89.6,131.5" id="Shape"></path>
                <path d="M163,81 L138.3,103" id="Shape"></path>
                <path d="M138.3,103 L113.5,73.5" id="Shape"></path>
                <path d="M138.3,103 L200,112.9" id="Shape"></path>
                <path d="M109.3,92 L138.3,103" id="Shape"></path>
                <path d="M109.3,92 L65.8,103" id="Shape"></path>
                <path d="M89.6,131.5 L109.3,92" id="Shape"></path>
                <path d="M138.3,103 L89.6,131.5" id="Shape"></path>
                <path d="M138.3,103 L169.1,131.5" id="Shape"></path>
                <path d="M169.1,131.5 L200,112.9" id="Shape"></path>
                <path d="M169.1,131.5 L138.3,117.3" id="Shape"></path>
                <path d="M138.3,117.3 L89.6,131.5" id="Shape"></path>
                <path d="M138.3,117.3 L138.3,103" id="Shape"></path>
                <path d="M169.1,131.5 L200,147.3" id="Shape"></path>
                <path d="M169.1,131.5 L158.5,152.5" id="Shape"></path>
                <path d="M158.5,152.5 L200,147.3" id="Shape"></path>
                <path d="M158.5,152.5 L138.3,117.3" id="Shape"></path>
                <path d="M158.5,152.5 L200,174.2" id="Shape"></path>
                <path d="M200,203 L178,163.3" id="Shape"></path>
                <path d="M178,163.3 L153.7,203" id="Shape"></path>
                <path d="M153.7,203 L158.5,152.5" id="Shape"></path>
                <path d="M118.5,152.5 L89.6,131.5" id="Shape"></path>
                <path d="M118.5,152.5 L138.3,117.3" id="Shape"></path>
                <path d="M118.5,152.5 L82.9,184.5" id="Shape"></path>
                <path d="M118.5,152.5 L158.5,152.5" id="Shape"></path>
                <path d="M118.5,152.5 L111,203" id="Shape"></path>
                <path d="M118.5,152.5 L153.7,203" id="Shape"></path>
                <path d="M111,203 L139.9,183.2" id="Shape"></path>
                <path d="M139.9,183.2 L158.5,152.5" id="Shape"></path>
                <path d="M153.7,203 L178,184.5" id="Shape"></path>
                <path d="M178,184.5 L200,203" id="Shape"></path>
                <path d="M178,184.5 L178,163.3" id="Shape"></path>
            </g>
        </g>
    </g>
</svg>