<?xml version="1.0" encoding="UTF-8" standalone="no"?>
<svg width="574px" height="410px" viewBox="0 0 574 410" version="1.1" xmlns="http://www.w3.org/2000/svg" xmlns:xlink="http://www.w3.org/1999/xlink">
    <!-- Generator: Sketch 40.1 (33804) - http://www.bohemiancoding.com/sketch -->
    <title>Group 7</title>
    <desc>Created with Sketch.</desc>
    <defs></defs>
    <g id="Page-1" stroke="none" stroke-width="1" fill="none" fill-rule="evenodd">
        <g id="Group-7">
            <rect id="Rectangle-2" fill="#FFFFFF" x="0" y="0" width="574" height="410"></rect>
            <g id="taskworld" transform="translate(12.000000, 127.000000)">
                <g id="Layer_1">
                    <g id="Group">
                        <g transform="translate(155.974923, 62.598071)" id="Shape" fill="#154E71">
                            <g transform="translate(378.364974, 0.000000)">
                                <polygon points="2.61635355 7.42090032 2.61635355 0.908681672 0.301886948 0.908681672 0.301886948 0.10096463 5.83648099 0.10096463 5.83648099 0.908681672 3.52201439 0.908681672 3.52201439 7.42090032"></polygon>
                                <polygon points="13.2830257 7.42090032 13.2830257 1.41350482 10.8176156 7.42090032 10.4654142 7.42090032 8.00000411 1.41350482 8.00000411 7.42090032 7.09434327 7.42090032 7.09434327 0.10096463 8.40252004 0.10096463 10.6666721 5.60353698 12.9308243 0.10096463 14.239001 0.10096463 14.239001 7.42090032"></polygon>
                            </g>
                            <g>
                                <path d="M22.5408921,0.555305466 L1.35849126,0.555305466 C0.704402878,0.555305466 0.201257965,1.06012862 0.201257965,1.71639871 L0.201257965,4.84630225 C0.201257965,5.50257235 0.704402878,6.0073955 1.35849126,6.0073955 L9.00629393,6.0073955 L9.00629393,29.7845659 C9.00629393,30.440836 9.50943885,30.9456592 10.1635272,30.9456592 L13.6352271,30.9456592 C14.2893155,30.9456592 14.7924604,30.440836 14.7924604,29.7845659 L14.7924604,6.0073955 L22.4905776,6.0073955 C23.144666,6.0073955 23.6478109,5.50257235 23.6478109,4.84630225 L23.6478109,1.71639871 C23.6981254,1.06012862 23.1949805,0.555305466 22.5408921,0.555305466 L22.5408921,0.555305466 Z"></path>
                                <path d="M54.8427955,1.26205788 C54.6415375,0.807717042 54.2390216,0.555305466 53.7861911,0.555305466 L49.4591449,0.555305466 C49.0063145,0.555305466 48.5534841,0.858199357 48.4025406,1.31254019 L37.1320945,29.2797428 C36.9811511,29.633119 37.0314656,30.0369775 37.2327235,30.3903537 C37.4339815,30.6932476 37.7861829,30.8951768 38.1886989,30.8951768 L42.1635437,30.8951768 C42.6163741,30.8951768 43.0692045,30.592283 43.2704625,30.1379421 L45.4339856,24.6353698 L57.761036,24.6353698 L59.9245591,30.1379421 C60.125817,30.592283 60.528333,30.8951768 61.0314779,30.8951768 L65.0063227,30.8951768 L65.0566372,30.8951768 C65.7107256,30.8951768 66.2138705,30.3903537 66.2138705,29.7340836 C66.2138705,29.4311897 66.1132415,29.1787781 65.962298,28.9768489 L54.8427955,1.26205788 L54.8427955,1.26205788 Z M47.3962508,19.2337621 L51.622668,8.48102894 L55.7987708,19.2337621 L47.3962508,19.2337621 L47.3962508,19.2337621 Z"></path>
                                <path d="M94.641558,12.3176849 C91.0189147,11.3080386 88.8050771,10.6012862 88.8050771,8.88488746 C88.8050771,6.91607717 90.6667132,5.60353698 93.3836958,5.60353698 C96.3019363,5.60353698 98.8679753,6.66366559 100.578668,8.58199357 C100.83024,8.83440514 101.132127,8.88488746 101.484329,8.98585209 C101.83653,8.98585209 102.138417,8.83440514 102.339675,8.58199357 L104.452884,6.0073955 C104.805085,5.55305466 104.805085,4.89678457 104.402569,4.44244373 C101.735901,1.6659164 98.012629,0.151446945 93.6352682,0.151446945 C87.3962713,0.151446945 82.8679671,3.93762058 82.8679671,9.08681672 C82.8679671,15.3971061 88.5031901,16.9115756 92.9811798,18.1231511 C96.9560246,19.1832797 99.3711202,19.9909968 99.3711202,22.3131833 C99.3711202,24.0800643 97.9623145,25.9983923 93.9874697,25.9983923 C89.9119959,25.9983923 87.2453278,23.7266881 86.03778,22.4141479 C85.7862076,22.1617363 85.4843206,22.0102894 85.1321192,22.0102894 C84.7799178,22.0102894 84.4780308,22.2122186 84.2767728,22.4646302 L82.2138787,25.0897106 C81.8616773,25.5440514 81.9119918,26.1498392 82.2641932,26.6041801 C84.2264584,28.8254019 87.7987872,31.4504823 93.8365262,31.4504823 C102.289361,31.4504823 105.30823,26.6041801 105.30823,22.0607717 C105.358545,15.1951768 99.1698623,13.5292605 94.641558,12.3176849 L94.641558,12.3176849 Z"></path>
                                <path d="M136.201328,15.0437299 L147.169887,2.47363344 C147.471774,2.12025723 147.522088,1.61543408 147.371145,1.21157556 C147.169887,0.807717042 146.767371,0.504823151 146.314541,0.504823151 L141.93718,0.504823151 C141.584978,0.504823151 141.283091,0.656270096 141.031519,0.908681672 L130.717048,13.0244373 L130.717048,1.71639871 C130.717048,1.06012862 130.213903,0.555305466 129.559815,0.555305466 L126.088115,0.555305466 C125.434027,0.555305466 124.930882,1.06012862 124.930882,1.71639871 L124.930882,29.7340836 C124.930882,30.3903537 125.434027,30.8951768 126.088115,30.8951768 L129.559815,30.8951768 C130.213903,30.8951768 130.717048,30.3903537 130.717048,29.7340836 L130.717048,20.7482315 L132.327112,18.8803859 L142.037809,30.440836 C142.239067,30.6932476 142.591268,30.8446945 142.94347,30.8446945 L147.270516,30.8446945 L147.32083,30.8446945 C147.974919,30.8446945 148.478064,30.3398714 148.478064,29.6836013 C148.478064,29.2797428 148.276806,28.9263666 147.974919,28.7244373 L136.201328,15.0437299 L136.201328,15.0437299 Z"></path>
                                <path d="M201.157336,0.555305466 L197.28312,0.555305466 C196.779975,0.555305466 196.27683,0.908681672 196.176201,1.41350482 L191.144752,20.5967846 L185.861731,1.41350482 C185.710787,0.908681672 185.257957,0.555305466 184.754812,0.555305466 L181.886886,0.555305466 C181.383741,0.555305466 180.880596,0.908681672 180.779967,1.41350482 L175.496945,20.5967846 L170.415182,1.41350482 C170.264238,0.908681672 169.811408,0.555305466 169.308263,0.555305466 L165.434047,0.555305466 C165.081846,0.555305466 164.729644,0.706752412 164.528386,1.0096463 C164.327128,1.31254019 164.226499,1.6659164 164.327128,2.0192926 L172.276818,30.0369775 C172.427762,30.5418006 172.880592,30.8951768 173.383737,30.8951768 L177.157324,30.8951768 C177.660469,30.8951768 178.163614,30.5418006 178.264243,30.0369775 L183.295692,11.5604502 L188.327141,30.0369775 C188.478084,30.5418006 188.930915,30.8951768 189.43406,30.8951768 L193.207646,30.8951768 C193.710791,30.8951768 194.163622,30.5418006 194.314565,30.0369775 L202.264255,2.0192926 C202.364884,1.6659164 202.314569,1.31254019 202.062997,1.0096463 C201.861739,0.706752412 201.509537,0.555305466 201.157336,0.555305466 L201.157336,0.555305466 Z"></path>
                                <path d="M233.710812,0.0504823151 C225.006405,0.0504823151 218.666779,6.66366559 218.666779,15.7 C218.666779,24.7363344 225.006405,31.3495177 233.710812,31.3495177 C242.415219,31.3495177 248.754845,24.7363344 248.754845,15.7 C248.754845,6.66366559 242.415219,0.0504823151 233.710812,0.0504823151 L233.710812,0.0504823151 Z M233.710812,25.94791 C228.276847,25.94791 224.603889,21.8588424 224.603889,15.7504823 C224.603889,9.64212219 228.276847,5.55305466 233.710812,5.55305466 C239.144777,5.55305466 242.817735,9.64212219 242.817735,15.7504823 C242.76742,21.8588424 239.144777,25.94791 233.710812,25.94791 L233.710812,25.94791 Z"></path>
                                <path d="M284.427819,19.1327974 C287.899519,18.1231511 290.918388,15.1951768 290.918388,10.1469453 C290.918388,4.49292605 286.842915,0.504823151 281.006434,0.504823151 L269.786302,0.504823151 C269.132214,0.504823151 268.629069,1.0096463 268.629069,1.6659164 L268.629069,29.6836013 C268.629069,30.3398714 269.132214,30.8446945 269.786302,30.8446945 L273.258002,30.8446945 C273.91209,30.8446945 274.415235,30.3398714 274.415235,29.6836013 L274.415235,19.7385852 L278.188822,19.7385852 L284.981278,30.3398714 C285.182536,30.6932476 285.585052,30.8951768 285.937254,30.8951768 L290.063042,30.8951768 L290.113357,30.8951768 C290.767445,30.8951768 291.27059,30.3903537 291.27059,29.7340836 C291.27059,29.3807074 291.119646,29.0273312 290.868074,28.8254019 L284.427819,19.1327974 L284.427819,19.1327974 Z M284.981278,10.1469453 C284.981278,12.6710611 283.220271,14.3369775 280.553603,14.3369775 L274.364921,14.3369775 L274.364921,5.95691318 L280.553603,5.95691318 C283.220271,5.95691318 284.981278,7.62282958 284.981278,10.1469453 L284.981278,10.1469453 Z"></path>
                                <path d="M328.452999,25.4430868 L316.629093,25.4430868 L316.629093,1.71639871 C316.629093,1.06012862 316.125949,0.555305466 315.47186,0.555305466 L312.00016,0.555305466 C311.346072,0.555305466 310.842927,1.06012862 310.842927,1.71639871 L310.842927,29.7340836 C310.842927,30.3903537 311.346072,30.8951768 312.00016,30.8951768 L328.452999,30.8951768 C329.107087,30.8951768 329.610232,30.3903537 329.610232,29.7340836 L329.610232,26.6041801 C329.610232,25.9983923 329.107087,25.4430868 328.452999,25.4430868 L328.452999,25.4430868 Z"></path>
                                <path d="M359.647983,0.555305466 L350.08823,0.555305466 C349.434142,0.555305466 348.930997,1.06012862 348.930997,1.71639871 L348.930997,29.7340836 C348.930997,30.3903537 349.434142,30.8951768 350.08823,30.8951768 L359.647983,30.8951768 C368.754906,30.8951768 375.144847,24.6858521 375.144847,15.7504823 C375.144847,6.91607717 368.603963,0.555305466 359.647983,0.555305466 L359.647983,0.555305466 Z M369.207737,15.7504823 C369.207737,20.5967846 366.239182,25.4430868 359.647983,25.4430868 L354.717163,25.4430868 L354.717163,5.95691318 L359.647983,5.95691318 C365.43415,5.95691318 369.207737,9.79356913 369.207737,15.7504823 L369.207737,15.7504823 Z"></path>
                            </g>
                        </g>
                        <g id="Shape">
                            <path d="M0,113.787138 L0.0503144913,42.8594855 C0.0503144913,40.2344051 1.40880576,37.7607717 3.67295786,36.4482315 L63.3459445,1.0096463 C65.5597821,-0.302893891 68.3270791,-0.302893891 70.5409167,1.0096463 L130.213903,36.4987138 C132.427741,37.811254 133.836547,40.2848875 133.786232,42.9099678 L133.735918,113.837621 C133.735918,116.462701 132.377426,118.936334 130.113274,120.248875 L70.3899733,155.68746 C68.1761356,157 65.4088386,157 63.195001,155.68746 L3.57232888,120.198392 C1.35849126,118.83537 0,116.412219 0,113.787138 L0,113.787138 Z" fill="#27B6BA"></path>
                            <path d="M133.786232,42.0517685 C133.584974,40.3858521 132.880571,38.8713826 131.773653,37.7102894 L2.06289414,118.936334 C2.51572456,119.390675 3.01886948,119.845016 3.62264337,120.14791 L63.29563,155.636977 C65.5094676,156.949518 68.2767646,156.949518 70.4906022,155.636977 L130.213903,120.198392 C132.377426,118.936334 133.685603,116.614148 133.786232,114.090032 L133.786232,42.0517685 L133.786232,42.0517685 Z" fill="#31A7AA"></path>
                            <g transform="translate(22.138376, 53.006431)" fill="#FFFFFF">
                                <path d="M16.9056691,45.181672 C19.974853,45.181672 22.4905776,42.6575563 22.4905776,39.578135 L22.4905776,28.4720257 C22.4905776,25.3926045 19.974853,22.8684887 16.9056691,22.8684887 C13.8364851,22.8684887 11.3207605,25.3926045 11.3207605,28.4720257 L11.3207605,39.578135 C11.3207605,42.6575563 13.8364851,45.181672 16.9056691,45.181672 L16.9056691,45.181672 Z"></path>
                                <path d="M61.5346228,28.4215434 C64.6038068,28.4215434 67.1195313,25.8974277 67.1195313,22.8180064 L67.1195313,11.7118971 C67.1195313,8.63247588 64.6038068,6.10836013 61.5346228,6.10836013 C58.4654388,6.10836013 55.9497143,8.63247588 55.9497143,11.7118971 L55.9497143,22.8180064 C55.9497143,25.8974277 58.4151243,28.4215434 61.5346228,28.4215434 L61.5346228,28.4215434 Z"></path>
                                <path d="M78.2893484,6.0073955 C78.2893484,2.92797428 80.7547585,0.454340836 83.8239424,0.454340836 C86.8931264,0.454340836 89.3585365,2.92797428 89.3585365,6.0073955 L89.3585365,34.4289389 C89.3585365,35.9938907 89.5094799,41.5469453 85.6352641,45.8884244 C83.6226845,48.1096463 79.8490976,50.785209 73.3082138,50.785209 L49.7107174,50.785209 C43.119519,50.785209 39.3962466,48.1096463 37.383667,45.8884244 C33.5094512,41.5469453 33.6603946,35.9938907 33.6603946,34.4289389 L33.6603946,18.3250804 C33.6603946,16.0533762 33.1572497,14.3874598 32.1006454,13.3778135 C30.5912107,11.8633441 27.9748571,11.5604502 27.0691963,11.5604502 L26.9182528,11.5604502 L5.735852,11.5604502 C2.66666804,11.5604502 0.201257965,9.08681672 0.201257965,6.0073955 C0.201257965,2.92797428 2.66666804,0.454340836 5.735852,0.454340836 L26.8176238,0.454340836 C28.0754861,0.403858521 34.7673135,0.504823151 39.6981336,5.3511254 C42.0126002,7.57234727 44.7295827,11.6109325 44.7295827,18.3755627 L44.7295827,35.2871383 C44.7295827,35.7919614 44.7295827,37.5083601 45.6352436,38.5180064 C46.5409044,39.4771704 48.3019116,39.6790997 49.6604029,39.6790997 L73.2578993,39.6790997 C74.6163905,39.6790997 76.4277122,39.4771704 77.2830586,38.5180064 C78.1887194,37.5588424 78.1887194,35.7919614 78.1887194,35.2366559 L78.1887194,6.0073955 L78.2893484,6.0073955 Z"></path>
                            </g>
                        </g>
                    </g>
                </g>
            </g>
        </g>
    </g>
</svg>