<?xml version="1.0" encoding="UTF-8" standalone="no"?>
<svg width="574px" height="410px" viewBox="0 0 574 410" version="1.1" xmlns="http://www.w3.org/2000/svg" xmlns:xlink="http://www.w3.org/1999/xlink">
    <!-- Generator: Sketch 40.1 (33804) - http://www.bohemiancoding.com/sketch -->
    <title>gold1</title>
    <desc>Created with Sketch.</desc>
    <defs>
        <path d="M23.2231237,0 C20.2931034,0.325221239 18.1227181,3.25221239 18.4482759,6.28761062 C18.4482759,6.28761062 19.9675456,18.3207965 19.9675456,18.7544248 C20.1845842,20.2721239 19.0993915,22.0066372 17.5801217,22.1150442 C16.0608519,22.3318584 7.70486815,23.3075221 6.29411765,23.5243363 C4.99188641,23.7411504 3.68965517,22.5486726 3.25557809,21.2477876 L0.868154158,2.92699115 L23.2231237,0 L23.2231237,0 L23.2231237,0 Z" id="path-1"></path>
        <linearGradient x1="24.0344828%" y1="35.312587%" x2="77.4474138%" y2="53.0794866%" id="linearGradient-3">
            <stop stop-color="#1ABEF0" offset="10.82%"></stop>
            <stop stop-color="#1ABEF0" stop-opacity="0" offset="100%"></stop>
        </linearGradient>
        <path d="M0.434077079,0 C3.36409736,0.325221239 5.53448276,3.25221239 5.20892495,6.28761062 C5.20892495,6.28761062 3.68965517,18.3207965 3.68965517,18.7544248 C3.47261663,20.2721239 4.55780933,22.0066372 6.07707911,22.1150442 C7.59634888,22.3318584 15.9523327,23.3075221 17.3630832,23.5243363 C18.6653144,23.7411504 19.9675456,22.5486726 20.4016227,21.2477876 L22.7890467,2.92699115 L0.434077079,0 L0.434077079,0 L0.434077079,0 Z" id="path-4"></path>
        <linearGradient x1="23.709434%" y1="35.3405224%" x2="76.8830189%" y2="53.3431777%" id="linearGradient-6">
            <stop stop-color="#1ABEF0" offset="10.82%"></stop>
            <stop stop-color="#1ABEF0" stop-opacity="0" offset="100%"></stop>
        </linearGradient>
        <linearGradient x1="0.17034358%" y1="49.9018265%" x2="86.3936709%" y2="49.9018265%" id="linearGradient-7">
            <stop stop-color="#1ABEF0" offset="30.14%"></stop>
            <stop stop-color="#1ABEF0" offset="100%"></stop>
        </linearGradient>
        <linearGradient x1="0.08%" y1="49.7876712%" x2="86.3813575%" y2="49.7876712%" id="linearGradient-8">
            <stop stop-color="#1ABEF0" offset="30.14%"></stop>
            <stop stop-color="#1ABEF0" offset="100%"></stop>
        </linearGradient>
        <linearGradient x1="23.7285068%" y1="35.5085166%" x2="77.0479638%" y2="53.3585394%" id="linearGradient-9">
            <stop stop-color="#1ABEF0" offset="10.82%"></stop>
            <stop stop-color="#FFFFFF" stop-opacity="0" offset="100%"></stop>
        </linearGradient>
    </defs>
    <g id="Page-1" stroke="none" stroke-width="1" fill="none" fill-rule="evenodd">
        <g id="gold1">
            <rect id="Rectangle-2" fill="#FFFFFF" x="0" y="0" width="574" height="410"></rect>
            <g transform="translate(19.000000, 82.000000)" id="Group-2">
                <g>
                    <g id="Page-1">
                        <g id="Group-2">
                            <rect id="XMLID_961_" fill="#FFFFFF" x="0" y="0" width="535" height="244.783186"></rect>
                            <g id="XMLID_274_" transform="translate(54.259635, 69.380531)">
                                <g id="XMLID_680_" transform="translate(137.819473, 15.176991)" fill="#08C2F3">
                                    <path d="M25.7190669,0.758849558 C42.1054767,0.758849558 51.2210953,9.75663717 51.2210953,24.0663717 L51.2210953,43.579646 C51.2210953,57.9977876 42.1054767,66.8871681 25.7190669,66.8871681 C9.22413793,66.8871681 0.10851927,57.8893805 0.10851927,43.579646 L0.10851927,24.0663717 C0.10851927,9.64823009 9.22413793,0.758849558 25.7190669,0.758849558 L25.7190669,0.758849558 L25.7190669,0.758849558 Z M25.7190669,11.1659292 C16.494929,11.1659292 11.3945233,15.6106195 11.3945233,23.9579646 L11.3945233,43.6880531 C11.3945233,52.0353982 16.494929,56.4800885 25.7190669,56.4800885 C34.8346856,56.4800885 40.0436105,52.0353982 40.0436105,43.6880531 L40.0436105,23.9579646 C40.0436105,15.7190265 34.8346856,11.1659292 25.7190669,11.1659292 L25.7190669,11.1659292 L25.7190669,11.1659292 Z" id="XMLID_681_"></path>
                                    <path d="M85.6217039,0.758849558 C102.008114,0.758849558 111.123732,9.75663717 111.123732,24.0663717 L111.123732,43.579646 C111.123732,57.9977876 102.008114,66.8871681 85.6217039,66.8871681 C69.1267748,66.8871681 60.0111562,57.8893805 60.0111562,43.579646 L60.0111562,24.0663717 C60.0111562,9.64823009 69.1267748,0.758849558 85.6217039,0.758849558 L85.6217039,0.758849558 L85.6217039,0.758849558 Z M85.6217039,11.1659292 C76.3975659,11.1659292 71.2971602,15.6106195 71.2971602,23.9579646 L71.2971602,43.6880531 C71.2971602,52.0353982 76.3975659,56.4800885 85.6217039,56.4800885 C94.7373225,56.4800885 99.9462475,52.0353982 99.9462475,43.6880531 L99.9462475,23.9579646 C99.9462475,15.7190265 94.7373225,11.1659292 85.6217039,11.1659292 L85.6217039,11.1659292 L85.6217039,11.1659292 Z" id="XMLID_684_"></path>
                                    <path d="M164.081136,5.09513274 L164.081136,9.43141593 C164.081136,10.7323009 163.864097,11.7079646 163.104462,12.6836283 L132.176471,55.1792035 L161.585193,55.1792035 C163.864097,55.1792035 164.623732,55.9380531 164.623732,58.2146018 L164.623732,62.550885 C164.623732,64.8274336 163.864097,65.5862832 161.585193,65.5862832 L121.107505,65.5862832 C118.8286,65.5862832 118.068966,64.8274336 118.068966,62.550885 L118.068966,58.2146018 C118.068966,56.9137168 118.394523,56.0464602 119.154158,55.0707965 L150.08215,12.5752212 L121.541582,12.5752212 C119.262677,12.5752212 118.503043,11.8163717 118.503043,9.53982301 L118.503043,5.20353982 C118.503043,2.92699115 119.262677,2.16814159 121.541582,2.16814159 L161.042596,2.16814159 C163.321501,2.05973451 164.081136,2.92699115 164.081136,5.09513274 L164.081136,5.09513274 L164.081136,5.09513274 Z" id="XMLID_687_"></path>
                                    <path d="M197.179513,0.758849558 C213.565923,0.758849558 222.681542,9.75663717 222.681542,24.0663717 L222.681542,43.579646 C222.681542,57.9977876 213.565923,66.8871681 197.179513,66.8871681 C180.684584,66.8871681 171.568966,57.8893805 171.568966,43.579646 L171.568966,24.0663717 C171.568966,9.64823009 180.793103,0.758849558 197.179513,0.758849558 L197.179513,0.758849558 L197.179513,0.758849558 Z M197.179513,11.1659292 C187.955375,11.1659292 182.85497,15.6106195 182.85497,23.9579646 L182.85497,43.6880531 C182.85497,52.0353982 187.955375,56.4800885 197.179513,56.4800885 C206.295132,56.4800885 211.504057,52.0353982 211.504057,43.6880531 L211.504057,23.9579646 C211.504057,15.7190265 206.403651,11.1659292 197.179513,11.1659292 L197.179513,11.1659292 L197.179513,11.1659292 Z" id="XMLID_689_"></path>
                                    <path d="M257.950304,56.4800885 C267.174442,56.4800885 271.732252,51.8185841 271.732252,43.9048673 L271.732252,5.20353982 C271.732252,2.92699115 272.491886,2.16814159 274.770791,2.16814159 L279.871197,2.16814159 C282.150101,2.16814159 282.909736,2.92699115 282.909736,5.20353982 L282.909736,43.7964602 C282.909736,57.8893805 274.445233,66.9955752 257.950304,66.9955752 C241.455375,66.9955752 232.882353,57.8893805 232.882353,43.7964602 L232.882353,5.20353982 C232.882353,2.92699115 233.641988,2.16814159 235.920892,2.16814159 L241.129817,2.16814159 C243.408722,2.16814159 244.168357,2.92699115 244.168357,5.20353982 L244.168357,43.9048673 C244.168357,51.8185841 248.726166,56.4800885 257.950304,56.4800885 L257.950304,56.4800885 L257.950304,56.4800885 Z" id="XMLID_692_"></path>
                                </g>
                                <g id="XMLID_586_">
                                    <g id="XMLID_593_" transform="translate(0.000000, 3.252212)">
                                        <path d="M62.2900609,70.4646018 C59.3600406,70.789823 57.1896552,73.7168142 57.515213,76.7522124 C57.515213,76.7522124 59.0344828,88.7853982 59.0344828,89.2190265 C59.2515213,90.7367257 58.1663286,92.4712389 56.6470588,92.579646 C55.127789,92.7964602 46.7718053,93.7721239 45.3610548,93.9889381 C44.0588235,94.2057522 42.7565923,93.0132743 42.3225152,91.7123894 L39.9350913,73.3915929 L62.2900609,70.4646018 L62.2900609,70.4646018 L62.2900609,70.4646018 Z" id="XMLID_604_" fill="#0B9AD6"></path>
                                        <g id="XMLID_601_" transform="translate(39.066937, 70.464602)">
                                            <g id="XMLID_603_-Clipped">
                                                <g>
                                                    <mask id="mask-2" fill="white">
                                                        <use xlink:href="#path-1"></use>
                                                    </mask>
                                                    <g id="path-1"></g>
                                                    <path d="M9.87525355,8.02212389 L26.2616633,17.8871681 L35.0517241,-5.09513274 C35.0517241,-5.09513274 32.1217039,-11.7079646 24.0912779,-11.7079646 L9.87525355,-11.7079646 L12.0456389,-0.216814159 L11.0689655,5.52876106 L9.87525355,8.02212389 L9.87525355,8.02212389 L9.87525355,8.02212389 Z" id="XMLID_603_" fill="url(#linearGradient-3)" opacity="0.7" mask="url(#mask-2)"></path>
                                                </g>
                                            </g>
                                        </g>
                                        <path d="M81.8235294,70.4646018 C84.7535497,70.789823 86.9239351,73.7168142 86.5983773,76.7522124 C86.5983773,76.7522124 85.0791075,88.7853982 85.0791075,89.2190265 C84.862069,90.7367257 85.9472617,92.4712389 87.4665314,92.579646 C88.9858012,92.7964602 97.341785,93.7721239 98.7525355,93.9889381 C100.054767,94.2057522 101.356998,93.0132743 101.791075,91.7123894 L104.178499,73.3915929 L81.8235294,70.4646018 L81.8235294,70.4646018 L81.8235294,70.4646018 Z" id="XMLID_600_" fill="#0B9AD6"></path>
                                        <g id="XMLID_597_" transform="translate(81.389452, 70.464602)">
                                            <g id="XMLID_599_-Clipped">
                                                <g>
                                                    <mask id="mask-5" fill="white">
                                                        <use xlink:href="#path-4"></use>
                                                    </mask>
                                                    <g id="path-4"></g>
                                                    <path d="M1.73630832,7.26327434 L16.7119675,16.1526549 L24.7423935,-4.7699115 C24.7423935,-4.7699115 22.137931,-10.7323009 14.7586207,-10.7323009 L1.84482759,-10.7323009 L3.79817444,-0.216814159 L2.93002028,4.98672566 L1.73630832,7.26327434 L1.73630832,7.26327434 L1.73630832,7.26327434 Z" id="XMLID_599_" fill="url(#linearGradient-6)" opacity="0.7" mask="url(#mask-5)"></path>
                                                </g>
                                            </g>
                                        </g>
                                        <path d="M120.239351,32.3053097 C115.030426,31.8716814 110.689655,28.619469 108.51927,24.0663717 L108.51927,22.8738938 C108.51927,10.4070796 98.2099391,0 85.7302231,0 L85.0791075,0 L85.0791075,0 L60.2281947,0 C65.5456389,4.98672566 68.9097363,10.840708 68.9097363,18.1039823 C68.9097363,26.1261062 64.6774848,33.2809735 58.2748479,37.2920354 C61.6389452,33.3893805 63.2667343,28.5110619 63.2667343,22.9823009 C63.2667343,13.659292 57.515213,5.52876106 49.484787,2.16814159 L49.2677485,2.05973451 C46.5547667,0.975663717 43.7332657,0.325221239 40.5862069,0.325221239 L40.5862069,0.325221239 L40.4776876,0.325221239 C39.826572,0.325221239 39.1754564,0.325221239 38.5243408,0.433628319 C27.0212982,1.51769912 17.9056795,11.1659292 17.9056795,22.9823009 C17.9056795,23.5243363 17.9056795,24.1747788 18.0141988,24.7168142 L17.9056795,24.7168142 L17.9056795,48.5663717 L17.9056795,48.7831858 C17.9056795,50.5176991 16.494929,52.2522124 14.7586207,52.2522124 C13.0223124,52.2522124 11.6115619,50.7345133 11.6115619,49.4336283 L11.6115619,34.9070796 L0.21703854,34.9070796 L0.21703854,50.1924779 L0.21703854,51.4933628 C0.21703854,62.9845133 9.22413793,72.4159292 20.4016227,73.8252212 L23.4401623,73.8252212 L35.0517241,73.8252212 L35.0517241,92.2544248 C35.3772819,93.5553097 36.4624746,94.8561947 37.7647059,94.8561947 L49.0507099,94.8561947 C50.5699797,94.8561947 51.872211,93.3384956 51.872211,91.8207965 L51.872211,79.3539823 C51.9807302,76.4269912 54.3681542,73.7168142 57.4066937,73.7168142 L57.4066937,73.7168142 L85.7302231,73.7168142 L85.7302231,73.7168142 C88.7687627,73.7168142 91.1561866,76.3185841 91.2647059,79.2455752 L91.2647059,91.8207965 C91.2647059,93.3384956 92.5669371,94.9646018 94.0862069,94.9646018 L105.372211,94.9646018 C106.674442,94.9646018 107.868154,93.7721239 108.085193,92.4712389 L108.085193,78.920354 C108.085193,78.920354 108.085193,37.9424779 107.976673,32.5221239 C109.712982,33.2809735 111.666329,33.7146018 113.728195,33.7146018 C116.441176,33.4977876 118.394523,33.0641593 120.239351,32.3053097 L120.239351,32.3053097 L120.239351,32.3053097 Z" id="XMLID_596_" fill="url(#linearGradient-7)"></path>
                                        <path d="M120.239351,32.3053097 C115.573022,31.8716814 111.557809,29.2699115 109.278905,25.4756637 C108.844828,24.7168142 108.627789,23.8495575 108.627789,22.9823009 L108.627789,22.9823009 C108.627789,10.5154867 98.3184584,0.10840708 85.8387424,0.10840708 L85.1876268,0.10840708 L85.1876268,0.10840708 L60.336714,0.10840708 C65.6541582,5.09513274 69.0182556,10.949115 69.0182556,18.2123894 C69.0182556,26.2345133 64.7860041,33.3893805 58.3833671,37.4004425 C61.7474645,33.4977876 63.3752535,28.619469 63.3752535,23.090708 C63.3752535,13.7676991 57.6237323,5.63716814 49.5933063,2.27654867 L49.3762677,2.16814159 C46.663286,1.0840708 43.841785,0.433628319 40.6947262,0.433628319 L40.6947262,0.433628319 L40.5862069,0.433628319 C39.9350913,0.433628319 39.2839757,0.433628319 38.63286,0.542035398 C27.1298174,1.62610619 18.0141988,11.2743363 18.0141988,23.090708 C18.0141988,23.6327434 18.0141988,24.2831858 18.1227181,24.8252212 L18.0141988,24.8252212 L18.0141988,48.6747788 L18.0141988,48.8915929 C18.0141988,50.6261062 16.6034483,52.3606195 14.86714,52.3606195 C13.1308316,52.3606195 11.7200811,50.8429204 11.7200811,49.5420354 L11.7200811,35.0154867 L0.325557809,35.0154867 L0.325557809,50.300885 L0.325557809,51.6017699 C0.325557809,63.0929204 9.3326572,72.5243363 20.510142,73.9336283 L23.5486815,73.9336283 L35.1602434,73.9336283 L35.1602434,92.3628319 C35.4858012,93.6637168 36.5709939,94.9646018 37.8732252,94.9646018 L49.1592292,94.9646018 C50.678499,94.9646018 51.9807302,93.4469027 51.9807302,91.9292035 L51.9807302,79.4623894 C52.0892495,76.5353982 54.4766734,73.8252212 57.515213,73.8252212 L57.515213,73.8252212 L85.8387424,73.8252212 L85.8387424,73.8252212 C88.8772819,73.8252212 91.2647059,76.4269912 91.3732252,79.3539823 L91.3732252,91.9292035 C91.3732252,93.4469027 92.6754564,95.0730088 94.1947262,95.0730088 L105.48073,95.0730088 C106.782961,95.0730088 107.976673,93.880531 108.193712,92.579646 L108.193712,79.0287611 C108.193712,79.0287611 108.193712,38.050885 108.085193,32.630531 C109.821501,33.3893805 111.774848,33.8230088 113.836714,33.8230088 C116.441176,33.4977876 118.394523,33.0641593 120.239351,32.3053097 L120.239351,32.3053097 L120.239351,32.3053097 Z" id="XMLID_595_" fill="url(#linearGradient-8)"></path>
                                        <path d="M0.434077079,34.9070796 C0.434077079,34.9070796 5.53448276,40.5442478 11.8286004,34.9070796 L0.434077079,34.9070796 L0.434077079,34.9070796 L0.434077079,34.9070796 Z" id="XMLID_594_" fill="#0B9AD6"></path>
                                    </g>
                                    <g id="XMLID_588_" transform="translate(41.237323, 0.000000)">
                                        <path d="M16.9290061,40.7610619 L48.1825558,59.4070796 L64.8945233,15.7190265 C64.8945233,15.7190265 59.3600406,3.14380531 43.9503043,3.14380531 L17.0375254,3.14380531 L21.1612576,25.0420354 L19.2079108,35.9911504 L16.9290061,40.7610619 L16.9290061,40.7610619 L16.9290061,40.7610619 Z" id="XMLID_592_" fill="url(#linearGradient-9)" opacity="0.45"></path>
                                        <g id="XMLID_589_" fill="#0B9AD6">
                                            <path d="M8.35598377,5.42035398 C16.494929,8.88938053 22.137931,16.9115044 22.137931,26.2345133 C22.137931,31.7632743 20.1845842,36.8584071 16.8204868,40.7610619 C23.4401623,36.75 27.7809331,29.4867257 27.7809331,21.3561947 C27.7809331,14.2013274 24.4168357,8.34734513 19.31643,3.46902655 C11.3945233,-2.05973451 3.47261663,1.51769912 0,3.68584071 C2.93002028,3.79424779 5.64300203,4.33628319 8.13894523,5.42035398 L8.35598377,5.42035398 L8.35598377,5.42035398 L8.35598377,5.42035398 Z" id="XMLID_591_"></path>
                                            <path d="M0,3.57743363 C0,3.57743363 26.8042596,4.33628319 16.8204868,40.7610619 L19.9675456,37.6172566 L23.6572008,28.5110619 L22.6805274,18.7544248 L18.9908722,7.91371681 L11.8286004,3.14380531 L3.03853955,3.14380531 L0,3.57743363 L0,3.57743363 L0,3.57743363 Z" id="XMLID_590_"></path>
                                        </g>
                                    </g>
                                    <path d="M35.2687627,28.9446903 C35.2687627,27.6438053 33.9665314,26.1261062 32.4472617,26.1261062 C30.9279919,26.1261062 29.6257606,27.7522124 29.6257606,28.9446903 L35.2687627,28.9446903 L35.2687627,28.9446903 L35.2687627,28.9446903 Z" id="XMLID_587_" fill="#FFFFFF"></path>
                                </g>
                            </g>
                        </g>
                    </g>
                </g>
            </g>
        </g>
    </g>
</svg>