<?xml version="1.0" encoding="UTF-8" standalone="no"?>
<svg width="574px" height="410px" viewBox="0 0 574 410" version="1.1" xmlns="http://www.w3.org/2000/svg" xmlns:xlink="http://www.w3.org/1999/xlink">
    <!-- Generator: Sketch 40.1 (33804) - http://www.bohemiancoding.com/sketch -->
    <title>Group 5</title>
    <desc>Created with Sketch.</desc>
    <defs></defs>
    <g id="Page-1" stroke="none" stroke-width="1" fill="none" fill-rule="evenodd">
        <g id="Group-5">
            <rect id="Rectangle-2" fill="#FFFFFF" x="0" y="0" width="574" height="410"></rect>
            <g id="glazziq" transform="translate(25.000000, 25.000000)">
                <g id="Layer_1">
                    <g id="Group">
                        <g id="Shape" fill="#38484D">
                            <path d="M286.545409,77.6943046 L286.448571,77.5975495 L286.448571,77.6943046 L286.545409,77.6943046 L286.545409,77.6943046 Z"></path>
                            <g>
                                <path d="M515.956046,175.126639 L515.956046,175.126639 L505.110123,169.321336 L504.335415,168.934316 C503.851222,168.740806 503.27019,168.644051 502.689159,168.644051 C501.23658,168.644051 499.977678,169.418091 499.202969,170.482397 C499.10613,170.482397 499.10613,170.579152 499.10613,170.579152 C493.58633,178.609821 486.613951,182.963798 477.7048,183.834594 C472.862871,184.318369 467.439909,183.737839 461.726432,181.996248 L459.402306,181.318962 L461.048562,179.577371 C477.607962,162.645238 485.936081,136.908395 485.936081,102.947372 C485.936081,76.1462238 480.706797,54.2795827 470.538744,38.0247344 C454.754053,12.9651766 426.380344,0.290265148 385.998649,0.290265148 C336.417287,0.290265148 305.428936,17.9964392 292.065209,54.0860726 C283.349736,49.5385852 272.116458,47.2164641 259.914795,48.0872595 L259.914795,48.0872595 L259.527441,48.0872595 L259.527441,48.0872595 C258.559055,48.1840145 257.590669,48.2807696 256.622283,48.3775246 C256.331767,48.3775246 255.944413,48.4742797 255.653897,48.4742797 C254.685511,48.5710347 253.620286,48.7645448 252.6519,48.9580549 C252.361385,49.05481 252.070869,49.05481 251.780353,49.151565 C250.908806,49.3450751 249.94042,49.5385852 249.068872,49.7320953 C248.875195,49.8288504 248.681518,49.8288504 248.391002,49.9256054 C247.422616,50.1191155 246.551069,50.4093807 245.679521,50.6996458 C245.389006,50.7964009 245.09849,50.8931559 244.807974,50.989911 C243.839588,51.2801761 242.968041,51.5704413 242.096493,51.8607064 C241.902816,51.9574615 241.6123,52.0542165 241.418623,52.1509716 C240.547076,52.4412367 239.675528,52.8282569 238.803981,53.2152771 C238.707142,53.2152771 238.610304,53.3120322 238.513465,53.3120322 C238.126111,53.5055423 237.738756,53.6990524 237.351402,53.8925625 C237.060886,52.925012 236.77037,51.8607064 236.383016,50.8931559 L236.0925,50.2158706 C235.41463,48.6677898 234.833598,47.119709 234.05889,45.4748732 C219.242584,15.5775629 189.513135,0.483775246 145.548412,0.483775246 C77.180362,0.483775246 43.9647232,34.0577774 43.9647232,103.237638 C43.9647232,107.204595 44.0615618,111.171552 44.3520776,115.041754 C44.3520776,115.622284 44.4489162,116.202814 44.5457548,116.8801 C44.6425933,118.23467 44.8362705,119.492486 44.9331091,120.750302 C46.1920109,131.586867 49.3876846,148.615756 57.3284496,163.225768 C55.779032,165.064114 54.3264531,166.999215 52.6801969,168.837561 C47.0635583,175.416904 40.5753723,179.383861 34.861895,179.577371 L33.9903476,179.577371 C28.373709,179.577371 22.853909,176.48121 19.5613967,171.643457 L19.5613967,171.643457 L19.5613967,171.643457 C19.4645581,171.449947 19.2708809,171.256437 19.1740423,171.159682 L19.1740423,171.159682 L19.1740423,171.159682 C18.3993335,170.288887 17.2372703,169.708356 16.0752071,169.708356 C15.397337,169.708356 14.7194668,169.901867 14.1384352,170.192132 L14.1384352,170.192132 L4.45457548,175.223394 L3.5830281,175.610414 C1.93677195,176.67472 0.774708778,178.513066 0.774708778,180.641677 C0.774708778,181.609228 1.06522457,182.576778 1.45257896,183.447573 C1.64625615,183.737839 1.74309475,183.931349 1.93677195,184.221614 C3.38935091,186.44698 5.32612285,188.865856 7.55341059,190.897712 L8.42495796,191.574998 C16.0752071,198.541361 25.6622283,202.314808 35.5397652,201.927788 C47.1603969,201.540768 58.8778672,195.058179 68.4648883,183.737839 C69.3364357,182.770288 70.1111444,181.802738 70.8858532,180.835187 C71.0795304,181.028697 71.176369,181.222207 71.3700462,181.318962 C74.9530743,184.705389 78.7297796,187.704796 82.7001621,190.123672 C98.7753692,200.186197 119.886183,205.314215 145.548412,205.314215 C169.080191,205.314215 189.997328,200.089442 205.975696,190.123672 C220.88884,180.931942 231.831602,166.32193 237.738756,148.035225 C239.191335,143.003963 242.387009,130.812827 241.999655,117.363875 L241.999655,116.493079 C241.805977,114.267713 240.353398,112.429367 238.319788,111.655327 C238.029272,111.558572 237.738756,111.461817 237.448241,111.365062 C234.833598,110.591021 231.153732,109.623471 231.153732,109.623471 C208.977693,104.108433 178.570373,103.431148 165.109808,103.431148 L161.333103,103.431148 C142.062222,104.495453 125.502822,108.172145 110.880194,114.751488 C98.8722078,120.169771 88.3168007,127.716665 77.3740392,138.649986 L76.2119761,139.811046 C75.7277831,140.391577 75.1467515,140.875352 74.6625585,141.359127 C69.3364357,125.878319 69.2395971,109.333206 69.2395971,109.333206 L69.2395971,109.333206 C69.1427585,106.817574 69.0459199,104.398698 69.0459199,102.076577 C69.0459199,46.8294439 94.8049867,18.7704796 145.548412,18.7704796 C148.744085,18.7704796 151.746082,19.0607447 154.748078,19.2542548 L156.68485,19.4477649 C158.524784,19.641275 160.364717,19.8347851 162.107812,20.1250503 C162.495166,20.2218053 162.785682,20.2218053 163.173036,20.3185604 L163.947745,20.5120705 C192.515131,26.1238633 205.394665,44.6040777 211.204981,59.5043553 L211.204981,59.5043553 L211.204981,59.6978654 C213.529107,65.7934335 214.788009,71.3084713 215.36904,75.0819183 L215.36904,75.0819183 C215.465879,75.6624485 215.562718,76.1462238 215.853233,76.629999 C216.531104,77.9845697 217.886844,78.8553652 219.5331,78.8553652 L219.726777,78.8553652 L237.932434,78.8553652 L238.126111,78.8553652 C239.191335,78.8553652 240.159721,78.3715899 240.93443,77.6943046 L240.93443,77.6943046 L240.93443,77.6943046 L240.93443,77.6943046 L241.031269,77.6943046 C241.128107,77.5975495 241.224946,77.5007945 241.418623,77.4040394 L241.515462,77.3072844 L241.6123,77.2105293 C241.999655,76.9202642 242.29017,76.629999 242.677525,76.4364889 L242.968041,76.2429788 C243.258556,76.0494687 243.645911,75.8559586 244.130104,75.4689385 C244.226942,75.4689385 244.226942,75.3721834 244.323781,75.3721834 L244.42062,75.2754284 C244.807974,75.0819183 245.195328,74.7916531 245.679521,74.598143 C245.873199,74.501388 246.066876,74.4046329 246.163714,74.3078779 C246.744746,74.0176127 247.228939,73.8241026 247.616293,73.6305925 L247.713132,73.5338375 L247.80997,73.4370824 C248.197325,73.2435723 248.778356,73.0500622 249.359388,72.8565521 L249.746742,72.663042 L249.94042,72.566287 C250.521451,72.3727769 251.102483,72.1792668 251.586676,71.9857567 C251.683514,71.9857567 251.683514,71.9857567 251.780353,71.8890016 L252.070869,71.7922466 C252.748739,71.5987365 253.426609,71.4052264 253.910802,71.3084713 L254.007641,71.3084713 L254.298156,71.2117163 C254.782349,71.1149612 255.363381,70.9214511 256.041251,70.8246961 L256.428606,70.727941 L256.525444,70.727941 L256.622283,70.727941 C257.300153,70.631186 257.978023,70.5344309 258.559055,70.4376759 L258.655893,70.4376759 L258.946409,70.4376759 L259.333764,70.3409208 C259.914795,70.2441658 260.592665,70.2441658 261.270535,70.1474107 C261.464213,70.1474107 261.65789,70.1474107 261.851567,70.0506557 C274.246908,69.2766153 283.156058,73.3403274 286.254894,77.0170192 L286.351732,77.1137743 L286.254894,77.1137743 C285.189669,84.1768929 284.705476,91.6270317 284.608637,99.6577008 L284.608637,102.463597 C284.608637,170.192132 318.792662,204.540174 386.095487,204.540174 C406.044238,204.540174 423.281509,201.444013 437.323105,195.251689 L438.000976,194.961424 L438.582007,195.251689 C450.880509,201.734278 462.791656,205.023949 474.218611,205.023949 C475.961706,205.023949 477.801639,204.927194 479.932088,204.733684 C486.226597,204.056399 495.619941,201.831033 504.722769,194.961424 L505.787994,194.187384 C506.75638,193.413344 507.724766,192.445793 508.693152,191.574998 L510.436246,190.026917 L510.436246,190.026917 L510.533085,189.833407 C511.114116,189.252876 511.695148,188.672346 512.27618,187.995061 L512.566695,187.704796 C512.95405,187.317775 513.341404,186.834 513.728759,186.44698 C514.697145,185.285919 515.471853,184.221614 516.246562,183.157308 C516.730755,182.480023 517.214948,181.705983 517.699141,181.028697 C517.79598,180.931942 517.79598,180.835187 517.892818,180.738432 C518.280173,180.061147 518.570688,179.287106 518.570688,178.513066 C518.570688,177.25525 517.505464,175.70717 515.956046,175.126639 L515.956046,175.126639 Z M87.5420919,160.710137 C95.5796955,151.905427 105.747748,141.939657 120.176699,135.457069 C134.702489,128.877726 151.746082,125.684809 172.372703,125.684809 C177.020956,125.684809 181.959724,125.878319 186.995331,126.168584 L192.224616,126.458849 C200.068542,126.942625 207.331437,127.4264 214.981686,128.684216 L214.981686,128.974481 C214.788009,131.780377 213.044914,151.518407 200.455896,166.031665 C199.971703,166.612195 199.48751,167.09597 198.906479,167.6765 C198.422286,168.160276 198.034931,168.644051 197.550738,169.127826 C196.194998,170.385642 195.032935,171.546702 194.064549,172.320743 C181.959724,181.899493 165.594001,186.737245 145.64525,186.737245 C118.627282,186.737245 98.6785306,178.609821 85.8958358,162.548483 C86.573706,161.871197 87.1547376,161.193912 87.5420919,160.710137 L87.5420919,160.710137 Z M242.193332,75.8559586 L242.193332,75.7592036 L242.193332,75.8559586 L242.193332,75.8559586 Z M415.243905,182.383268 C406.528431,185.189164 396.747733,186.543735 386.095487,186.543735 C356.850231,186.543735 335.642578,176.86823 323.247238,157.807485 L323.150399,157.807485 L322.569368,156.93669 C321.504143,155.291854 320.535757,153.550263 319.567371,151.421652 C319.470532,151.228142 319.276855,150.937877 319.180017,150.744367 C318.986339,150.454102 318.792662,150.067081 318.598985,149.680061 L317.921115,148.325491 L318.114792,148.228736 C317.630599,147.067675 317.243245,146.003369 316.85589,144.842309 L316.274859,143.390983 L317.824276,142.907208 C331.769034,139.133761 347.069533,138.746741 361.207968,141.649392 C363.14474,142.036412 364.984673,142.423433 366.824607,143.003963 L367.502477,143.197473 C381.156719,147.261185 394.22993,156.065895 404.010628,167.966766 C407.496817,172.127233 411.4672,176.190945 415.824937,180.157902 L417.66487,181.899493 L415.243905,182.383268 L415.243905,182.383268 Z M438.485169,169.127826 L437.613621,169.998622 L436.645235,169.224581 C430.641242,164.773849 425.218281,159.645831 420.570028,154.034038 C410.595653,141.939657 398.006635,132.360907 384.255554,126.265339 C372.8286,120.750302 359.271196,118.04116 343.77702,118.04116 C333.802645,118.04116 323.344076,119.105466 312.594992,121.330832 L311.045574,121.621097 L310.65822,118.04116 C310.464543,116.589834 310.270866,115.041754 310.174027,113.493673 C310.077189,112.429367 310.077189,111.848837 310.077189,111.848837 L310.077189,111.171552 L310.174027,111.074797 C309.98035,108.2689 309.883511,105.366249 309.883511,102.173332 L309.883511,100.141476 C309.98035,93.1751125 310.464543,86.6925242 311.33609,80.6937111 C317.533761,39.7663253 342.614957,19.0607447 386.192326,19.0607447 C435.870526,19.0607447 461.048562,47.022954 461.048562,102.270087 C460.951723,132.651173 453.398313,155.098344 438.485169,169.127826 L438.485169,169.127826 Z"></path>
                            </g>
                        </g>
                        <g transform="translate(8.715474, 282.524744)" id="Shape" fill="#38494E">
                            <path d="M306.784676,74.8884082 L306.784676,70.727941 C306.687838,70.1474107 306.300483,69.6636355 305.719452,69.6636355 L305.622613,69.6636355 L305.525774,69.6636355 L260.883181,69.6636355 L307.753062,7.93391404 C307.849901,7.74040394 307.946739,7.4501388 307.946739,7.2566287 L307.946739,1.83834594 C307.946739,1.16106059 307.365708,0.580530296 306.687838,0.580530296 L253.329771,0.580530296 C252.6519,0.580530296 252.070869,1.16106059 252.070869,1.83834594 L252.070869,5.99881306 C252.070869,6.6760984 252.555062,7.15987365 253.232932,7.2566287 L253.232932,7.2566287 L253.329771,7.2566287 L299.521781,7.2566287 L298.553395,8.41768929 L251.199321,68.8895951 L251.199321,68.9863501 C251.005644,69.1798602 251.005644,69.4701254 251.005644,69.6636355 L251.005644,75.0819183 C251.005644,75.7592036 251.586676,76.3397339 252.264546,76.3397339 L305.622613,76.3397339 C306.300483,76.3397339 306.784676,75.8559586 306.881515,75.2754284 L307.268869,75.1786733 L306.881515,75.0819183 L306.784676,74.8884082 L306.784676,74.8884082 Z"></path>
                            <path d="M324.021947,76.2429788 L377.380014,76.2429788 C378.057884,76.2429788 378.542077,75.7592036 378.638915,75.0819183 L378.638915,74.9851632 L378.638915,74.8884082 L378.638915,70.8246961 L378.638915,70.727941 C378.542077,70.1474107 378.154722,69.6636355 377.573691,69.6636355 L377.476852,69.6636355 L377.380014,69.6636355 L332.73742,69.6636355 L333.608968,68.5025749 L379.510463,7.93391404 C379.607301,7.74040394 379.70414,7.54689385 379.70414,7.2566287 L379.70414,1.83834594 C379.70414,1.16106059 379.123108,0.580530296 378.445238,0.580530296 L325.087171,0.580530296 C324.409301,0.580530296 323.925108,1.06430554 323.828269,1.74159089 L323.828269,5.90205801 C323.828269,6.57934335 324.312462,7.15987365 324.990333,7.15987365 L324.990333,7.15987365 L325.087171,7.15987365 L371.279182,7.15987365 L322.956722,68.8895951 C322.859883,69.0831052 322.763045,69.2766153 322.763045,69.4701254 L322.472529,69.6636355 L322.859883,69.6636355 L322.859883,74.9851632 L322.472529,75.0819183 L322.859883,75.0819183 C322.859883,75.7592036 323.440915,76.2429788 324.021947,76.2429788 L324.021947,76.2429788 Z"></path>
                            <path d="M155.522787,69.8571456 L116.303155,69.8571456 L116.303155,2.03185604 C116.303155,1.25781564 115.722124,0.774040394 115.044254,0.774040394 L109.427615,0.774040394 C108.749745,0.774040394 108.168713,1.35457069 108.168713,2.03185604 L108.168713,74.8884082 C108.168713,75.5656935 108.749745,76.1462238 109.427615,76.1462238 L155.522787,76.1462238 C156.200657,76.1462238 156.781689,75.5656935 156.781689,74.8884082 L156.781689,71.1149612 C156.68485,70.4376759 156.103819,69.8571456 155.522787,69.8571456 L155.522787,69.8571456 Z"></path>
                            <path d="M209.074532,1.35457069 C208.880854,0.870795444 208.396661,0.580530296 207.912468,0.580530296 L199.390672,0.580530296 C198.906479,0.580530296 198.519124,0.870795444 198.325447,1.25781564 L198.228609,1.54808079 L167.143419,74.6948981 C167.04658,74.7916531 167.04658,74.9851632 167.04658,75.1786733 C167.04658,75.8559586 167.627612,76.4364889 168.305482,76.4364889 L174.406314,76.4364889 C174.890507,76.4364889 175.3747,76.1462238 175.568377,75.6624485 L203.361054,7.74040394 L218.85523,45.3781181 L197.744416,45.3781181 C197.260223,45.3781181 196.872868,45.6683833 196.679191,46.1521585 L196.679191,46.1521585 C196.679191,46.2489136 196.582352,46.4424237 196.582352,46.4424237 L195.032935,50.8931559 C195.032935,50.989911 194.936096,51.086666 194.936096,51.1834211 C194.936096,51.6671963 195.323451,51.9574615 195.710805,52.0542165 L221.469872,52.0542165 L221.566711,52.2477266 L231.056893,75.1786733 L231.056893,75.1786733 L231.153732,75.4689385 C231.347409,75.9527137 231.734763,76.3397339 232.315795,76.3397339 L239.094497,76.3397339 C239.772367,76.3397339 240.353398,75.7592036 240.353398,75.0819183 C240.353398,74.8884082 240.353398,74.7916531 240.25656,74.598143 L209.074532,1.35457069 L209.074532,1.35457069 Z"></path>
                            <path d="M405.850561,0.774040394 L400.137084,0.774040394 C399.459214,0.774040394 398.878182,1.35457069 398.878182,2.03185604 L398.878182,74.8884082 C398.878182,75.5656935 399.459214,76.1462238 400.137084,76.1462238 L405.850561,76.1462238 C406.528431,76.1462238 407.109463,75.5656935 407.109463,74.8884082 L407.109463,2.03185604 C407.012624,1.35457069 406.528431,0.774040394 405.850561,0.774040394 L405.850561,0.774040394 Z"></path>
                            <path d="M79.6981656,21.9633962 L79.8918428,22.5439265 C80.7633901,24.8660477 81.2475831,26.9946588 81.4412603,28.3492294 L81.4412603,28.3492294 L81.4412603,28.4459845 L81.4412603,28.5427395 C81.5380989,29.1232698 82.0222919,29.51029 82.6033235,29.51029 L89.5757025,29.51029 C90.2535727,29.51029 90.8346043,28.9297597 90.8346043,28.2524744 L90.8346043,27.9622092 C90.4472499,25.543333 89.9630569,23.4147219 89.3820253,21.3828659 L89.3820253,21.2861108 C89.2851867,21.0926007 89.1883481,20.8023356 89.1883481,20.6088255 C89.0915095,20.2218053 88.8978323,19.7380301 88.8009937,19.3510099 L88.7041551,19.0607447 C88.5104779,18.4802144 88.2199621,17.8996841 87.9294463,17.3191538 C82.4096463,6.19232315 71.2732076,0.483775246 54.8106461,0.483775246 C29.2452564,0.483775246 16.7530773,13.0619317 16.7530773,38.9922849 C16.7530773,40.4436106 16.8499159,41.8949363 16.8499159,43.4430171 L16.9467545,44.1203025 C16.9467545,44.4105676 17.0435931,44.7008328 17.0435931,44.9910979 L17.1404317,45.5716282 C17.6246247,49.8288504 18.7866879,56.1179286 21.7886844,61.5362114 L21.885523,61.7297215 L21.6918458,61.9232315 C21.1108142,62.6005169 20.5297826,63.3745573 19.948751,64.0518426 C17.7214633,66.664229 15.2036598,68.1155547 12.976372,68.2123098 L12.6858562,68.2123098 C10.8459229,68.2123098 8.90915095,67.3415143 7.55341059,65.8901886 L7.55341059,66.1804537 L6.87554041,65.0193931 C6.87554041,64.9226381 6.77870181,64.9226381 6.77870181,64.9226381 L6.77870181,64.9226381 C6.39134742,64.5356179 5.81031584,64.4388628 5.32612285,64.6323729 L4.74509127,64.9226381 L4.74509127,64.9226381 L1.35574036,66.664229 C0.871547376,66.9544941 0.484192986,67.6317795 0.484192986,68.2123098 C0.484192986,68.5025749 0.581031584,68.79284 0.677870181,69.0831052 L0.774708778,69.2766153 C1.45257896,70.3409208 2.13044914,71.1149612 2.90515792,71.7922466 L3.19567371,72.0825117 C6.00399303,74.6948981 9.58702113,76.0494687 13.1700492,75.9527137 C17.4309475,75.7592036 21.7886844,73.4370824 25.3717125,69.1798602 C25.6622283,68.8895951 25.9527441,68.5025749 26.2432599,68.2123098 L26.5337757,67.8252896 L27.0179686,68.3090648 C28.373709,69.5668804 29.826288,70.727941 31.2788669,71.5987365 C37.28286,75.3721834 45.2236249,77.3072844 54.8106461,77.3072844 C63.6229584,77.3072844 71.4668848,75.3721834 77.4708778,71.5987365 C82.9906779,68.1155547 87.1547376,62.6972719 89.2851867,55.9244185 C89.9630569,53.6990524 91.0282815,49.2483201 90.8346043,44.4105676 L90.8346043,44.1203025 C90.7377657,43.4430171 90.3504113,42.8624868 89.6725411,42.5722217 L89.3820253,42.4754666 C88.4136393,42.1852015 87.1547376,41.8949363 87.057899,41.7981813 C77.4708778,39.3793051 63.719797,39.3793051 60.7178005,39.4760601 C53.4549057,39.8630803 47.2572355,41.217651 41.834274,43.7332823 C37.3796986,45.7651383 33.3124775,48.5710347 29.2452564,52.7315019 L28.7610634,53.2152771 C28.5673862,53.4087872 28.373709,53.6022973 28.1800318,53.7958074 L27.7926774,54.2795827 L27.5990002,53.6990524 C25.5653897,47.7969944 25.5653897,41.5079161 25.5653897,41.5079161 L25.5653897,41.4111611 C25.4685511,40.4436106 25.4685511,39.5728152 25.4685511,38.7020197 C25.4685511,17.5126639 35.346088,6.77285345 54.8106461,6.77285345 C56.0695478,6.77285345 57.231611,6.8696085 58.2968356,6.96636355 L59.0715443,7.0631186 C59.7494145,7.15987365 60.5241233,7.15987365 61.1051549,7.35338375 C61.2019935,7.35338375 61.3956707,7.4501388 61.4925093,7.4501388 L61.7830251,7.54689385 C72.3384322,9.57874988 77.2772006,16.4483584 79.6981656,21.9633962 L79.6981656,21.9633962 L79.6981656,21.9633962 Z M31.7630599,61.3427013 C32.0535757,61.0524361 32.2472529,60.762171 32.3440915,60.5686609 C35.4429266,57.1822341 39.3164705,53.4087872 44.8362705,50.8931559 C50.3560706,48.3775246 56.8442566,47.2164641 64.688183,47.2164641 C66.5281163,47.2164641 68.3680497,47.3132191 70.207983,47.4099742 L72.144755,47.5067292 C74.9530743,47.7002393 77.8582322,47.8937494 80.7633901,48.3775246 L81.0539059,48.4742797 L81.0539059,48.9580549 C80.9570673,49.8288504 80.3760357,57.5692543 75.4372673,63.1810472 C75.2435901,63.3745573 75.0499129,63.5680674 74.8562357,63.7615775 L74.7593971,63.8583325 C74.6625585,64.0518426 74.4688813,64.1485977 74.2752041,64.3421078 C73.7910111,64.825883 73.3068181,65.2129032 72.9194638,65.5999234 C68.2712111,69.2766153 61.9767023,71.1149612 54.3264531,71.1149612 C44.0615618,71.1149612 36.314474,68.0187997 31.4725441,61.8264765 L31.2788669,61.6329664 L31.7630599,61.3427013 L31.7630599,61.3427013 Z"></path>
                            <path d="M512.857211,66.0836987 L511.114116,65.3096583 L511.501471,65.3096583 L508.402636,63.6648224 C508.305797,63.5680674 508.11212,63.5680674 507.918443,63.5680674 C507.531088,63.5680674 507.143734,63.7615775 506.950057,64.1485977 C504.819608,67.3415143 502.011288,68.9863501 498.621937,69.3733703 C496.782004,69.5668804 494.651555,69.3733703 492.424267,68.696085 L490.971688,68.3090648 L492.036913,67.2447593 C498.234583,60.9556811 501.333418,51.3769312 501.333418,38.6052647 C501.333418,28.5427395 499.396646,20.4153154 495.619941,14.3197473 C489.712786,5.03126256 479.157379,0.290265148 464.050558,0.290265148 C438.582007,0.290265148 426.186667,12.7716665 426.186667,38.6052647 C426.186667,63.8583325 438.969362,76.7267541 464.050558,76.7267541 C471.50713,76.7267541 477.898478,75.5656935 483.2246,73.2435723 L483.611955,73.0500622 L483.999309,73.2435723 C488.550723,75.6624485 493.005299,76.8235091 497.266197,76.8235091 C497.944067,76.8235091 498.621937,76.8235091 499.396646,76.7267541 C501.720773,76.533244 505.206962,75.6624485 508.596313,73.1468173 L508.983667,72.8565521 C509.274183,72.566287 509.564699,72.2760218 509.952053,71.9857567 L510.726762,71.2117163 C510.920439,71.0182062 511.114116,70.8246961 511.307794,70.631186 L511.501471,70.3409208 C511.598309,70.2441658 511.791987,70.0506557 511.888825,69.9539006 C512.27618,69.5668804 512.566695,69.1798602 512.857211,68.696085 C513.050888,68.4058199 513.244566,68.2123098 513.438243,67.9220446 L513.535081,67.8252896 C513.63192,67.6317795 513.728759,67.4382694 513.728759,67.1480042 C513.63192,66.664229 513.341404,66.2772088 512.857211,66.0836987 L512.857211,66.0836987 Z M475.090158,68.79284 C471.797646,69.8571456 468.020941,70.3409208 464.050558,70.3409208 C453.010958,70.3409208 444.973355,66.664229 440.228263,59.5043553 L440.228263,59.5043553 L439.840909,59.0205801 C439.453554,58.3432947 439.0662,57.6660094 438.678846,56.891969 L438.582007,56.6017038 C438.485169,56.5049488 438.38833,56.3114387 438.38833,56.2146836 L438.000976,55.3438882 L438.097814,55.3438882 C438.000976,55.053623 437.807298,54.6666029 437.71046,54.3763377 L437.323105,53.5055423 L438.291491,53.2152771 C443.617614,51.7639514 449.42793,51.5704413 454.850891,52.7315019 C455.528762,52.8282569 456.206632,53.021767 456.981341,53.2152771 L457.271856,53.3120322 C462.501141,54.860113 467.439909,58.2465397 471.216614,62.794027 C472.572355,64.4388628 474.024934,65.9869436 475.67119,67.3415143 L476.833253,68.4058199 L475.090158,68.79284 L475.090158,68.79284 Z M483.515116,64.2453527 L482.934085,63.7615775 C480.609958,62.0199866 478.576348,60.0848856 476.833253,57.9562745 C473.153386,53.5055423 468.408295,49.9256054 463.275849,47.6034843 C459.014951,45.5716282 453.979344,44.6040777 448.169028,44.6040777 C444.489162,44.6040777 440.518779,44.9910979 436.548397,45.8618934 L435.580011,46.0554035 L435.386333,44.3138126 C435.289495,43.7332823 435.192656,43.152752 435.192656,42.5722217 L435.095818,41.5079161 L435.095818,41.5079161 C434.998979,40.6371207 434.998979,39.4760601 434.998979,38.3149995 C434.998979,17.2223988 444.779677,6.57934335 464.147397,6.57934335 C483.127762,6.57934335 492.714783,17.2223988 492.714783,38.3149995 C492.714783,49.9256054 489.809625,58.4400498 484.096148,63.8583325 L483.515116,64.2453527 L483.515116,64.2453527 Z"></path>
                        </g>
                    </g>
                </g>
            </g>
        </g>
    </g>
</svg>