<?xml version="1.0" encoding="UTF-8" standalone="no"?>
<svg width="574px" height="410px" viewBox="0 0 574 410" version="1.1" xmlns="http://www.w3.org/2000/svg" xmlns:xlink="http://www.w3.org/1999/xlink">
    <!-- Generator: Sketch 40.1 (33804) - http://www.bohemiancoding.com/sketch -->
    <title>platinum4</title>
    <desc>Created with Sketch.</desc>
    <defs></defs>
    <g id="Page-1" stroke="none" stroke-width="1" fill="none" fill-rule="evenodd">
        <g id="platinum4">
            <rect id="Rectangle-2" fill="#FFFFFF" x="0" y="0" width="574" height="410"></rect>
            <g id="Group" transform="translate(43.000000, 113.000000)">
                <path d="M461.036442,28.8401254 C425.256661,-8.65203762 365.818966,-9.19278997 329.363245,27.262931 C299.802116,56.8240596 294.574843,101.481191 313.636364,136.404781 C313.996865,137.080721 314.267241,137.756661 314.492555,138.477665 C314.898119,139.874608 314.898119,141.316614 314.717868,142.758621 L311.833856,164.433777 C311.833856,170.201803 316.520376,174.888323 322.288401,174.888323 L344.414185,172.00431 C346.442006,171.733934 348.469828,172.139498 350.272335,173.085815 L350.317398,173.130878 C384.880486,192.012147 428.951803,187.100313 458.512931,158.350313 C494.518025,123.291536 495.689655,65.1155956 461.036442,28.8401254 L461.036442,28.8401254 Z" id="Shape" fill="#FF672B"></path>
                <g transform="translate(0.000000, 44.161442)" id="Shape">
                    <path d="M411.602665,20.2331505 C404.437696,20.2331505 398.894984,21.7202194 394.614028,24.7394201 C390.378135,27.7586207 388.215125,32.5803292 388.170063,32.7605799 C386.637931,36.0952194 387.584248,39.0693574 390.603448,40.5564263 C391.504702,41.0070533 392.360893,41.2323668 393.262147,41.2323668 C395.425157,41.2323668 397.272727,39.9255486 398.48942,37.492163 C398.48942,37.492163 399.570925,35.3291536 401.148119,33.7519592 C403.536442,31.3185737 406.780956,30.3722571 412.36873,30.3722571 C419.759013,30.3722571 424.715909,33.4365204 424.715909,38.0329154 L424.715909,41.6829937 C424.715909,43.7558777 423.364028,45.1077586 421.110893,45.2429467 L403.942006,46.8201411 C399.706113,47.1806426 385.961991,49.5239028 385.961991,63.9890282 C385.961991,74.8040752 394.47884,82.3746082 406.645768,82.3746082 C414.486677,82.3746082 421.020768,80.2115987 424.806034,76.3812696 C425.256661,79.3554075 427.23942,81.1579154 430.213558,81.2029781 L430.348746,81.2029781 C433.728448,81.2029781 435.891458,78.8597179 436.071708,75.0744514 L436.071708,42.0434953 C436.026646,27.7586207 427.554859,20.2331505 411.602665,20.2331505 L411.602665,20.2331505 Z M424.670846,57.5 C424.670846,65.0705329 417.010188,71.7398119 408.268025,71.7398119 C400.15674,71.7398119 397.272727,67.729232 397.272727,63.9890282 C397.272727,60.9247649 399.480799,57.049373 405.789577,56.3283699 L424.715909,54.0301724 L424.715909,57.5 L424.670846,57.5 Z" fill="#FFFFFF"></path>
                    <path d="M451.843652,20.2331505 L451.708464,20.2331505 C448.554075,20.2331505 446.526254,22.3961599 446.391066,25.9110502 C446.346003,26.5869906 446.391066,72.7311912 446.391066,76.7868339 C446.391066,80.2115987 448.373824,82.3746082 451.528213,82.4196708 L451.663401,82.4196708 C454.81779,82.4196708 456.845611,80.2566614 456.980799,76.7417712 C457.025862,76.0658307 456.980799,29.9216301 456.980799,25.8659875 C456.935737,22.4412226 454.952978,20.2782132 451.843652,20.2331505 L451.843652,20.2331505 Z" fill="#FFFFFF"></path>
                    <path d="M451.48315,13.7441223 L451.663401,13.7441223 C455.403605,13.7441223 457.836991,11.1304859 457.972179,6.89459248 C457.927116,2.83894984 455.583856,0.270376176 451.888715,0.180250784 L451.708464,0.180250784 C447.96826,0.180250784 445.534875,2.79388715 445.399687,7.02978056 C445.399687,11.1304859 447.742947,13.6990596 451.48315,13.7441223 L451.48315,13.7441223 Z" fill="#FFFFFF"></path>
                    <path d="M28.75,77.8232759 C27.6684953,80.617163 26.5419279,82.104232 23.8832288,82.104232 C21.1794671,82.104232 19.8726489,80.6622257 18.8812696,77.9584639 L0.630877743,27.3079937 C-0.585815047,24.0184169 0.99137931,21.5850313 3.55995298,20.5035266 C5.99333856,19.5121473 9.14772727,19.9177116 10.3644201,23.2974138 L23.6579154,61.7809561 L38.6187304,24.0184169 C39.7002351,21.3146552 41.5478056,20.007837 43.4855016,20.007837 C45.4231975,20.007837 47.270768,21.3597179 48.3522727,24.0184169 L63.3130878,61.7809561 L76.6065831,23.2974138 C77.8232759,19.8726489 80.9776646,19.5121473 83.4110502,20.5035266 C85.9796238,21.5850313 87.5568182,24.0184169 86.3401254,27.3079937 L68.0897335,77.9584639 C67.0983542,80.617163 65.7915361,82.104232 63.0877743,82.104232 C61.1500784,82.104232 59.3025078,80.6622257 58.2210031,77.8232759 L43.4855016,40.1959248 L28.75,77.8232759 L28.75,77.8232759 Z" fill="#0070A8"></path>
                    <path d="M92.1081505,51.0560345 C92.1081505,33.8871473 103.418887,18.7911442 123.02116,18.7911442 C142.623433,18.7911442 153.934169,33.8871473 153.934169,51.0560345 C153.934169,68.3601097 142.623433,83.3209248 123.02116,83.3209248 C103.418887,83.3209248 92.1081505,68.3601097 92.1081505,51.0560345 L92.1081505,51.0560345 Z M143.389498,51.0560345 C143.389498,38.6187304 135.818966,29.0203762 123.066223,29.0203762 C110.268417,29.0203762 102.742947,38.6187304 102.742947,51.0560345 C102.742947,63.4933386 110.31348,73.2268809 123.066223,73.2268809 C135.818966,73.2268809 143.389498,63.4933386 143.389498,51.0560345 L143.389498,51.0560345 Z" fill="#0070A8"></path>
                    <path d="M193.544279,18.7911442 L193.544279,18.7911442 L192.237461,18.7911442 L192.192398,18.7911442 C177.231583,18.7911442 165.380094,30.1018809 165.380094,44.4768809 L165.380094,76.7417712 C165.380094,80.2566614 168.083856,82.104232 170.742555,82.104232 C173.401254,82.104232 175.969828,80.3017241 175.969828,76.7417712 L175.969828,44.1163793 C175.969828,35.9600313 182.548981,29.0203762 192.147335,29.0203762 L192.192398,29.0203762 L193.454154,29.0203762 L193.499216,29.0203762 C203.097571,29.0203762 209.676724,35.9600313 209.676724,44.1163793 L209.676724,76.7417712 C209.676724,80.2566614 212.245298,82.104232 214.903997,82.104232 C217.562696,82.104232 220.266458,80.3017241 220.266458,76.7417712 L220.266458,44.4768809 C220.356583,30.1018809 208.550157,18.7911442 193.544279,18.7911442 L193.544279,18.7911442 Z" fill="#0070A8"></path>
                    <path d="M291.195141,48.3973354 L291.195141,75.5250784 C291.195141,92.6939655 280.244906,107.564655 260.642633,107.564655 C250.413401,107.564655 242.482367,104.860893 236.759404,98.3268025 C234.461207,95.6230408 235.317398,92.7390282 237.390282,91.0266458 C239.327978,89.2241379 242.392241,89.0889498 244.825627,91.5223354 C247.88989,94.5865987 252.39616,97.6057994 260.642633,97.6057994 C273.170063,97.6057994 280.605408,88.2327586 280.605408,76.1559561 L280.605408,75.7954545 C275.603448,80.5270376 268.934169,83.3659875 260.642633,83.3659875 C241.626176,83.3659875 230.67594,68.4051724 230.67594,51.1010972 C230.67594,33.93221 241.626176,18.8362069 260.642633,18.8362069 C280.335031,18.7911442 291.195141,34.2476489 291.195141,48.3973354 L291.195141,48.3973354 Z M280.605408,51.0560345 C280.605408,38.6187304 274.386755,29.0203762 261.634013,29.0203762 C248.88127,29.0203762 241.310737,38.6187304 241.310737,51.0560345 C241.310737,63.4933386 248.88127,73.2268809 261.634013,73.2268809 C274.386755,73.2268809 280.605408,63.4933386 280.605408,51.0560345 L280.605408,51.0560345 Z" fill="#0070A8"></path>
                    <path d="M350.903213,18.7911442 C350.903213,18.7911442 350.85815,18.7911442 350.903213,18.7911442 L349.596395,18.7911442 L349.551332,18.7911442 C334.590517,18.7911442 322.739028,30.1018809 322.739028,44.4768809 L322.739028,76.7417712 C322.739028,80.2566614 325.44279,82.104232 328.101489,82.104232 C330.760188,82.104232 333.328762,80.3017241 333.328762,76.7417712 L333.328762,44.1163793 C333.328762,35.9600313 339.907915,29.0203762 349.50627,29.0203762 L349.551332,29.0203762 L350.813088,29.0203762 L350.85815,29.0203762 C360.456505,29.0203762 367.035658,35.9600313 367.035658,44.1163793 L367.035658,76.7417712 C367.035658,80.2566614 369.604232,82.104232 372.262931,82.104232 C374.92163,82.104232 377.625392,80.3017241 377.625392,76.7417712 L377.625392,44.4768809 C377.670455,30.1018809 365.864028,18.7911442 350.903213,18.7911442 L350.903213,18.7911442 Z" fill="#FFFFFF"></path>
                </g>
            </g>
        </g>
    </g>
</svg>