<?xml version="1.0" encoding="UTF-8" standalone="no"?>
<svg width="574px" height="410px" viewBox="0 0 574 410" version="1.1" xmlns="http://www.w3.org/2000/svg" xmlns:xlink="http://www.w3.org/1999/xlink">
    <!-- Generator: Sketch 40.1 (33804) - http://www.bohemiancoding.com/sketch -->
    <title>platinum2</title>
    <desc>Created with Sketch.</desc>
    <defs>
        <linearGradient x1="49.9975962%" y1="-0.00644155844%" x2="49.9975962%" y2="99.9914805%" id="linearGradient-1">
            <stop stop-color="#5C5C5C" offset="0%"></stop>
            <stop stop-color="#171717" offset="100%"></stop>
        </linearGradient>
        <radialGradient cx="21.9105685%" cy="35.1827604%" fx="21.9105685%" fy="35.1827604%" r="56.3275875%" id="radialGradient-2">
            <stop stop-color="#575757" offset="0%"></stop>
            <stop stop-color="#575757" offset="0.0367948%"></stop>
            <stop stop-color="#3D3D3D" offset="28.57%"></stop>
            <stop stop-color="#171717" offset="71.43%"></stop>
        </radialGradient>
        <linearGradient x1="50.0166667%" y1="1.33296486%" x2="50.0166667%" y2="104.789814%" id="linearGradient-3">
            <stop stop-color="#5C5C5C" offset="0%"></stop>
            <stop stop-color="#171717" offset="100%"></stop>
        </linearGradient>
        <linearGradient x1="50.0403141%" y1="-0.0191489362%" x2="50.0403141%" y2="100.043383%" id="linearGradient-4">
            <stop stop-color="#A0E861" offset="0%"></stop>
            <stop stop-color="#85CF31" offset="17.2%"></stop>
            <stop stop-color="#51A110" offset="54.3%"></stop>
        </linearGradient>
        <linearGradient x1="50.010791%" y1="-0.0191390041%" x2="50.010791%" y2="99.9914938%" id="linearGradient-5">
            <stop stop-color="#A0E861" offset="0%"></stop>
            <stop stop-color="#85CF31" offset="39.25%"></stop>
            <stop stop-color="#60BA1C" offset="100%"></stop>
        </linearGradient>
        <linearGradient x1="50.010791%" y1="-0.0191390041%" x2="50.010791%" y2="99.9914938%" id="linearGradient-6">
            <stop stop-color="#A0E861" stop-opacity="0" offset="0%"></stop>
            <stop stop-color="#85CF31" stop-opacity="0.3" offset="39.78%"></stop>
            <stop stop-color="#5BB553" stop-opacity="0.7" offset="100%"></stop>
        </linearGradient>
    </defs>
    <g id="Page-1" stroke="none" stroke-width="1" fill="none" fill-rule="evenodd">
        <g id="platinum2">
            <rect id="Rectangle-2" fill="#FFFFFF" x="0" y="0" width="574" height="410"></rect>
            <g transform="translate(47.000000, 136.000000)" id="Layer_1">
                <g>
                    <g id="Group">
                        <path d="M105.032583,119.027656 L105.032583,119.532316 C105.032583,130.70693 96.0523691,139.718715 84.9169037,139.718715 L59.9159879,139.718715 C27.0843255,139.718715 0.431050273,112.971737 0.431050273,80.0246508 L0.431050273,21.123624 C0.431050273,10.0211049 9.41126429,0.93722564 20.5467297,0.93722564 L21.0496216,0.93722564 C32.185087,0.93722564 41.165301,10.0211049 41.165301,21.123624 L41.165301,80.0246508 C41.165301,90.4062271 49.5707814,98.8412579 59.9159879,98.8412579 L84.9169037,98.8412579 C96.0523691,98.8412579 105.032583,107.853043 105.032583,119.027656 L105.032583,119.027656 Z" id="Shape" fill="url(#linearGradient-1)"></path>
                        <g transform="translate(282.337929, 0.000000)" id="Shape">
                            <path d="M0.143683424,80.0246508 C0.143683424,112.971737 26.7251169,139.718715 59.5567793,139.718715 C74.4998555,139.718715 88.2216225,134.167455 98.6386707,125.011482 C109.199402,134.311644 123.064853,139.862903 138.223454,139.718715 C170.983275,139.430338 197.2055,112.250794 197.2055,79.3758023 L197.2055,20.9073412 C197.2055,9.7327278 188.225286,0.7209428 177.08982,0.7209428 L176.730612,0.7209428 C165.595146,0.7209428 156.614932,9.7327278 156.614932,20.9073412 L156.614932,23.3585467 L156.543091,80.0246508 C156.543091,90.4062271 148.13761,98.8412579 137.792404,98.8412579 C127.806406,98.8412579 119.688292,90.9829814 119.041717,81.1781593 L119.041717,80.0246508 L119.041717,20.9073412 C119.041717,9.7327278 110.061503,0.7209428 98.9260376,0.7209428 L98.4949873,0.7209428 C87.3595219,0.7209428 78.3793079,9.7327278 78.3793079,20.9073412 L78.3793079,23.3585467 L78.3074662,80.0246508 C78.3074662,90.4062271 69.9019859,98.8412579 59.5567793,98.8412579 C49.5707814,98.8412579 41.4526679,90.9829814 40.8060925,81.1781593 L40.8060925,80.0246508 L40.8060925,33.3796516 L40.8060925,20.9073412 C40.8060925,9.7327278 31.8258785,0.7209428 20.6904131,0.7209428 L20.2593628,0.7209428 C9.12389744,0.7209428 0.143683424,9.7327278 0.143683424,20.9073412 L0.0718417121,78.1501995 C0.143683424,78.7990481 0.143683424,79.3758023 0.143683424,80.0246508 L0.143683424,80.0246508 Z" fill="url(#radialGradient-2)"></path>
                            <path d="M78.3793079,79.6641794 L78.3793079,80.3130279 C78.5229913,113.260114 105.248108,139.862903 138.151612,139.718715 C170.983275,139.574526 197.277341,112.322888 197.277341,79.3758023 L197.277341,20.8352469 C197.277341,9.66063352 188.297127,0.64884852 177.161662,0.64884852 L176.730612,0.64884852 C165.595146,0.64884852 156.614932,9.66063352 156.614932,20.8352469 L156.614932,22.7096982 L156.543091,80.0246508 C156.543091,90.4062271 148.13761,98.8412579 137.792404,98.8412579 C127.806406,98.8412579 119.616451,90.9829814 119.041717,81.0339707 L119.041717,80.0246508 L119.041717,78.9432366 L119.041717,22.6376039 L119.041717,20.8352469 C119.041717,9.66063352 110.061503,0.64884852 98.9260376,0.64884852 L98.4231456,0.64884852 C87.2876802,0.64884852 78.3074662,9.66063352 78.3074662,20.8352469 L78.3793079,79.6641794 L78.3793079,79.6641794 Z" fill="url(#linearGradient-3)"></path>
                        </g>
                        <g transform="translate(118.538825, 0.720943)" id="Shape">
                            <path d="M21.1933051,0 L20.2593628,0 C9.12389744,0 0.143683424,9.011785 0.143683424,20.1863984 L0.143683424,57.1707641 L0.143683424,81.7549135 L0.143683424,118.739279 C0.143683424,129.913893 9.12389744,138.925678 20.2593628,138.925678 L21.1933051,138.925678 C32.3287705,138.925678 41.3089845,129.913893 41.3089845,118.739279 L41.3089845,81.7549135 L41.3089845,57.1707641 L41.3089845,20.1863984 C41.3089845,9.011785 32.3287705,0 21.1933051,0 L21.1933051,0 Z" fill="url(#linearGradient-4)"></path>
                            <path d="M75.7211646,0 C36.7111149,0 0.287366848,35.7587629 0.143683424,73.8245427 L0.143683424,73.8245427 L0.143683424,81.8270078 L0.143683424,118.811373 C0.143683424,129.985987 9.12389744,138.997772 20.2593628,138.997772 L21.1933051,138.997772 C32.3287705,138.997772 41.3089845,129.985987 41.3089845,118.811373 L41.3089845,81.8270078 L41.3089845,74.0408256 L41.3089845,74.0408256 C41.3089845,53.2055786 54.3841761,39.8681368 75.2901143,39.8681368 C95.0465851,39.8681368 106.110209,55.5125956 106.110209,73.3198828 L106.110209,118.739279 C106.110209,129.913893 115.090423,138.925678 126.225888,138.925678 L127.15983,138.925678 C138.295296,138.925678 147.27551,129.913893 147.27551,118.739279 L147.27551,73.3198828 C147.27551,25.8818465 118.251458,0 75.7211646,0 L75.7211646,0 Z" fill="url(#linearGradient-5)"></path>
                            <path d="M75.7211646,0 C36.7111149,0 0.287366848,35.7587629 0.143683424,73.8245427 L0.143683424,73.8245427 L0.143683424,81.8270078 L0.143683424,118.811373 C0.143683424,129.985987 9.12389744,138.997772 20.2593628,138.997772 L21.1933051,138.997772 C32.3287705,138.997772 41.3089845,129.985987 41.3089845,118.811373 L41.3089845,81.8270078 L41.3089845,74.0408256 L41.3089845,74.0408256 C41.3089845,53.2055786 54.3841761,39.8681368 75.2901143,39.8681368 C95.0465851,39.8681368 106.110209,55.5125956 106.110209,73.3198828 L106.110209,118.739279 C106.110209,129.913893 115.090423,138.925678 126.225888,138.925678 L127.15983,138.925678 C138.295296,138.925678 147.27551,129.913893 147.27551,118.739279 L147.27551,73.3198828 C147.27551,25.8818465 118.251458,0 75.7211646,0 L75.7211646,0 Z" fill="url(#linearGradient-6)"></path>
                        </g>
                    </g>
                </g>
            </g>
        </g>
    </g>
</svg>