<?xml version="1.0" encoding="UTF-8" standalone="no"?>
<svg width="574px" height="410px" viewBox="0 0 574 410" version="1.1" xmlns="http://www.w3.org/2000/svg" xmlns:xlink="http://www.w3.org/1999/xlink">
    <!-- Generator: Sketch 40.1 (33804) - http://www.bohemiancoding.com/sketch -->
    <title>platinum3</title>
    <desc>Created with Sketch.</desc>
    <defs></defs>
    <g id="Page-1" stroke="none" stroke-width="1" fill="none" fill-rule="evenodd">
        <g id="platinum3">
            <rect id="Rectangle-2" fill="#FFFFFF" x="0" y="0" width="574" height="410"></rect>
            <g id="Group" transform="translate(21.000000, 72.000000)">
                <g id="Shape">
                    <path d="M0.695693865,220.596543 C2.95669892,220.161785 5.82643612,219.813978 9.56579064,219.813978 C14.0878008,219.813978 17.4793084,220.857399 19.5663899,222.770337 C21.5665098,224.509371 22.7839741,227.030972 22.7839741,230.248186 C22.7839741,233.4654 21.827395,235.987 20.0011986,237.899938 C17.5662701,240.50849 13.5660304,241.812766 9.04402024,241.812766 C7.65263251,241.812766 6.43516825,241.725814 5.30466572,241.464959 L5.30466572,255.811995 L0.695693865,255.811995 L0.695693865,220.596543 L0.695693865,220.596543 Z M5.39162745,237.812986 C6.43516825,238.073841 7.73959424,238.160793 9.21794371,238.160793 C14.8704564,238.160793 18.1750022,235.378338 18.1750022,230.595993 C18.1750022,225.813647 14.8704564,223.552902 9.73971411,223.552902 C7.73959424,223.552902 6.17428305,223.726806 5.39162745,223.900709 L5.39162745,237.812986 L5.39162745,237.812986 Z M49.4812261,248.855856 C49.4812261,251.464408 49.5681879,253.812105 49.6551496,255.898946 L45.4809864,255.898946 L45.2201012,251.725263 L45.2201012,251.725263 C44.0895987,253.812105 41.3068232,256.507609 36.6978514,256.507609 C32.6976116,256.507609 27.8277546,254.246864 27.8277546,245.290835 L27.8277546,230.248186 L32.5236882,230.248186 L32.5236882,244.334366 C32.5236882,249.203663 34.0889994,252.594781 38.2631626,252.594781 C41.3937849,252.594781 43.5678283,250.420987 44.4374456,248.334146 C44.6983308,247.725484 44.8722543,246.855966 44.8722543,245.986449 L44.8722543,230.248186 L49.5681879,230.248186 L49.5681879,248.855856 L49.4812261,248.855856 Z M57.2208204,218.161895 L61.916754,218.161895 L61.916754,234.247965 L62.0037157,234.247965 C63.6559886,231.378558 66.6126875,229.552572 70.7868507,229.552572 C77.1350572,229.552572 81.5701056,234.856627 81.5701056,242.595332 C81.5701056,251.812215 75.7436695,256.420657 70.0041951,256.420657 C66.2648406,256.420657 63.3951034,255.029429 61.3949836,251.55136 L61.3080218,251.55136 L61.0471366,255.811995 L57.0468969,255.811995 C57.2208204,254.07296 57.2208204,251.464408 57.2208204,249.203663 L57.2208204,218.161895 L57.2208204,218.161895 Z M61.916754,245.55169 C61.916754,246.160353 62.0037157,246.682063 62.0906774,247.290725 C62.9602948,250.507939 65.7430702,252.768684 69.1345778,252.768684 C74.0913966,252.768684 76.9611338,248.768904 76.9611338,242.943138 C76.9611338,237.726035 74.2653201,233.378448 69.3085013,233.378448 C66.0909171,233.378448 63.1342182,235.639193 62.2646009,239.117262 C62.0906774,239.725924 62.0037157,240.334587 62.0037157,241.117152 L62.0037157,245.55169 L61.916754,245.55169 Z M87.3965418,218.161895 L92.0924753,218.161895 L92.0924753,255.811995 L87.3965418,255.811995 L87.3965418,218.161895 L87.3965418,218.161895 Z M102.093075,225.46584 C100.35384,225.46584 99.1363757,224.074613 99.1363757,222.42253 C99.1363757,220.770447 100.35384,219.466171 102.180036,219.466171 C104.006233,219.466171 105.136735,220.770447 105.136735,222.42253 C105.136735,224.074613 104.006233,225.46584 102.093075,225.46584 L102.093075,225.46584 L102.093075,225.46584 Z M99.8320696,255.898946 L99.8320696,230.248186 L104.528003,230.248186 L104.528003,255.898946 L99.8320696,255.898946 L99.8320696,255.898946 Z M130.529561,254.942477 C129.312097,255.55114 126.616283,256.420657 123.137814,256.420657 C115.39822,256.420657 110.354439,251.203553 110.354439,243.290945 C110.354439,235.378338 115.746067,229.639524 124.181355,229.639524 C126.96413,229.639524 129.399059,230.335137 130.616523,231.030751 L129.572982,234.595772 C128.44248,233.98711 126.703245,233.378448 124.181355,233.378448 C118.267957,233.378448 115.137335,237.812986 115.137335,243.117042 C115.137335,249.02976 118.963651,252.681732 124.007431,252.681732 C126.616283,252.681732 128.44248,252.07307 129.746906,251.464408 L130.529561,254.942477 L130.529561,254.942477 Z M172.358155,254.768574 C170.705882,255.638091 167.227413,256.507609 162.879326,256.507609 C152.791765,256.507609 145.226094,250.160132 145.226094,238.334697 C145.226094,227.117923 152.791765,219.553123 163.922867,219.553123 C168.357915,219.553123 171.227652,220.509592 172.445117,221.118254 L171.314614,224.857178 C169.57538,223.987661 167.140451,223.378999 164.183752,223.378999 C155.835426,223.378999 150.269875,228.770006 150.269875,238.160793 C150.269875,246.942918 155.313655,252.507829 163.922867,252.507829 C166.792604,252.507829 169.662341,251.899167 171.488538,251.02965 L172.358155,254.768574 L172.358155,254.768574 Z M187.837343,256.420657 C180.967367,256.420657 175.488777,251.290505 175.488777,243.203994 C175.488777,234.595772 181.14129,229.552572 188.18519,229.552572 C195.576938,229.552572 200.533756,234.943579 200.533756,242.682283 C200.620718,252.333925 193.924665,256.420657 187.837343,256.420657 L187.837343,256.420657 L187.837343,256.420657 Z M187.924305,252.942588 C192.359354,252.942588 195.750861,248.768904 195.750861,242.943138 C195.750861,238.595552 193.576818,233.117593 188.098229,233.117593 C182.619639,233.117593 180.271673,238.247745 180.271673,243.117042 C180.184711,248.681953 183.402295,252.942588 187.924305,252.942588 L187.924305,252.942588 L187.924305,252.942588 Z M206.447154,237.117372 C206.447154,234.421869 206.360193,232.248075 206.273231,230.161234 L210.360432,230.161234 L210.534356,234.334917 L210.708279,234.334917 C212.099667,231.900269 214.534596,229.639524 218.79572,229.639524 C222.27419,229.639524 224.883042,231.726365 226.013544,234.769676 L226.100506,234.769676 C226.883162,233.291496 227.926702,232.248075 229.057205,231.46551 C230.622516,230.335137 232.274789,229.639524 234.709718,229.639524 C238.188187,229.639524 243.231967,231.900269 243.231967,240.769345 L243.231967,255.898946 L238.709957,255.898946 L238.709957,241.378007 C238.709957,236.421759 236.883761,233.4654 233.144406,233.4654 C230.448593,233.4654 228.448473,235.46529 227.578855,237.639083 C227.404932,238.334697 227.231009,239.204214 227.231009,239.98678 L227.231009,255.898946 L222.708998,255.898946 L222.708998,240.50849 C222.708998,236.334807 220.882802,233.4654 217.317371,233.4654 C214.447634,233.4654 212.27359,235.813096 211.577897,238.160793 C211.317011,238.856407 211.23005,239.638973 211.23005,240.421538 L211.23005,255.898946 L206.70804,255.898946 L206.70804,237.117372 L206.447154,237.117372 Z M250.710676,238.595552 C250.710676,235.291386 250.623715,232.682834 250.536753,230.248186 L254.710916,230.248186 L254.971801,234.682724 L255.058763,234.682724 C256.88496,231.46551 260.015582,229.726475 264.102783,229.726475 C270.364028,229.726475 275.059962,234.943579 275.059962,242.769235 C275.059962,251.986119 269.407449,256.59456 263.40709,256.59456 C259.92862,256.59456 257.058883,255.116381 255.493572,252.594781 L255.40661,252.594781 L255.40661,266.507058 L250.710676,266.507058 L250.710676,238.595552 L250.710676,238.595552 Z M255.40661,245.377787 C255.40661,245.986449 255.493572,246.682063 255.580534,247.290725 C256.363189,250.507939 259.232926,252.768684 262.537472,252.768684 C267.494291,252.768684 270.364028,248.768904 270.364028,242.856187 C270.364028,237.726035 267.668214,233.291496 262.798357,233.291496 C259.580773,233.291496 256.624074,235.552241 255.667495,239.030311 C255.580534,239.638973 255.40661,240.334587 255.40661,240.943249 L255.40661,245.377787 L255.40661,245.377787 Z M298.974438,249.725374 C298.974438,251.986119 299.0614,254.159912 299.322285,255.898946 L295.148122,255.898946 L294.713313,252.681732 L294.53939,252.681732 C293.148002,254.681622 290.365227,256.507609 286.712834,256.507609 C281.49513,256.507609 278.886278,252.855636 278.886278,249.116711 C278.886278,242.943138 284.364867,239.552021 294.365466,239.552021 L294.365466,239.030311 C294.365466,236.943469 293.756734,233.030641 288.53903,233.117593 C286.104102,233.117593 283.582212,233.813207 281.842977,235.030531 L280.799436,231.900269 C282.886518,230.595993 286.01714,229.639524 289.321686,229.639524 C297.235204,229.639524 299.148362,235.030531 299.148362,240.160683 L299.148362,249.725374 L298.974438,249.725374 Z M294.452428,242.769235 C289.321686,242.682283 283.582212,243.551801 283.582212,248.508049 C283.582212,251.55136 285.582331,252.942588 287.930298,252.942588 C291.321806,252.942588 293.495849,250.855746 294.278505,248.681953 C294.452428,248.247194 294.452428,247.638532 294.452428,247.203773 L294.452428,242.769235 L294.452428,242.769235 Z M306.453147,237.117372 C306.453147,234.421869 306.366186,232.248075 306.279224,230.161234 L310.453387,230.161234 L310.714272,234.334917 L310.801234,234.334917 C312.10566,231.98722 315.062359,229.552572 319.323484,229.552572 C322.888915,229.552572 328.367504,231.639413 328.367504,240.50849 L328.367504,255.811995 L323.671571,255.811995 L323.671571,241.0302 C323.671571,236.856517 322.106259,233.378448 317.758173,233.378448 C314.714512,233.378448 312.366545,235.552241 311.496928,238.160793 C311.323004,238.769455 311.149081,239.638973 311.149081,240.334587 L311.149081,255.811995 L306.453147,255.811995 L306.453147,237.117372 L306.453147,237.117372 Z M336.976716,230.161234 L342.542267,244.769125 C343.150999,246.421208 343.846693,248.334146 344.281501,249.812325 L344.368463,249.812325 C344.803272,248.334146 345.412004,246.421208 346.020736,244.682173 L351.151478,230.161234 L356.108297,230.161234 L349.064397,247.725484 C345.759851,256.159802 343.411884,260.507388 340.281262,263.202892 C337.933295,265.11583 335.759251,265.811444 334.541787,266.072299 L333.411285,262.333375 C334.541787,262.072519 336.107098,261.289954 337.498486,260.159581 C338.802912,259.203112 340.281262,257.464078 341.411764,255.203333 C341.585688,254.768574 341.759611,254.420767 341.759611,254.159912 C341.759611,253.899057 341.672649,253.55125 341.411764,253.029539 L331.932935,230.248186 L336.976716,230.248186 L336.976716,230.161234 Z M371.587485,220.074833 L376.283419,220.074833 L376.283419,251.986119 L391.588684,251.986119 L391.588684,255.898946 L371.674447,255.898946 L371.674447,220.074833 L371.587485,220.074833 Z M398.719546,225.46584 C396.980312,225.46584 395.762847,224.074613 395.762847,222.42253 C395.762847,220.770447 396.980312,219.466171 398.806508,219.466171 C400.632704,219.466171 401.763207,220.770447 401.763207,222.42253 C401.850169,224.074613 400.632704,225.46584 398.719546,225.46584 L398.719546,225.46584 L398.719546,225.46584 Z M396.545503,255.898946 L396.545503,230.248186 L401.241436,230.248186 L401.241436,255.898946 L396.545503,255.898946 L396.545503,255.898946 Z M408.894069,237.117372 C408.894069,234.421869 408.807107,232.248075 408.720146,230.161234 L412.807347,230.161234 L412.98127,234.334917 L413.155194,234.334917 C414.633543,231.900269 416.98151,229.639524 421.242635,229.639524 C424.721104,229.639524 427.329956,231.726365 428.460459,234.769676 L428.547421,234.769676 C429.330076,233.291496 430.373617,232.248075 431.50412,231.46551 C433.069431,230.335137 434.721704,229.639524 437.156632,229.639524 C440.635102,229.639524 445.678882,231.900269 445.678882,240.769345 L445.678882,255.898946 L441.156872,255.898946 L441.156872,241.378007 C441.156872,236.421759 439.330676,233.4654 435.591321,233.4654 C432.895507,233.4654 430.895387,235.46529 430.02577,237.639083 C429.851847,238.334697 429.677923,239.204214 429.677923,239.98678 L429.677923,255.898946 L425.155913,255.898946 L425.155913,240.50849 C425.155913,236.334807 423.329717,233.4654 419.764286,233.4654 C416.894548,233.4654 414.720505,235.813096 414.024811,238.160793 C413.763926,238.856407 413.676964,239.638973 413.676964,240.421538 L413.676964,255.898946 L409.154954,255.898946 L409.154954,237.117372 L408.894069,237.117372 Z M455.418596,225.46584 C453.679362,225.46584 452.461897,224.074613 452.461897,222.42253 C452.461897,220.770447 453.679362,219.466171 455.505558,219.466171 C457.331754,219.466171 458.462257,220.770447 458.462257,222.42253 C458.462257,224.074613 457.331754,225.46584 455.418596,225.46584 L455.418596,225.46584 L455.418596,225.46584 Z M453.157591,255.898946 L453.157591,230.248186 L457.853525,230.248186 L457.853525,255.898946 L453.157591,255.898946 L453.157591,255.898946 Z M471.245632,224.074613 L471.245632,230.248186 L477.941685,230.248186 L477.941685,233.813207 L471.245632,233.813207 L471.245632,247.638532 C471.245632,250.855746 472.115249,252.594781 474.724101,252.594781 C476.028527,252.594781 476.724221,252.507829 477.419915,252.246974 L477.593838,255.811995 C476.724221,256.159802 475.245871,256.420657 473.419675,256.420657 C471.245632,256.420657 469.506397,255.638091 468.375894,254.420767 C467.071468,252.942588 466.549698,250.681843 466.549698,247.638532 L466.549698,233.639303 L462.63642,233.639303 L462.63642,230.074282 L466.63666,230.074282 L466.63666,225.378889 L471.245632,224.074613 L471.245632,224.074613 Z M485.507356,243.812656 C485.594318,250.160132 489.594557,252.768684 494.290491,252.768684 C497.595037,252.768684 499.682118,252.160022 501.421353,251.464408 L502.29097,254.768574 C500.638697,255.55114 497.76896,256.420657 493.681759,256.420657 C485.855203,256.420657 481.072307,251.203553 481.072307,243.464849 C481.072307,235.639193 485.681279,229.552572 493.159988,229.552572 C501.508315,229.552572 503.682358,236.943469 503.682358,241.638862 C503.682358,242.595332 503.595396,243.377897 503.508435,243.899608 L485.507356,243.812656 L485.507356,243.812656 Z M499.160348,240.50849 C499.24731,237.552131 497.942884,232.943689 492.72518,232.943689 C487.942284,232.943689 485.942164,237.291276 485.594318,240.50849 L499.160348,240.50849 L499.160348,240.50849 Z M531.597074,218.161895 L531.597074,249.203663 C531.597074,251.464408 531.684036,254.07296 531.770998,255.811995 L527.596835,255.811995 L527.422911,251.377456 L527.335949,251.377456 C525.944562,254.246864 522.813939,256.420657 518.639776,256.420657 C512.465493,256.420657 507.595636,251.203553 507.595636,243.377897 C507.508674,234.769676 512.900302,229.552572 519.074585,229.552572 C523.074825,229.552572 525.683677,231.378558 526.814179,233.4654 L526.901141,233.4654 L526.901141,218.161895 L531.597074,218.161895 L531.597074,218.161895 Z M526.901141,240.682393 C526.901141,240.073731 526.814179,239.291166 526.727217,238.682504 C526.031523,235.726145 523.509633,233.291496 520.031164,233.291496 C515.248269,233.291496 512.378531,237.552131 512.378531,243.117042 C512.378531,248.334146 514.987383,252.681732 519.944202,252.681732 C523.074825,252.681732 525.944562,250.594891 526.814179,247.116822 C526.988102,246.508159 526.988102,245.812546 526.988102,245.116932 L526.988102,240.682393 L526.901141,240.682393 Z" fill="#005B9E"></path>
                    <g transform="translate(220.013185, 0.000000)">
                        <g>
                            <path d="M222.535075,16.4338773 C225.491774,16.4338773 227.926702,13.9992288 227.926702,11.0428699 C227.926702,8.08651105 225.491774,5.65186256 222.535075,5.65186256 L182.532678,5.65186256 C179.575979,5.65186256 177.14105,8.08651105 177.14105,11.0428699 L177.14105,197.206528 C177.14105,200.162886 179.575979,202.597535 182.532678,202.597535 L222.535075,202.597535 C225.491774,202.597535 227.926702,200.162886 227.926702,197.206528 C227.926702,194.250169 225.578736,191.989424 222.535075,191.989424 L187.924305,191.989424 L187.924305,108.167954 L222.535075,108.167954 C225.491774,108.167954 227.926702,105.733306 227.926702,102.776947 C227.926702,99.6466846 225.404812,96.9511809 222.535075,96.9511809 L187.924305,96.9511809 L187.924305,16.4338773 L222.535075,16.4338773 L222.535075,16.4338773 Z"></path>
                            <path d="M301.322405,137.731543 C298.53963,137.731543 296.278625,139.992288 296.278625,142.687792 L296.278625,191.29381 L255.841419,191.29381 L255.841419,15.2165531 L296.278625,15.2165531 L296.278625,53.9100737 C296.278625,56.6925291 298.53963,58.9532741 301.322405,58.9532741 C304.105181,58.9532741 306.366186,56.6925291 306.366186,53.9100737 L306.366186,10.6081113 C306.366186,7.82565586 304.105181,5.56491083 301.322405,5.56491083 L250.449791,5.56491083 C247.493092,5.56491083 245.058164,7.99955932 245.058164,10.9559182 L245.058164,197.119576 C245.058164,200.075935 247.493092,202.510583 250.449791,202.510583 L301.322405,202.510583 C304.279104,202.510583 306.540109,200.075935 306.540109,197.119576 L306.540109,142.687792 C306.540109,139.905336 304.105181,137.731543 301.322405,137.731543 L301.322405,137.731543 Z"></path>
                            <path d="M80.8744118,5.56491083 C79.3091006,5.56491083 77.5698659,5.91271776 76.0915164,8.60822144 C75.917593,9.21688356 45.9157951,116.428369 45.9157951,116.428369 C45.9157951,116.428369 15.0443798,8.95602837 14.7834946,8.08651105 C13.2181834,5.91271776 11.739834,5.65186256 10.435408,5.65186256 C7.65263251,5.65186256 5.39162745,7.91260759 5.39162745,10.695063 L5.39162745,198.076045 C5.39162745,200.8585 7.65263251,203.119245 10.435408,203.119245 C13.2181834,203.119245 15.5661502,200.8585 15.5661502,198.076045 L15.5661502,77.3000895 L15.5661502,59.5619362 C15.5661502,59.5619362 41.9155553,145.557199 46.0897185,158.68691 C49.9160348,145.557199 75.5697461,58.5185155 75.5697461,58.5185155 L75.5697461,77.2131378 L75.5697461,197.902141 C75.5697461,200.684597 78.178598,202.945342 80.8744118,202.945342 C83.5702255,202.945342 85.9181923,200.684597 85.9181923,197.902141 L85.9181923,10.6081113 C85.9181923,7.82565586 83.6571872,5.56491083 80.8744118,5.56491083 L80.8744118,5.56491083 Z"></path>
                            <path d="M152.183033,16.4338773 C155.139732,16.4338773 157.57466,13.9992288 157.57466,11.0428699 C157.57466,8.08651105 155.139732,5.65186256 152.183033,5.65186256 L112.180636,5.65186256 C109.223937,5.65186256 106.789008,8.08651105 106.789008,11.0428699 L106.789008,197.989093 C106.789008,200.771549 109.050013,203.032294 111.832789,203.032294 C114.789488,203.032294 117.485301,200.684597 117.485301,197.989093 L117.485301,108.081003 L152.269995,108.081003 C155.226694,108.081003 157.661622,105.646354 157.661622,102.689995 C157.661622,99.7336363 155.226694,97.2989878 152.269995,97.2989878 L117.485301,97.2989878 L117.485301,16.4338773 L152.183033,16.4338773 L152.183033,16.4338773 Z"></path>
                            <path d="M152.183033,21.390126 C157.922507,21.390126 162.618441,16.6947325 162.618441,10.9559182 C162.618441,5.2171039 157.922507,0.52171039 152.183033,0.52171039 L112.180636,0.52171039 C106.441161,0.52171039 101.745228,5.2171039 101.745228,10.9559182 L101.745228,197.902141 C101.745228,203.380101 106.267238,207.901591 111.745827,207.901591 C117.39834,207.901591 122.355158,203.206197 122.355158,197.902141 L122.355158,113.037251 L152.183033,113.037251 C157.922507,113.037251 162.618441,108.341858 162.618441,102.603043 C162.618441,96.8642292 157.922507,92.1688356 152.183033,92.1688356 L122.355158,92.1688356 L122.355158,21.3031743 C126.616283,21.390126 152.183033,21.390126 152.183033,21.390126 L152.183033,21.390126 Z M152.183033,97.2989878 C155.139732,97.2989878 157.57466,99.7336363 157.57466,102.689995 C157.57466,105.646354 155.139732,108.081003 152.183033,108.081003 L117.39834,108.081003 L117.39834,197.989093 C117.39834,200.597645 114.702526,203.032294 111.745827,203.032294 C108.963052,203.032294 106.702046,200.771549 106.702046,197.989093 L106.702046,11.0428699 C106.702046,8.08651105 109.136975,5.65186256 112.093674,5.65186256 L152.096071,5.65186256 C155.05277,5.65186256 157.487699,8.08651105 157.487699,11.0428699 C157.487699,13.9992288 155.05277,16.4338773 152.096071,16.4338773 L117.311378,16.4338773 L117.311378,97.2989878 L152.183033,97.2989878 L152.183033,97.2989878 Z" fill="#005B9E"></path>
                            <path d="M222.535075,21.390126 C228.274549,21.390126 232.970483,16.6947325 232.970483,10.9559182 C232.970483,5.2171039 228.274549,0.52171039 222.535075,0.52171039 L182.532678,0.52171039 C176.793203,0.52171039 172.09727,5.2171039 172.09727,10.9559182 L172.09727,197.119576 C172.09727,202.85839 176.793203,207.553784 182.532678,207.553784 L222.535075,207.553784 C228.274549,207.553784 232.970483,202.85839 232.970483,197.119576 C232.970483,191.380762 228.361511,186.946223 222.535075,186.946223 L192.968086,186.946223 L192.968086,113.124203 L222.535075,113.124203 C228.274549,113.124203 232.970483,108.428809 232.970483,102.689995 C232.970483,96.7772774 228.187588,91.8210287 222.535075,91.8210287 L192.968086,91.8210287 L192.968086,21.390126 L222.535075,21.390126 L222.535075,21.390126 Z M222.535075,96.8642292 C225.404812,96.8642292 227.926702,99.5597328 227.926702,102.689995 C227.926702,105.646354 225.491774,108.081003 222.535075,108.081003 L187.924305,108.081003 L187.924305,191.902472 L222.535075,191.902472 C225.578736,191.902472 227.926702,194.163217 227.926702,197.119576 C227.926702,200.075935 225.491774,202.510583 222.535075,202.510583 L182.532678,202.510583 C179.575979,202.510583 177.14105,200.075935 177.14105,197.119576 L177.14105,11.0428699 C177.14105,8.08651105 179.575979,5.65186256 182.532678,5.65186256 L222.535075,5.65186256 C225.491774,5.65186256 227.926702,8.08651105 227.926702,11.0428699 C227.926702,13.9992288 225.491774,16.4338773 222.535075,16.4338773 L187.924305,16.4338773 L187.924305,96.8642292 L222.535075,96.8642292 L222.535075,96.8642292 Z" fill="#005B9E"></path>
                            <path d="M301.322405,132.688343 C295.843816,132.688343 291.321806,137.209833 291.321806,142.687792 L291.321806,186.337561 L260.885199,186.337561 L260.885199,20.1728018 L291.321806,20.1728018 L291.321806,53.9100737 C291.321806,59.3880328 295.843816,63.9095228 301.322405,63.9095228 C306.800994,63.9095228 311.323004,59.3880328 311.323004,53.9100737 L311.323004,10.6081113 C311.323004,5.13015217 306.800994,0.608662122 301.322405,0.608662122 L250.449791,0.608662122 C244.710317,0.608662122 240.014383,5.30405564 240.014383,11.0428699 L240.014383,197.206528 C240.014383,202.945342 244.710317,207.640735 250.449791,207.640735 L301.322405,207.640735 C307.06188,207.640735 311.496928,202.945342 311.496928,197.206528 L311.496928,142.774744 C311.496928,137.209833 306.887956,132.688343 301.322405,132.688343 L301.322405,132.688343 Z M306.540109,197.119576 C306.540109,200.075935 304.366066,202.510583 301.322405,202.510583 L250.449791,202.510583 C247.493092,202.510583 245.058164,200.075935 245.058164,197.119576 L245.058164,11.0428699 C245.058164,8.08651105 247.493092,5.65186256 250.449791,5.65186256 L301.322405,5.65186256 C304.105181,5.65186256 306.366186,7.91260759 306.366186,10.695063 L306.366186,53.9100737 C306.366186,56.6925291 304.105181,58.9532741 301.322405,58.9532741 C298.53963,58.9532741 296.278625,56.6925291 296.278625,53.9100737 L296.278625,15.2165531 L255.841419,15.2165531 L255.841419,191.29381 L296.278625,191.29381 L296.278625,142.687792 C296.278625,139.905336 298.53963,137.731543 301.322405,137.731543 C304.105181,137.731543 306.540109,139.992288 306.540109,142.687792 L306.540109,197.119576 L306.540109,197.119576 Z" fill="#005B9E"></path>
                            <path d="M80.8744118,0.608662122 C76.7872103,0.608662122 73.5696262,2.60855195 71.5695063,6.43442815 L71.4825446,6.69528334 C71.4825446,6.69528334 49.9160348,83.9084211 45.9157951,98.0815534 C41.8285936,83.8214694 19.4794282,5.82576603 19.4794282,5.82576603 L19.218543,5.4779591 C16.957538,2.17379329 14.0878008,0.52171039 10.5223697,0.52171039 C5.04378052,0.52171039 0.521770399,5.04320044 0.521770399,10.5211595 L0.521770399,197.902141 C0.521770399,203.380101 5.04378052,207.901591 10.5223697,207.901591 C16.0009589,207.901591 20.522969,203.380101 20.522969,197.902141 L20.522969,93.5600633 C27.2190225,114.863238 46.263642,175.816402 46.263642,175.816402 C46.263642,175.816402 64.2647208,116.080562 70.699889,94.1687255 C70.8738125,119.123872 70.699889,197.119576 70.699889,197.902141 C70.699889,203.380101 75.3958226,207.901591 80.9613735,207.901591 C86.4399627,207.901591 90.9619728,203.380101 90.9619728,197.902141 L90.9619728,10.6081113 C90.8750111,5.04320044 86.353001,0.608662122 80.8744118,0.608662122 L80.8744118,0.608662122 Z M85.9181923,197.989093 C85.9181923,200.771549 83.6571872,203.032294 80.8744118,203.032294 C78.0916363,203.032294 75.5697461,200.771549 75.5697461,197.989093 L75.5697461,77.2131378 L75.5697461,58.5185155 C75.5697461,58.5185155 50.0029965,145.470247 46.0897185,158.68691 C42.0025171,145.557199 15.5661502,59.5619362 15.5661502,59.5619362 L15.5661502,77.3000895 L15.5661502,197.989093 C15.5661502,200.771549 13.2181834,203.032294 10.435408,203.032294 C7.65263251,203.032294 5.39162745,200.771549 5.39162745,197.989093 L5.39162745,10.6081113 C5.39162745,7.82565586 7.65263251,5.56491083 10.435408,5.56491083 C11.739834,5.56491083 13.2181834,5.91271776 14.7834946,7.99955932 C15.0443798,8.86907664 45.9157951,116.341417 45.9157951,116.341417 C45.9157951,116.341417 75.917593,9.12993183 76.0915164,8.52126971 C77.5698659,5.91271776 79.3091006,5.4779591 80.8744118,5.4779591 C83.6571872,5.4779591 85.9181923,7.73870412 85.9181923,10.5211595 L85.9181923,197.989093 L85.9181923,197.989093 Z" fill="#005B9E"></path>
                        </g>
                        <path d="M152.183033,16.4338773 C155.139732,16.4338773 157.57466,13.9992288 157.57466,11.0428699 C157.57466,8.08651105 155.139732,5.65186256 152.183033,5.65186256 L112.180636,5.65186256 C109.223937,5.65186256 106.789008,8.08651105 106.789008,11.0428699 L106.789008,197.989093 C106.789008,200.771549 109.050013,203.032294 111.832789,203.032294 C114.789488,203.032294 117.485301,200.684597 117.485301,197.989093 L117.485301,108.081003 L152.269995,108.081003 C155.226694,108.081003 157.661622,105.646354 157.661622,102.689995 C157.661622,99.7336363 155.226694,97.2989878 152.269995,97.2989878 L117.485301,97.2989878 L117.485301,16.4338773 L152.183033,16.4338773 L152.183033,16.4338773 Z" fill="#FFFFFF"></path>
                        <path d="M222.535075,16.4338773 C225.491774,16.4338773 227.926702,13.9992288 227.926702,11.0428699 C227.926702,8.08651105 225.491774,5.65186256 222.535075,5.65186256 L182.532678,5.65186256 C179.575979,5.65186256 177.14105,8.08651105 177.14105,11.0428699 L177.14105,197.206528 C177.14105,200.162886 179.575979,202.597535 182.532678,202.597535 L222.535075,202.597535 C225.491774,202.597535 227.926702,200.162886 227.926702,197.206528 C227.926702,194.250169 225.578736,191.989424 222.535075,191.989424 L187.924305,191.989424 L187.924305,108.167954 L222.535075,108.167954 C225.491774,108.167954 227.926702,105.733306 227.926702,102.776947 C227.926702,99.6466846 225.404812,96.9511809 222.535075,96.9511809 L187.924305,96.9511809 L187.924305,16.4338773 L222.535075,16.4338773 L222.535075,16.4338773 Z" fill="#FFFFFF"></path>
                        <path d="M301.322405,137.731543 C298.53963,137.731543 296.278625,139.992288 296.278625,142.687792 L296.278625,191.29381 L255.841419,191.29381 L255.841419,15.2165531 L296.278625,15.2165531 L296.278625,53.9100737 C296.278625,56.6925291 298.53963,58.9532741 301.322405,58.9532741 C304.105181,58.9532741 306.366186,56.6925291 306.366186,53.9100737 L306.366186,10.6081113 C306.366186,7.82565586 304.105181,5.56491083 301.322405,5.56491083 L250.449791,5.56491083 C247.493092,5.56491083 245.058164,7.99955932 245.058164,10.9559182 L245.058164,197.119576 C245.058164,200.075935 247.493092,202.510583 250.449791,202.510583 L301.322405,202.510583 C304.279104,202.510583 306.540109,200.075935 306.540109,197.119576 L306.540109,142.687792 C306.540109,139.905336 304.105181,137.731543 301.322405,137.731543 L301.322405,137.731543 Z" fill="#FFFFFF"></path>
                        <path d="M80.8744118,5.56491083 C79.3091006,5.56491083 77.5698659,5.91271776 76.0915164,8.60822144 C75.917593,9.21688356 45.9157951,116.428369 45.9157951,116.428369 C45.9157951,116.428369 15.0443798,8.95602837 14.7834946,8.08651105 C13.2181834,5.91271776 11.739834,5.65186256 10.435408,5.65186256 C7.65263251,5.65186256 5.39162745,7.91260759 5.39162745,10.695063 L5.39162745,198.076045 C5.39162745,200.8585 7.65263251,203.119245 10.435408,203.119245 C13.2181834,203.119245 15.5661502,200.8585 15.5661502,198.076045 L15.5661502,77.3000895 L15.5661502,59.5619362 C15.5661502,59.5619362 41.9155553,145.557199 46.0897185,158.68691 C49.9160348,145.557199 75.5697461,58.5185155 75.5697461,58.5185155 L75.5697461,77.2131378 L75.5697461,197.902141 C75.5697461,200.684597 78.178598,202.945342 80.8744118,202.945342 C83.5702255,202.945342 85.9181923,200.684597 85.9181923,197.902141 L85.9181923,10.6081113 C85.9181923,7.82565586 83.6571872,5.56491083 80.8744118,5.56491083 L80.8744118,5.56491083 Z" fill="#FFFFFF"></path>
                    </g>
                </g>
                <g id="Shape">
                    <path d="M128.703365,29.3027336 C128.703365,29.3027336 107.745587,35.8241135 71.4825446,61.1270674 C28.5234485,91.1254149 0.0869617331,130.253694 0.0869617331,130.253694 L0.0869617331,151.730772 C0.0869617331,151.730772 8.60921158,131.297115 42.350364,92.690546 C78.7003684,51.21457 128.703365,29.3027336 128.703365,29.3027336 L128.703365,29.3027336 Z" fill="#00ADDC"></path>
                    <path d="M117.746187,41.9976864 C108.789128,46.6930799 86.0921158,60.5184053 56.6120882,92.7774978 C25.5667495,126.775625 0.173923466,172.251381 0.173923466,172.251381 L0.173923466,189.902582 C0.173923466,189.902582 24.5232087,134.340426 57.7425908,95.9947118 C88.7879295,59.9966949 109.39786,46.5191765 117.746187,41.9976864 L117.746187,41.9976864 Z" fill="#00ADDC"></path>
                    <path d="M66.6126875,144.513778 C90.2662789,80.2564484 130.355638,51.3884735 130.355638,51.3884735 C130.355638,51.3884735 108.615205,62.7791503 74.2653201,115.124093 C49.3073027,153.122 37.480507,204.684377 36.6978514,207.988542 L56.0033561,207.988542 C55.9163944,205.640846 54.8728536,176.425064 66.6126875,144.513778 L66.6126875,144.513778 Z" fill="#00ADDC"></path>
                    <path d="M138.530041,39.1282793 C138.530041,39.1282793 114.441641,49.1277284 76.4393634,89.7341872 C34.0889994,135.036039 5.30466572,204.162666 3.82631626,207.901591 L24.1753618,207.901591 C24.7840939,204.33657 36.176081,144.513778 75.0479757,97.0381326 C109.658745,54.9534945 138.530041,39.1282793 138.530041,39.1282793 L138.530041,39.1282793 Z" fill="#00ADDC"></path>
                    <path d="M44.0895987,52.4318942 C78.0916363,31.4765269 115.659105,18.6946223 115.659105,18.6946223 C115.659105,18.6946223 97.1362559,21.6509812 68.4388839,33.389465 C18.6967726,53.6492185 0.173923466,71.4743235 0.173923466,71.4743235 L0.173923466,86.5169731 C0.173923466,86.5169731 10.6962932,73.0394547 44.0895987,52.4318942 L44.0895987,52.4318942 Z" fill="#00ADDC"></path>
                    <path d="M182.880525,0.347806927 L0.173923466,0.347806927 L0.173923466,55.0404462 C0.173923466,55.0404462 30.4366066,33.7372719 78.6134067,20.1728018 C109.136975,11.5645803 152.443918,3.565021 182.880525,0.347806927 L182.880525,0.347806927 Z" fill="#00ADDC"></path>
                    <path d="M54.4380449,63.6486676 C85.4833836,39.6499897 125.746666,22.2596433 125.746666,22.2596433 C125.746666,22.2596433 90.7010876,34.5198375 58.2643612,54.6056875 C45.1331395,62.7791503 27.1320607,74.1698272 0.173923466,99.5597328 L0.173923466,112.341637 C0.173923466,112.341637 23.3927062,87.5603939 54.4380449,63.6486676 L54.4380449,63.6486676 Z" fill="#00ADDC"></path>
                    <path d="M177.749782,45.388804 C177.749782,45.388804 138.269156,72.3438408 139.051811,142.861695 C139.48662,177.555436 148.617602,205.640846 149.313296,207.988542 L175.662701,207.988542 C174.61916,205.988652 163.488058,185.120237 157.487699,158.68691 C139.660543,79.0391241 177.749782,45.388804 177.749782,45.388804 L177.749782,45.388804 Z" fill="#00ADDC"></path>
                    <path d="M86.5269244,146.948427 C101.484343,83.2128073 138.790926,50.8667631 138.790926,50.8667631 C138.790926,50.8667631 115.39822,68.8657715 92.2663988,112.080782 C68.4388839,156.687021 68.0040753,204.771328 68.0040753,207.901591 L82.9614934,207.901591 C82.7006082,205.553894 79.7439092,175.642498 86.5269244,146.948427 L86.5269244,146.948427 Z" fill="#00ADDC"></path>
                    <path d="M165.488178,133.297005 C172.532078,179.468374 187.228611,205.727797 188.533037,207.901591 L207.75158,207.901591 L207.75158,30.4331061 C202.968685,33.8242236 155.661502,68.9527233 165.488178,133.297005 L165.488178,133.297005 Z" fill="#00ADDC"></path>
                    <path d="M160.618321,50.2581009 C160.618321,50.2581009 116.789608,85.908311 114.093794,155.382745 C112.87633,185.381092 119.92023,205.988652 120.528962,207.988542 L139.312696,207.988542 C138.617003,206.423411 133.573222,194.163217 130.094753,170.077587 C118.615804,90.3428493 160.618321,50.2581009 160.618321,50.2581009 L160.618321,50.2581009 Z" fill="#00ADDC"></path>
                    <path d="M154.357076,46.7800317 C154.357076,46.7800317 112.441521,77.0392343 97.4841028,140.687902 C88.7879295,177.816291 94.2665187,205.727797 94.7013273,207.988542 L111.050133,207.988542 C110.441401,206.336459 105.658506,193.032844 104.87585,165.730001 C102.701807,92.7774978 154.357076,46.7800317 154.357076,46.7800317 L154.357076,46.7800317 Z" fill="#00ADDC"></path>
                    <path d="M182.880525,0.347806927 C152.356956,3.565021 109.050013,11.4776286 78.526445,20.1728018 C30.3496448,33.8242236 0.0869617331,55.0404462 0.0869617331,55.0404462 L0.0869617331,71.4743235 C0.0869617331,71.4743235 18.6967726,53.7361702 68.3519222,33.389465 C97.0492941,21.6509812 115.572143,18.6946223 115.572143,18.6946223 C115.572143,18.6946223 78.0046746,31.4765269 44.0026369,52.4318942 C10.6962932,72.9525029 0.0869617331,86.4300213 0.0869617331,86.4300213 L0.0869617331,99.4727811 C27.045099,74.1698272 45.0461777,62.6921986 58.1773994,54.5187358 C90.6141259,34.4328858 125.659704,22.1726916 125.659704,22.1726916 C125.659704,22.1726916 85.3964219,39.5630379 54.3510832,63.5617159 C23.3057445,87.5603939 0.0869617331,112.254686 0.0869617331,112.254686 L0.0869617331,130.253694 C0.0869617331,130.253694 28.5234485,91.1254149 71.4825446,61.1270674 C107.658626,35.8241135 128.703365,29.3027336 128.703365,29.3027336 C128.703365,29.3027336 78.7003684,51.21457 42.350364,92.7774978 C8.60921158,131.471018 0.0869617331,151.817724 0.0869617331,151.817724 L0.0869617331,172.251381 C0.0869617331,172.251381 25.4797878,126.775625 56.5251265,92.7774978 C86.005154,60.5184053 108.702166,46.6930799 117.659225,41.9976864 C109.310898,46.5191765 88.7879295,60.0836466 57.5686673,96.0816636 C24.3492853,134.427377 0,189.989534 0,189.989534 L0,207.988542 L3.65239279,207.988542 C5.21770399,204.249618 33.9150759,135.122991 76.2654399,89.8211389 C114.267717,49.2146802 138.356117,39.215231 138.356117,39.215231 C138.356117,39.215231 109.484822,55.0404462 74.8740522,97.2120361 C36.0021575,144.687682 24.6101705,204.510473 24.0014383,208.075494 L36.5239279,208.075494 C37.3065835,204.771328 49.1333792,153.208951 74.0913966,115.211045 C108.441281,62.9530538 130.181714,51.4754252 130.181714,51.4754252 C130.181714,51.4754252 90.1793172,80.3434001 66.4387641,144.60073 C54.6989301,176.512015 55.7424709,205.727797 55.8294326,208.075494 L67.8301518,208.075494 C67.8301518,204.945232 68.1779987,156.860924 92.0924753,112.254686 C115.224296,68.9527233 138.617003,51.0406665 138.617003,51.0406665 C138.617003,51.0406665 101.310419,83.4736625 86.353001,147.12233 C79.5699858,175.903353 82.5266847,205.727797 82.7875699,208.162446 L94.4404421,208.162446 C94.0056335,205.901701 88.4400825,178.077147 97.2232176,140.861805 C112.180636,77.126186 154.096191,46.9539351 154.096191,46.9539351 C154.096191,46.9539351 102.527883,92.9514012 104.528003,165.903904 C105.310659,193.119796 110.093554,206.510363 110.702286,208.162446 L120.268077,208.162446 C119.572383,206.162556 112.615444,185.641947 113.832909,155.556648 C116.528722,86.1691662 160.357436,50.4320044 160.357436,50.4320044 C160.357436,50.4320044 118.44188,90.429801 129.833867,170.251491 C133.312337,194.33712 138.356117,206.597315 139.051811,208.162446 L149.139372,208.162446 C148.356717,205.901701 139.225735,177.72934 138.877888,143.035599 C138.095232,72.5177443 177.575859,45.5627074 177.575859,45.5627074 C177.575859,45.5627074 139.48662,79.2130276 157.400737,158.860814 C163.401096,185.29414 174.445237,206.162556 175.575739,208.162446 L188.359114,208.162446 C187.054688,205.988652 172.358155,179.729229 165.314255,133.55786 C155.487579,69.2135785 202.794762,33.9981271 207.577657,30.6070096 L207.577657,0.347806927 L182.880525,0.347806927 L182.880525,0.347806927 Z" fill="#FFFFFF"></path>
                </g>
            </g>
        </g>
    </g>
</svg>