<?xml version="1.0" encoding="UTF-8" standalone="no"?>
<svg width="574px" height="410px" viewBox="0 0 574 410" version="1.1" xmlns="http://www.w3.org/2000/svg" xmlns:xlink="http://www.w3.org/1999/xlink">
    <!-- Generator: Sketch 40.1 (33804) - http://www.bohemiancoding.com/sketch -->
    <title>silver3</title>
    <desc>Created with Sketch.</desc>
    <defs></defs>
    <g id="Page-1" stroke="none" stroke-width="1" fill="none" fill-rule="evenodd">
        <g id="silver3">
            <rect id="Rectangle-2" fill="#FFFFFF" x="0" y="0" width="574" height="410"></rect>
            <g id="Pronto-Tools" transform="translate(55.000000, 93.000000)">
                <g id="Layer_1">
                    <g id="Group">
                        <path d="M77.0376254,80.9224138 C77.0376254,87.2844828 76.0311037,93.1810345 73.8632107,98.4568966 C71.7727425,103.732759 68.830602,108.310345 65.114214,112.189655 C61.3978261,116.068966 56.9071906,119.017241 51.7197324,121.189655 C46.5322742,123.362069 40.8802676,124.37069 34.7637124,124.37069 C31.8215719,124.37069 28.8020067,124.137931 25.8598662,123.594828 L19.9755853,147.336207 L0.619397993,147.336207 L22.4531773,56.4827586 C25.937291,55.3965517 29.9633779,54.4655172 34.4540134,53.6896552 C38.9446488,52.8362069 43.822408,52.4482759 49.087291,52.4482759 C53.9650502,52.4482759 58.2234114,53.2241379 61.7075251,54.6982759 C65.2690635,56.1724138 68.1337793,58.1896552 70.4565217,60.8275862 C72.7018395,63.387931 74.4051839,66.4137931 75.4891304,69.9051724 C76.4956522,73.3189655 77.0376254,76.9655172 77.0376254,80.9224138 L77.0376254,80.9224138 Z M29.4988294,107.844828 C31.1247492,108.155172 32.9829431,108.387931 34.9959866,108.387931 C38.4026756,108.387931 41.4996656,107.767241 44.2869565,106.448276 C47.0742475,105.206897 49.4744147,103.422414 51.4100334,101.094828 C53.3456522,98.8448276 54.8941472,96.0517241 55.9780936,92.8706897 C57.0620401,89.6896552 57.6040134,86.1206897 57.6040134,82.3189655 C57.6040134,78.5948276 56.7523411,75.3362069 55.1264214,72.6982759 C53.4230769,70.0603448 50.5583612,68.7413793 46.4548495,68.7413793 C43.6675585,68.7413793 41.0351171,68.9741379 38.6349498,69.5172414 L29.4988294,107.844828 L29.4988294,107.844828 Z" id="Shape" fill="#263748"></path>
                        <path d="M128.447659,70.8362069 C126.66689,70.3706897 124.963545,69.9827586 123.260201,69.5948276 C121.556856,69.2068966 119.079264,68.9741379 115.75,68.9741379 C114.511204,68.9741379 113.194983,69.1293103 111.646488,69.2844828 C110.175418,69.5172414 108.936622,69.75 108.007525,69.9827586 L95.3098662,123.051724 L75.7988294,123.051724 L91.5160535,57.6465517 C95.2324415,56.4051724 99.4908027,55.2413793 104.136288,54.1551724 C108.781773,53.0689655 114.046656,52.5258621 119.930936,52.5258621 C122.098829,52.5258621 124.576421,52.6810345 127.208863,53.1465517 C129.841304,53.5344828 132.241472,54.1551724 134.254515,55.0086207 L128.447659,70.8362069 L128.447659,70.8362069 Z" id="Shape" fill="#263748"></path>
                        <path d="M208.969398,57.1810345 C210.440468,56.7155172 212.066388,56.25 213.847157,55.6293103 C215.627926,55.0862069 217.64097,54.5431034 219.886288,54.0775862 C222.131605,53.612069 224.609197,53.2241379 227.319064,52.9137931 C230.106355,52.6034483 233.203344,52.4482759 236.687458,52.4482759 C246.907525,52.4482759 253.953177,55.3965517 257.824415,61.3706897 C261.695652,67.3448276 262.392475,75.4913793 259.837458,85.8103448 L250.933612,123.12931 L231.5,123.12931 L240.171572,86.5862069 C240.713545,84.3362069 241.100669,82.0862069 241.410368,79.9137931 C241.720067,77.7413793 241.720067,75.8793103 241.332943,74.25 C241.023244,72.6206897 240.171572,71.3017241 238.932776,70.2931034 C237.69398,69.2844828 235.758361,68.8189655 233.12592,68.8189655 C230.570903,68.8189655 228.015886,69.0517241 225.383445,69.5948276 L212.685786,123.051724 L193.174749,123.051724 L208.969398,57.1810345 L208.969398,57.1810345 Z" id="Shape" fill="#263748"></path>
                        <path d="M277.567726,36.7758621 L297.85301,33.5948276 L292.897826,53.9224138 L314.654181,53.9224138 L310.705518,69.9051724 L289.104013,69.9051724 L283.374582,94.0344828 C282.832609,96.0517241 282.52291,97.9137931 282.445485,99.6982759 C282.36806,101.482759 282.600334,102.956897 283.064883,104.198276 C283.606856,105.439655 284.535953,106.448276 285.852174,107.146552 C287.245819,107.844828 289.181438,108.232759 291.65903,108.232759 C293.749498,108.232759 295.762542,108 297.775585,107.612069 C299.711204,107.224138 301.724247,106.681034 303.737291,105.982759 L305.208361,120.956897 C302.57592,121.887931 299.788629,122.741379 296.691639,123.439655 C293.672074,124.137931 290.03311,124.525862 285.852174,124.525862 C279.813043,124.525862 275.167559,123.594828 271.838294,121.810345 C268.50903,120.025862 266.186288,117.543103 264.792642,114.439655 C263.398997,111.336207 262.779599,107.767241 262.934448,103.732759 C263.089298,99.6982759 263.708696,95.4310345 264.792642,91.0086207 L277.567726,36.7758621 L277.567726,36.7758621 Z" id="Shape" fill="#263748"></path>
                        <path d="M335.945987,124.913793 C331.300502,124.913793 327.274415,124.215517 323.867726,122.818966 C320.461037,121.422414 317.673746,119.482759 315.428428,116.922414 C313.18311,114.362069 311.479766,111.413793 310.395819,107.922414 C309.234448,104.431034 308.692475,100.62931 308.692475,96.4396552 C308.692475,91.1637931 309.544147,85.9655172 311.247492,80.6896552 C312.950836,75.4137931 315.428428,70.6810345 318.757692,66.4913793 C322.086957,62.3017241 326.113043,58.887931 330.990803,56.1724138 C335.791137,53.5344828 341.288294,52.137931 347.482274,52.137931 C351.97291,52.137931 355.998997,52.8362069 359.48311,54.2327586 C362.889799,55.6293103 365.754515,57.5689655 367.999833,60.1293103 C370.245151,62.6896552 371.948495,65.637931 373.032441,69.1293103 C374.193813,72.6206897 374.735786,76.4224138 374.735786,80.612069 C374.735786,85.887931 373.884114,91.0862069 372.258194,96.362069 C370.554849,101.637931 368.154682,106.37069 364.902843,110.560345 C361.651003,114.75 357.624916,118.163793 352.747157,120.87931 C347.946823,123.594828 342.372241,124.913793 335.945987,124.913793 L335.945987,124.913793 Z M345.701505,68.7413793 C342.836789,68.7413793 340.281773,69.5948276 338.11388,71.2241379 C335.945987,72.9310345 334.087793,75.0258621 332.616722,77.5086207 C331.145652,80.0689655 329.984281,82.7844828 329.287458,85.8103448 C328.513211,88.8362069 328.203512,91.7068966 328.203512,94.4224138 C328.203512,98.8448276 328.900334,102.181034 330.29398,104.663793 C331.687625,107.146552 334.242642,108.387931 337.881605,108.387931 C340.746321,108.387931 343.301338,107.534483 345.469231,105.905172 C347.637124,104.275862 349.495318,102.181034 350.966388,99.6206897 C352.437458,97.0603448 353.598829,94.2672414 354.295652,91.2413793 C355.0699,88.2155172 355.379599,85.3448276 355.379599,82.6293103 C355.379599,78.2844828 354.682776,74.8706897 353.28913,72.387931 C351.895485,69.9051724 349.340468,68.7413793 345.701505,68.7413793 L345.701505,68.7413793 Z" id="Shape" fill="#263748"></path>
                        <path d="M116.988796,123.75 C118.924415,122.198276 121.247157,120.258621 123.879599,118.086207 C128.679933,114.051724 136.964381,110.637931 146.56505,106.681034 C156.630268,102.568966 168.08913,97.8362069 178.154348,91.3189655 C190.697157,83.25 198.207358,66.2586207 201.768896,56.0172414 C193.484448,61.2931034 184.735452,64.7844828 175.676756,68.3534483 C166.076087,72.1551724 156.165719,76.112069 145.635953,82.4741379 C129.996154,92.0948276 121.092308,112.112069 116.988796,123.75 L116.988796,123.75 Z" id="Shape" fill="#00ADEE"></path>
                        <path d="M142.461538,77.3534483 C153.455853,70.6810345 163.598495,66.6465517 173.431438,62.7672414 C176.992977,61.3706897 180.47709,59.9741379 183.883779,58.5 C181.948161,56.7931034 179.702843,55.3965517 177.070401,54.3103448 C173.586288,52.9137931 169.637625,52.2155172 165.069565,52.2155172 C158.875585,52.2155172 153.378428,53.5344828 148.578094,56.25 C143.777759,58.887931 139.751672,62.3793103 136.422408,66.5689655 C133.093144,70.7586207 130.615552,75.4913793 128.912207,80.7672414 C127.673411,84.6465517 126.899164,88.4482759 126.51204,92.3275862 C130.925251,86.5086207 136.190134,81.2327586 142.461538,77.3534483 L142.461538,77.3534483 Z" id="Shape" fill="#263748"></path>
                        <path d="M181.483612,96.5172414 C170.953846,103.344828 159.185284,108.155172 148.887793,112.344828 C143.545485,114.517241 138.667726,116.534483 134.719064,118.551724 C136.654682,120.336207 138.9,121.732759 141.532441,122.818966 C144.93913,124.215517 148.965217,124.913793 153.610702,124.913793 C159.959532,124.913793 165.611538,123.594828 170.411873,120.87931 C175.289632,118.241379 179.315719,114.75 182.567559,110.560345 C185.819398,106.37069 188.219565,101.637931 189.92291,96.362069 C190.929431,93.2586207 191.548829,90.1551724 191.935953,87.0517241 C188.916388,90.6982759 185.432274,93.9568966 181.483612,96.5172414 L181.483612,96.5172414 Z" id="Shape" fill="#263748"></path>
                        <path d="M237.074582,171.543103 L237.074582,153.387931 L231.267726,153.387931 L231.267726,145.396552 L237.074582,145.396552 L237.074582,135.853448 L246.210702,135.853448 L246.210702,145.396552 L253.256355,145.396552 L253.256355,153.387931 L246.210702,153.387931 L246.210702,169.060345 C246.210702,171.310345 247.372074,172.939655 249.385117,172.939655 C250.778763,172.939655 252.094983,172.396552 252.559532,171.853448 L254.495151,178.836207 C253.101505,180.077586 250.701338,181.086207 246.8301,181.086207 C240.481271,181.163793 237.074582,177.827586 237.074582,171.543103 L237.074582,171.543103 Z" id="Shape" fill="#00ADEE"></path>
                        <path d="M271.683445,162.775862 C271.683445,152.844828 278.651672,144.465517 290.110535,144.465517 C301.646823,144.465517 308.61505,152.844828 308.61505,162.775862 C308.61505,172.706897 301.646823,181.163793 290.110535,181.163793 C278.574247,181.163793 271.683445,172.706897 271.683445,162.775862 L271.683445,162.775862 Z M299.014381,162.775862 C299.014381,157.344828 295.839967,152.612069 290.03311,152.612069 C284.303679,152.612069 281.129264,157.344828 281.129264,162.775862 C281.129264,168.284483 284.303679,172.939655 290.03311,172.939655 C295.839967,173.017241 299.014381,168.284483 299.014381,162.775862 L299.014381,162.775862 Z" id="Shape" fill="#00ADEE"></path>
                        <path d="M328.280936,162.775862 C328.280936,152.844828 335.249164,144.465517 346.708027,144.465517 C358.244314,144.465517 365.212542,152.844828 365.212542,162.775862 C365.212542,172.706897 358.244314,181.163793 346.708027,181.163793 C335.249164,181.163793 328.280936,172.706897 328.280936,162.775862 L328.280936,162.775862 Z M355.611873,162.775862 C355.611873,157.344828 352.437458,152.612069 346.630602,152.612069 C340.901171,152.612069 337.726756,157.344828 337.726756,162.775862 C337.726756,168.284483 340.901171,172.939655 346.630602,172.939655 C352.437458,173.017241 355.611873,168.284483 355.611873,162.775862 L355.611873,162.775862 Z" id="Shape" fill="#00ADEE"></path>
                        <path d="M402.453846,175.732759 L406.402508,169.060345 C409.03495,171.543103 414.144983,173.87069 418.480769,173.87069 C422.429431,173.87069 424.36505,172.318966 424.36505,170.146552 C424.36505,164.405172 403.692642,169.137931 403.692642,155.405172 C403.692642,149.508621 408.725251,144.387931 418.016221,144.387931 C423.900502,144.387931 428.545987,146.405172 432.0301,149.198276 L428.313712,155.715517 C426.223244,153.543103 422.274582,151.681034 418.016221,151.681034 C414.686957,151.681034 412.519064,153.155172 412.519064,155.094828 C412.519064,160.215517 433.268896,155.87069 433.268896,169.991379 C433.268896,176.431034 427.771739,181.163793 418.093645,181.163793 C411.97709,181.163793 406.170234,179.146552 402.453846,175.732759 L402.453846,175.732759 Z" id="Shape" fill="#00ADEE"></path>
                        <polygon id="Shape" fill="#263748" points="453.70903 30.1034483 452.702508 42.4396552 462.303177 50.1982759 450.302341 53.1465517 445.88913 64.6293103 439.462876 54.1551724 427.074916 53.4568966 435.12709 44.0689655 431.875251 32.1206897 443.334114 36.8534483"></polygon>
                        <polygon id="Shape" fill="#263748" points="414.686957 0.620689655 418.17107 6.43965517 424.984448 6.90517241 420.493813 12.0258621 422.119732 18.6982759 415.848328 15.9827586 410.118896 19.6293103 410.738294 12.8017241 405.473411 8.45689655 412.13194 6.90517241"></polygon>
                        <polygon id="Shape" fill="#263748" points="380.155518 27.6206897 387.588294 33.362069 396.569565 30.4913793 393.472575 39.3362069 398.969732 47.0172414 389.601338 46.7844828 384.026756 54.387931 381.31689 45.387931 372.335619 42.4396552 380.155518 37.0862069"></polygon>
                        <g transform="translate(362.347826, 51.982759)" id="Shape">
                            <path d="M35.9250836,34.0603448 L35.9250836,34.0603448 L0.541973244,165.724138 C-0.232274247,168.517241 1.47107023,171.465517 4.2583612,172.241379 C5.65200669,172.62931 7.12307692,172.396552 8.28444816,171.698276 C9.4458194,171 10.3749164,169.913793 10.7620401,168.439655 L46.1451505,36.6982759 L35.9250836,34.0603448 L35.9250836,34.0603448 Z" fill="#263748"></path>
                            <path d="M50.4035117,0.310344828 C47.6162207,-0.465517241 44.6740803,1.24137931 43.8998328,4.03448276 L36.4670569,31.7327586 L46.6871237,34.4482759 L54.1198997,6.75 C54.9715719,3.95689655 53.2682274,1.0862069 50.4035117,0.310344828 L50.4035117,0.310344828 Z" fill="#00ADEE"></path>
                        </g>
                    </g>
                </g>
            </g>
        </g>
    </g>
</svg>