<?xml version="1.0" encoding="UTF-8" standalone="no"?>
<svg width="580px" height="410px" viewBox="0 0 580 410" version="1.1" xmlns="http://www.w3.org/2000/svg" xmlns:xlink="http://www.w3.org/1999/xlink">
    <!-- Generator: Sketch 40.1 (33804) - http://www.bohemiancoding.com/sketch -->
    <title>silver4</title>
    <desc>Created with Sketch.</desc>
    <defs></defs>
    <g id="Page-1" stroke="none" stroke-width="1" fill="none" fill-rule="evenodd">
        <g id="silver4">
            <g id="LOGO20th">
                <rect id="Rectangle-path" fill="#652F8E" x="0" y="0" width="579.159396" height="409.518456"></rect>
                <g id="Group" transform="translate(37.147651, 84.614094)">
                    <g transform="translate(0.000000, 67.416107)" id="Shape" fill="#F9D135">
                        <path d="M0.343959732,20.2936242 C0.343959732,15.6157718 0.343959732,10.25 0.55033557,5.77852349 C12.9328859,5.43456376 28.0671141,5.29697987 42.3758389,5.29697987 C50.1493289,5.29697987 58.1291946,5.29697987 67.7600671,8.18624161 C81.6560403,12.6577181 90.8053691,26.7600671 90.8053691,41.4127517 C90.8053691,54.9647651 82,67.5536913 70.442953,73.4010067 C62.5318792,77.3909396 50.4932886,78.7667785 46.3657718,78.7667785 C44.0956376,78.7667785 39.4865772,78.7667785 38.2483221,78.5604027 L38.0419463,102.5 L53.7265101,103.050336 C53.7265101,107.521812 53.7265101,112.681208 53.5889262,117.35906 C44.9899329,117.35906 33.0889262,117.152685 22.5637584,117.152685 C15.1342282,117.152685 7.22315436,117.35906 0.55033557,117.35906 C0.55033557,112.681208 0.687919463,107.521812 0.894295302,103.050336 L9.01174497,102.5 C9.49328859,102.5 9.69966443,102.224832 9.69966443,101.812081 L9.69966443,20.6375839 L0.343959732,20.2936242 L0.343959732,20.2936242 Z M38.2483221,62.4630872 C38.2483221,64.1828859 41.3439597,64.1828859 44.3020134,64.1828859 C48.5671141,64.1828859 52.9010067,62.6694631 55.9966443,59.7114094 C59.6426174,56.1342282 61.7063758,49.942953 61.7063758,42.3758389 C61.7063758,29.6493289 53.9328859,19.261745 44.1644295,19.261745 C41.5503356,19.261745 39.3489933,19.4681208 38.5922819,19.8120805 L38.2483221,62.4630872 L38.2483221,62.4630872 Z"></path>
                        <path d="M141.02349,111.511745 C130.635906,116.739933 122.380872,119.078859 115.845638,119.078859 C106.902685,119.078859 93.6258389,109.92953 93.6258389,98.9228188 C93.6258389,89.4983221 104.97651,72.988255 132.355705,72.988255 L140.610738,72.988255 C141.092282,64.5268456 137.85906,59.3674497 130.08557,59.3674497 C124.444631,59.3674497 115.22651,64.3204698 108.416107,68.9983221 C105.251678,65.4211409 102.15604,60.8808725 99.4043624,56.7533557 C111.786913,46.6409396 124.513423,39.692953 141.092282,39.692953 C154.369128,39.692953 167.439597,50.9060403 167.439597,65.5587248 C167.439597,76.840604 167.302013,93.2130872 167.16443,100.642617 C167.16443,101.674497 167.16443,102.018456 167.989933,101.812081 L177.07047,101.468121 C177.07047,105.939597 177.276846,111.098993 177.07047,115.57047 C174.318792,116.671141 162.073826,119.010067 148.315436,119.010067 C146.526846,117.427852 144.325503,114.676174 141.711409,111.442953 L141.02349,111.442953 L141.02349,111.511745 Z M128.984899,102.568792 C133.456376,102.568792 137.927852,100.298658 140.541946,98.7852349 C140.885906,98.5100671 140.885906,97.8909396 140.885906,97.7533557 L140.885906,85.852349 C139.854027,85.7147651 138.409396,85.7147651 137.239933,85.7147651 C125.82047,85.7147651 121.073826,90.5302013 121.073826,96.033557 C121.073826,99.954698 125.47651,102.568792 128.984899,102.568792 L128.984899,102.568792 Z"></path>
                        <path d="M183.743289,59.0234899 C183.743289,54.3456376 183.949664,49.1862416 183.949664,44.852349 C192.548658,44.3708054 217.864094,39.8993289 218.895973,39.8993289 C219.239933,39.8993289 219.239933,40.0369128 219.239933,40.3808725 C220.065436,44.0268456 220.753356,47.466443 221.647651,51.1124161 L222.473154,51.25 C239.189597,41.1375839 243.041946,39.692953 250.884228,39.692953 C258.313758,39.692953 265.330537,46.4345638 268.770134,52.1442953 C272.072148,57.5100671 272.760067,62.8758389 272.760067,67.4848993 C272.760067,77.2533557 272.416107,91.5620805 272.072148,102.568792 L280.671141,103.119128 C280.671141,107.590604 280.671141,112.75 280.464765,117.221477 L258.244966,117.221477 C250.815436,117.221477 242.766779,117.427852 236.713087,117.427852 C236.713087,112.956376 236.919463,107.79698 236.919463,103.325503 L243.798658,102.775168 C244.142617,102.775168 244.486577,102.431208 244.486577,102.087248 C244.624161,95.0016779 244.486577,85.3708054 244.486577,78.8355705 C244.486577,70.7181208 244.486577,66.590604 243.110738,64.045302 C241.39094,60.7432886 239.120805,60.261745 236.575503,60.261745 C232.791946,60.261745 226.875839,62.9446309 222.748322,66.3154362 C222.610738,76.4278523 222.197987,92.8003356 222.197987,102.637584 L229.696309,103.187919 C229.696309,107.79698 229.696309,112.818792 229.489933,117.290268 L207.958054,117.290268 C200.941275,117.290268 191.998322,117.496644 185.256711,117.496644 C185.256711,113.025168 185.463087,107.865772 185.463087,103.394295 L193.855705,102.84396 C194.40604,102.84396 194.543624,102.5 194.543624,102.15604 L194.543624,59.4362416 L183.743289,59.0234899 L183.743289,59.0234899 Z"></path>
                        <path d="M304.748322,113.919463 C299.244966,109.104027 298.763423,105.182886 298.763423,100.36745 C298.763423,90.7365772 298.901007,82.4815436 298.901007,80.4177852 C298.901007,76.840604 299.107383,59.4362416 299.107383,57.8540268 L287,57.8540268 C287,53.0385906 287.206376,48.0855705 287.550336,43.2701342 C290.989933,43.0637584 295.255034,42.5822148 298.763423,42.4446309 C299.244966,42.4446309 299.932886,41.9630872 299.932886,41 C300.276846,36.3909396 300.827181,30.8187919 301.171141,26.7600671 C309.97651,22.4261745 326.280201,17.4731544 326.830537,17.4731544 C327.174497,17.4731544 327.312081,17.6107383 327.312081,18.1610738 C327.174497,21.8758389 326.968121,37.6291946 326.830537,42.238255 C335.567114,42.238255 345.266779,42.1006711 353.315436,42.1006711 C353.315436,47.1224832 353.177852,53.1073826 352.627517,58.2667785 C345.33557,58.2667785 334.672819,58.1291946 326.830537,58.1291946 L326.830537,72.2315436 C326.624161,79.2483221 326.624161,85.5083893 326.624161,93.2130872 C326.624161,98.0973154 330.682886,100.986577 334.535235,100.986577 C341.41443,100.986577 347.949664,99.7483221 353.315436,98.4412752 C354.14094,103.050336 354.897651,108.347315 355.379195,112.887584 C343.271812,117.496644 330.682886,119.078859 318.025168,119.078859 C313.553691,119.078859 309.082215,117.840604 304.748322,113.919463"></path>
                        <path d="M361.22651,59.1610738 C361.22651,54.3456376 361.501678,48.9798658 361.57047,44.3708054 C370.857383,43.6828859 398.786913,39.692953 400.162752,39.692953 C400.575503,39.692953 400.575503,39.8993289 400.575503,40.2432886 C400.369128,59.0234899 399.956376,85.3708054 399.956376,102.568792 L409.518456,103.119128 L409.518456,117.221477 L385.716443,117.221477 C378.286913,117.221477 369.206376,117.427852 362.327181,117.427852 C362.327181,112.956376 362.327181,107.79698 362.464765,103.325503 L371.614094,102.775168 C372.095638,102.775168 372.302013,102.431208 372.302013,102.087248 L372.302013,59.5738255 L361.22651,59.1610738 L361.22651,59.1610738 Z M399.818792,14.1711409 C399.818792,23.4580537 392.458054,29.7181208 383.790268,29.7181208 C376.42953,29.7181208 368.862416,23.3204698 368.862416,14.5151007 C368.862416,7.29194631 375.191275,0.275167785 384.684564,0.275167785 C394.659396,0.275167785 399.818792,7.15436242 399.818792,14.1711409 L399.818792,14.1711409 Z"></path>
                        <path d="M453.201342,49.6677852 C470.605705,40.3808725 472.531879,39.692953 479.686242,39.692953 C493.994966,39.692953 506.033557,55.9278523 505.895973,73.8137584 C505.895973,81.5184564 503.832215,89.635906 500.530201,96.8590604 C498.260067,102.018456 494.13255,108.347315 487.459732,113.575503 C484.020134,116.189597 475.902685,119.078859 469.02349,119.078859 C462.488255,119.078859 457.672819,118.253356 453.889262,116.739933 L452.651007,117.015101 C452.857383,125.614094 452.857383,134.419463 452.857383,143.224832 L466.753356,143.706376 C466.753356,148.315436 466.753356,153.337248 466.54698,157.808725 C458.291946,157.808725 447.973154,157.808725 438.823826,157.946309 C431.875839,157.946309 422.932886,157.946309 416.122483,158.083893 C416.122483,153.612416 416.122483,148.590604 416.260067,143.981544 L424.583893,143.293624 C425.065436,143.293624 425.271812,143.018456 425.271812,142.468121 L425.409396,59.2986577 L414.540268,59.1610738 C414.540268,54.4832215 414.746644,49.4614094 414.884228,45.0587248 C422.932886,44.0268456 448.936242,39.5553691 449.761745,39.5553691 C450.105705,39.5553691 450.105705,39.692953 450.105705,39.8993289 C450.793624,43.2013423 451.275168,46.2969799 452.031879,49.5302013 L453.201342,49.6677852 L453.201342,49.6677852 Z M473.701342,64.1828859 C472.256711,62.1191275 470.192953,59.7114094 466.959732,59.7114094 C463.451342,59.7114094 458.498322,61.4312081 453.47651,64.5268456 C453.270134,74.1577181 453.13255,87.9848993 453.13255,97.6157718 C453.13255,101.055369 460.011745,103.600671 463.657718,103.600671 C466.753356,103.600671 470.192953,102.431208 472.394295,99.1291946 C474.802013,95.5520134 476.315436,89.3607383 476.315436,80.2114094 C476.45302,72.2315436 475.421141,66.7969799 473.701342,64.1828859 L473.701342,64.1828859 Z"></path>
                        <g transform="translate(6.879195, 136.208054)">
                            <path d="M13.9647651,1.16946309 L22.7013423,1.16946309 L27.4479866,27.2416107 L18.9177852,27.2416107 L18.5050336,23.8020134 L9.97483221,23.8020134 L8.39261745,27.2416107 L0.0687919463,27.2416107 L13.9647651,1.16946309 L13.9647651,1.16946309 Z M12.5889262,18.2986577 L17.954698,18.2986577 L16.9228188,8.94295302 L12.5889262,18.2986577 L12.5889262,18.2986577 Z"></path>
                            <polygon points="43.8204698 1.16946309 51.8691275 1.16946309 58.6107383 15.409396 59.3674497 9.63087248 60.8808725 1.23825503 68.9983221 1.23825503 64.3892617 27.3104027 56.409396 27.3104027 49.5989933 13.0704698 48.9110738 18.9865772 47.397651 27.2416107 39.2114094 27.2416107"></polygon>
                            <polygon points="82.9630872 1.16946309 91.011745 1.16946309 97.7533557 15.409396 98.5100671 9.63087248 100.02349 1.23825503 108.14094 1.23825503 103.531879 27.3104027 95.5520134 27.3104027 88.7416107 13.0704698 88.0536913 18.9865772 86.5402685 27.2416107 78.3540268 27.2416107"></polygon>
                            <polygon points="122.380872 1.16946309 130.911074 1.16946309 126.302013 27.2416107 117.771812 27.2416107"></polygon>
                            <polygon points="143.431208 1.16946309 152.098993 1.16946309 153.612416 18.5050336 161.454698 1.16946309 170.053691 1.16946309 156.432886 27.2416107 147.833893 27.2416107"></polygon>
                            <polygon points="182.573826 1.16946309 203.830537 1.16946309 202.729866 7.22315436 190.072148 7.22315436 189.384228 11.0067114 200.184564 11.0067114 199.083893 17.0604027 188.352349 17.0604027 187.66443 21.1191275 200.872483 21.1191275 199.840604 27.1728188 178.102349 27.1728188"></polygon>
                            <path d="M217.176174,1.16946309 L229.765101,1.16946309 C233.548658,1.16946309 236.162752,1.65100671 237.607383,2.61409396 C239.052013,3.57718121 239.808725,4.95302013 239.808725,6.81040268 C239.808725,8.80536913 239.327181,10.5251678 238.364094,12.0385906 C237.401007,13.5520134 236.025168,14.5151007 234.167785,14.9966443 C235.543624,15.5469799 236.437919,16.0973154 236.850671,16.5788591 C237.332215,17.0604027 237.607383,17.954698 237.607383,19.3305369 C237.607383,19.9496644 237.538591,20.8439597 237.401007,21.8758389 L237.057047,23.8708054 L236.781879,25.659396 C236.850671,26.2097315 237.125839,26.4848993 237.469799,26.4848993 L237.332215,27.2416107 L228.733221,27.2416107 L228.66443,26.2785235 C228.66443,25.590604 228.733221,24.6963087 228.870805,23.6644295 L229.145973,20.7063758 C229.145973,19.5369128 228.802013,18.7802013 228.045302,18.5050336 C227.288591,18.2298658 225.912752,18.0922819 223.986577,18.0922819 L222.748322,18.0922819 L221.097315,27.1728188 L212.567114,27.1728188 L217.176174,1.16946309 L217.176174,1.16946309 Z M224.674497,7.22315436 L223.711409,12.3825503 L227.357383,12.3825503 C229.971477,12.3825503 231.347315,11.557047 231.622483,9.83724832 C231.691275,9.3557047 231.622483,8.94295302 231.416107,8.53020134 C231.209732,8.11744966 230.865772,7.84228188 230.384228,7.56711409 C229.902685,7.36073826 229.352349,7.22315436 228.802013,7.22315436 L224.674497,7.22315436 L224.674497,7.22315436 Z"></path>
                            <path d="M266.84396,8.73657718 C266.84396,7.29194631 265.812081,6.5352349 263.67953,6.5352349 C262.028523,6.5352349 261.065436,7.01677852 260.85906,7.91107383 C260.790268,8.4614094 260.996644,8.94295302 261.409396,9.3557047 C261.89094,9.69966443 262.647651,10.0436242 263.610738,10.3187919 L266.362416,11.0067114 C268.770134,11.557047 270.696309,12.3825503 271.934564,13.4144295 C273.241611,14.4463087 273.860738,15.8221477 273.860738,17.4731544 L273.723154,19.0553691 C273.172819,22.1510067 271.590604,24.4211409 268.97651,25.8657718 C266.362416,27.2416107 263.404362,27.9983221 260.033557,27.9983221 C256.869128,27.9983221 254.323826,27.1728188 252.397651,25.590604 C250.746644,24.1459732 249.921141,22.3573826 249.921141,20.1560403 L249.989933,19.261745 L258.176174,19.261745 C258.176174,20.2936242 258.520134,20.9815436 259.276846,21.3942953 C260.033557,21.807047 260.85906,22.0134228 261.684564,22.0134228 C263.748322,22.0134228 264.986577,21.3942953 265.330537,20.2248322 L265.330537,19.7432886 C265.330537,19.261745 265.055369,18.8489933 264.436242,18.5050336 C263.885906,18.2298658 262.647651,17.7483221 260.721477,17.1979866 C257.969799,16.5788591 255.837248,15.7533557 254.392617,14.7902685 C252.947987,13.8271812 252.191275,12.3137584 252.191275,10.3187919 L252.328859,9.28691275 L252.466443,8.39261745 C252.741611,6.94798658 253.42953,5.57214765 254.530201,4.33389262 C255.630872,3.09563758 257.075503,2.13255034 258.932886,1.51342282 C260.790268,0.825503356 262.854027,0.481543624 265.192953,0.481543624 C268.082215,0.481543624 270.421141,1.10067114 272.347315,2.40771812 C274.067114,3.57718121 274.892617,5.70973154 274.892617,8.66778523 L266.84396,8.66778523 L266.84396,8.73657718 Z"></path>
                            <path d="M296.974832,1.16946309 L305.711409,1.16946309 L310.458054,27.2416107 L301.996644,27.2416107 L301.583893,23.8020134 L293.053691,23.8020134 L291.471477,27.2416107 L283.147651,27.2416107 L296.974832,1.16946309 L296.974832,1.16946309 Z M295.598993,18.2986577 L300.964765,18.2986577 L299.932886,8.94295302 L295.598993,18.2986577 L295.598993,18.2986577 Z"></path>
                            <path d="M326.624161,1.16946309 L339.213087,1.16946309 C342.996644,1.16946309 345.610738,1.65100671 347.055369,2.61409396 C348.5,3.57718121 349.256711,4.95302013 349.256711,6.81040268 C349.256711,8.80536913 348.775168,10.5251678 347.812081,12.0385906 C346.848993,13.5520134 345.473154,14.5151007 343.615772,14.9966443 C344.991611,15.5469799 345.885906,16.0973154 346.298658,16.5788591 C346.780201,17.0604027 347.055369,17.954698 347.055369,19.3305369 C347.055369,19.9496644 346.986577,20.8439597 346.848993,21.8758389 L346.505034,23.8708054 L346.229866,25.659396 C346.298658,26.2097315 346.573826,26.4848993 346.917785,26.4848993 L346.780201,27.2416107 L338.181208,27.2416107 L338.112416,26.2785235 C338.112416,25.590604 338.181208,24.6963087 338.318792,23.6644295 L338.59396,20.7063758 C338.59396,19.5369128 338.25,18.7802013 337.493289,18.5050336 C336.736577,18.2298658 335.360738,18.0922819 333.434564,18.0922819 L332.196309,18.0922819 L330.545302,27.1728188 L322.015101,27.1728188 L326.624161,1.16946309 L326.624161,1.16946309 Z M334.122483,7.22315436 L333.159396,12.3825503 L336.805369,12.3825503 C339.419463,12.3825503 340.795302,11.557047 341.001678,9.83724832 C341.07047,9.3557047 341.001678,8.94295302 340.795302,8.53020134 C340.588926,8.11744966 340.244966,7.84228188 339.694631,7.56711409 C339.213087,7.36073826 338.662752,7.22315436 338.112416,7.22315436 L334.122483,7.22315436 L334.122483,7.22315436 Z"></path>
                            <polygon points="361.57047 1.16946309 371.201342 1.16946309 374.090604 9.97483221 380.144295 1.16946309 389.5 1.16946309 376.979866 17.6107383 375.260067 27.2416107 366.661074 27.2416107 368.312081 17.7483221"></polygon>
                        </g>
                    </g>
                    <path d="M115.088926,77.1157718 L113.300336,77.1157718 C109.723154,77.5973154 107.79698,79.5234899 107.45302,82.9630872 C107.45302,83.9949664 107.934564,85.1644295 109.035235,86.4026846 C109.998322,87.3657718 111.236577,87.9161074 112.818792,88.0536913 L114.813758,88.2600671 C116.946309,88.2600671 119.285235,87.3657718 121.830537,85.6459732 C122.65604,85.0268456 124.444631,83.5134228 127.196309,81.2432886 L121.830537,78.7667785 C119.285235,77.6661074 117.015101,77.1157718 115.088926,77.1157718 L115.088926,77.1157718 Z" id="Shape"></path>
                    <path d="M218.620805,37.9043624 C216.488255,37.7667785 214.355705,38.6610738 212.360738,40.5872483 C211.810403,41.1375839 211.810403,42.1006711 212.360738,42.6510067 C212.911074,43.2013423 213.805369,43.2013423 214.424497,42.6510067 C215.800336,41.3439597 217.107383,40.7248322 218.41443,40.7936242 C220.340604,40.8624161 221.785235,42.5822148 221.785235,42.5822148 C222.060403,42.9261745 222.473154,43.1325503 222.885906,43.1325503 C223.161074,43.1325503 223.505034,42.9949664 223.780201,42.7885906 C224.399329,42.238255 224.536913,41.3439597 223.986577,40.7248322 C223.986577,40.6560403 221.854027,38.1107383 218.620805,37.9043624 L218.620805,37.9043624 Z" id="Shape"></path>
                    <path d="M234.924497,13.0016779 C213.048658,13.0016779 195.025168,29.511745 192.479866,50.6308725 C192.342282,52.0067114 192.27349,53.4513423 192.27349,54.8959732 C192.27349,60.3993289 193.236577,65.6963087 195.025168,70.511745 C199.152685,78.7667785 207.47651,83.5822148 216.213087,83.5822148 C219.308725,83.5822148 222.473154,82.9630872 225.5,81.6560403 C232.723154,78.5604027 238.91443,69.204698 240.221477,62.4630872 C240.978188,58.5419463 239.739933,56.340604 238.639262,55.2399329 C237.332215,54.0016779 235.75,52.3506711 211.810403,51.3187919 C207.545302,51.1812081 203.280201,50.9748322 199.70302,50.9060403 C202.041946,33.5704698 216.901007,20.2248322 234.855705,20.2248322 C254.392617,20.2248322 270.352349,36.1845638 270.352349,55.7214765 C270.352349,67.0033557 264.848993,77.7348993 255.699664,84.4077181 C254.11745,85.5771812 253.704698,87.8473154 254.874161,89.4983221 C256.043624,91.1493289 258.313758,91.4932886 259.964765,90.3238255 C271.040268,82.3439597 277.575503,69.3422819 277.575503,55.7214765 C277.644295,32.1258389 258.451342,13.0016779 234.924497,13.0016779 L234.924497,13.0016779 Z M233.27349,60.4681208 C233.067114,63.7013423 228.389262,72.5755034 222.67953,74.9832215 C214.355705,78.5604027 204.65604,74.7080537 201.078859,66.3154362 L201.078859,66.3154362 C200.253356,63.6325503 199.70302,60.8808725 199.496644,58.0604027 C214.630872,58.5419463 229.077181,59.3674497 233.27349,60.4681208 L233.27349,60.4681208 Z" id="Shape"></path>
                    <path d="M148.246644,78.9043624 L147.971477,79.0419463 C148.177852,79.2483221 148.315436,79.385906 148.521812,79.5922819 C151.411074,82 157.602349,84.2701342 166.682886,84.4077181 C170.810403,84.4765101 173.562081,84.4077181 178.927852,81.3120805 L179.065436,81.3120805 C181.060403,79.3171141 181.748322,76.6342282 180.303691,73.2634228 C176.795302,65.0083893 151.548658,77.2533557 148.246644,78.8355705 C148.177852,78.9043624 148.10906,78.9731544 148.040268,79.0419463 C148.10906,79.0419463 148.177852,78.9731544 148.246644,78.9043624 L148.246644,78.9043624 Z" id="Shape"></path>
                    <path d="M201.078859,66.3842282 L201.078859,66.3842282 C204.65604,74.7080537 214.355705,78.5604027 222.67953,74.9832215 C228.389262,72.5755034 233.067114,63.7013423 233.27349,60.4681208 C229.077181,59.3674497 214.630872,58.5419463 199.496644,58.1291946 C199.70302,60.9496644 200.184564,63.7701342 201.078859,66.3842282 L201.078859,66.3842282 Z" id="Shape" fill="#F9D135"></path>
                    <path d="M298.213087,6.67281879 L288.100671,6.67281879 L286.65604,14.7214765 L282.734899,14.7214765 L281.771812,20.6375839 L285.348993,20.6375839 L283.766779,29.7181208 C274.479866,12.3137584 256.112416,0.412751678 234.993289,0.412751678 C204.518456,0.412751678 179.753356,25.1090604 179.753356,55.6526846 C179.753356,56.4781879 179.753356,57.3724832 179.822148,58.1979866 C183.880872,62.3942953 187.389262,66.590604 183.468121,64.9395973 C176.313758,61.8439597 160.216443,69.135906 148.10906,78.8355705 C151.342282,77.2533557 176.588926,65.0083893 180.166107,73.2634228 C181.610738,76.5654362 180.922819,79.2483221 178.927852,81.3120805 L178.790268,81.3120805 C173.424497,84.3389262 170.672819,84.4765101 166.545302,84.4077181 C157.395973,84.2701342 151.27349,82 148.384228,79.5922819 C148.177852,79.454698 147.971477,79.2483221 147.833893,79.0419463 C147.833893,79.0419463 147.902685,78.9731544 148.10906,78.9043624 C149.209732,77.8036913 158.083893,68.9295302 165.100671,60.6744966 L165.031879,60.6744966 C170.466443,54.0016779 174.662752,47.6728188 177.620805,41.6879195 C180.716443,35.4966443 182.298658,29.5805369 182.298658,23.9395973 C182.298658,19.6744966 181.197987,15.8221477 178.996644,12.3825503 C176.795302,8.94295302 173.90604,6.67281879 170.260067,5.57214765 C167.508389,4.40268456 164,3.85234899 159.803691,3.92114094 C152.511745,3.98993289 145.63255,5.98489933 139.303691,9.90604027 C132.699664,13.8959732 127.677852,19.8120805 124.169463,27.7919463 L123.687919,28.8926174 C123.825503,30.4748322 124.788591,32.057047 126.577181,33.5704698 C128.29698,35.0838926 130.016779,35.7718121 131.598993,35.7030201 C132.974832,35.6342282 134.006711,35.2214765 134.694631,34.533557 C139.854027,28.204698 144.394295,23.6644295 148.384228,21.0503356 C149.828859,19.8808725 151.342282,18.9865772 153.062081,18.3674497 C154.713087,17.7483221 156.364094,17.5419463 157.946309,17.6107383 C163.65604,17.7483221 166.545302,20.5687919 166.545302,25.9345638 C166.47651,26.1409396 166.407718,26.897651 166.338926,27.9983221 C166.270134,29.1677852 166.201342,29.9244966 166.13255,30.3372483 C163.380872,39.2114094 155.813758,50.8372483 143.568792,65.1459732 C139.028523,70.3741611 136.276846,72.988255 135.313758,72.988255 C134.281879,72.4379195 132.768456,71.6812081 130.77349,70.7181208 C128.778523,69.7550336 127.333893,69.0671141 126.370805,68.5855705 C122.862416,67.3473154 119.078859,66.659396 115.020134,66.659396 L114.194631,66.659396 C109.58557,66.659396 105.595638,68.3104027 102.293624,71.6124161 C98.9916107,74.9144295 97.340604,78.8355705 97.409396,83.4446309 C97.4781879,87.3657718 98.647651,90.6677852 100.986577,93.3506711 C103.256711,96.033557 106.352349,97.409396 110.135906,97.409396 L113.231544,97.409396 C118.528523,97.409396 123.412752,96.1711409 127.884228,93.6946309 C129.947987,92.5939597 132.562081,90.942953 135.72651,88.8104027 C140.404362,91.4244966 145.082215,93.488255 149.828859,94.9328859 C152.718121,96.033557 156.157718,96.9966443 160.147651,97.6845638 C174.112416,100.161074 185.050336,94.795302 189.934564,87.4345638 C199.909396,101.605705 216.419463,110.892617 235.062081,110.892617 C265.536913,110.892617 290.302013,86.1963087 290.302013,55.6526846 C290.302013,50.4244966 289.545302,45.3338926 288.169463,40.5184564 C289.063758,40.5872483 290.095638,40.6560403 291.196309,40.6560403 L294.635906,40.4496644 L296.974832,40.4496644 L298.213087,33.1577181 L296.355705,33.1577181 C295.736577,33.1577181 295.186242,33.0889262 294.635906,32.9513423 C294.016779,32.7449664 293.672819,32.1946309 293.672819,31.4379195 L293.879195,30.1996644 L295.598993,20.6375839 L300.483221,20.6375839 L301.583893,14.7214765 L296.699664,14.7214765 L298.213087,6.67281879 L298.213087,6.67281879 Z M121.899329,85.7147651 C119.354027,87.4345638 117.015101,88.3288591 114.88255,88.3288591 L112.818792,88.0536913 C111.236577,87.9161074 109.92953,87.3657718 109.035235,86.4026846 C108.003356,85.1644295 107.45302,83.9949664 107.45302,82.9630872 C107.79698,79.5234899 109.723154,77.5973154 113.300336,77.1157718 L115.088926,77.1157718 C117.015101,77.1157718 119.285235,77.6661074 121.899329,78.7667785 L127.265101,81.2432886 C124.444631,83.5822148 122.65604,85.0268456 121.899329,85.7147651 L121.899329,85.7147651 Z M259.964765,90.3238255 C258.38255,91.4932886 256.043624,91.1493289 254.874161,89.4983221 C253.704698,87.8473154 254.11745,85.5771812 255.699664,84.4077181 C264.917785,77.7348993 270.352349,67.0033557 270.352349,55.7214765 C270.352349,36.1157718 254.461409,20.2248322 234.855705,20.2248322 C216.901007,20.2248322 202.041946,33.6392617 199.70302,50.9060403 C203.280201,50.9748322 207.545302,51.1124161 211.810403,51.3187919 C235.818792,52.3506711 237.401007,54.0016779 238.639262,55.2399329 C239.739933,56.340604 240.978188,58.5419463 240.221477,62.4630872 C238.91443,69.2734899 232.723154,78.5604027 225.5,81.6560403 C222.473154,82.9630872 219.239933,83.5822148 216.213087,83.5822148 C207.47651,83.5822148 199.083893,78.6979866 195.025168,70.511745 C193.236577,65.6275168 192.27349,60.3993289 192.27349,54.8959732 C192.27349,53.4513423 192.342282,52.0755034 192.479866,50.6308725 C195.025168,29.442953 213.048658,13.0016779 234.924497,13.0016779 C258.451342,13.0016779 277.644295,32.1258389 277.644295,55.7214765 C277.644295,69.3422819 271.040268,82.2751678 259.964765,90.3238255 L259.964765,90.3238255 Z M223.848993,42.7885906 C223.573826,42.9949664 223.229866,43.1325503 222.954698,43.1325503 C222.473154,43.1325503 222.129195,42.9261745 221.854027,42.5822148 C221.854027,42.5822148 220.409396,40.9312081 218.483221,40.7936242 C217.176174,40.7248322 215.869128,41.3439597 214.493289,42.6510067 C213.942953,43.2013423 213.048658,43.2013423 212.42953,42.6510067 C211.879195,42.1006711 211.879195,41.1375839 212.42953,40.5872483 C214.424497,38.6610738 216.488255,37.7667785 218.689597,37.9043624 C221.922819,38.0419463 224.055369,40.5872483 224.124161,40.7248322 C224.536913,41.3439597 224.468121,42.238255 223.848993,42.7885906 L223.848993,42.7885906 Z" id="Shape" fill="#F9D135"></path>
                    <path d="M324.629195,14.033557 C321.395973,14.033557 318.506711,15.340604 315.961409,17.954698 L318.300336,5.09060403 L308.119128,5.09060403 L301.790268,40.5184564 L312.040268,40.5184564 L314.379195,27.1728188 C314.998322,23.7332215 316.649329,22.0822148 319.263423,22.0822148 C321.189597,22.0822148 322.152685,23.114094 322.152685,25.2466443 L322.083893,27.1040268 L319.676174,40.5184564 L329.926174,40.5184564 L332.60906,24.7651007 C332.815436,23.5956376 332.884228,22.5637584 332.884228,21.738255 C332.884228,16.5788591 330.13255,14.033557 324.629195,14.033557 L324.629195,14.033557 Z" id="Shape" fill="#F9D135"></path>
                    <path d="M148.10906,79.0419463 C148.177852,78.9731544 148.246644,78.9043624 148.315436,78.8355705 C148.246644,78.8355705 148.246644,78.8355705 148.246644,78.9043624 C148.177852,78.9731544 148.10906,79.0419463 148.10906,79.0419463 L148.10906,79.0419463 Z" id="Shape" fill="#38355C"></path>
                </g>
            </g>
        </g>
    </g>
</svg>