<?xml version="1.0" encoding="UTF-8" standalone="no"?>
<svg width="574px" height="410px" viewBox="0 0 574 410" version="1.1" xmlns="http://www.w3.org/2000/svg" xmlns:xlink="http://www.w3.org/1999/xlink">
    <!-- Generator: Sketch 40.1 (33804) - http://www.bohemiancoding.com/sketch -->
    <title>silver2</title>
    <desc>Created with Sketch.</desc>
    <defs></defs>
    <g id="Page-1" stroke="none" stroke-width="1" fill="none" fill-rule="evenodd">
        <g id="silver2">
            <rect id="Rectangle-2" fill="#FFFFFF" x="0" y="0" width="574" height="410"></rect>
            <g id="Layer_1" transform="translate(72.000000, 167.000000)">
                <g id="Group" transform="translate(274.000000, 10.000000)" fill="#EBA121">
                    <path d="M59.6,1 C63.6,1 67,2 69.7,4 C72.5,6 74.5,8.7 75.9,12.1 C77.3,15.5 78,19.3 78,23.5 L78,27.7 L52.8,27.7 C54,32.7 57.4,35.3 63.2,35.3 C66.9,35.3 70.6,34.2 74.3,31.9 L77.9,41.6 C76.1,43.1 73.8,44.3 71.1,45.2 C68.4,46.1 65.5,46.5 62.3,46.5 C55.1,46.5 49.5,44.5 45.3,40.5 C41.2,36.5 39.1,31 39.1,23.9 C39.1,19.3 40,15.2 41.7,11.7 C43.4,8.2 45.8,5.6 48.9,3.7 C52.1,1.9 55.6,1 59.6,1 L59.6,1 Z M59.3,12.4 C57.5,12.4 56,13.1 54.8,14.4 C53.6,15.7 52.9,17.5 52.7,19.7 L66,19.7 C65.7,17.5 65,15.7 63.9,14.4 C62.7,13.1 61.2,12.4 59.3,12.4 L59.3,12.4 Z" id="Shape"></path>
                    <path d="M104.6,14.1 L108.2,0.8 L108.2,0.8 C106.1,0.8 103.7,1.5 101.1,2.8 C98.5,4.2 96.2,5.7 94.2,7.4 L90.4,0.9 L83.6,0.9 L83.6,46.4 L97,46.4 L97,19.1 C99.1,17.2 101.4,15.6 104,14.3 C104.2,14.3 104.4,14.2 104.6,14.1 L104.6,14.1 Z" id="Shape"></path>
                    <polygon id="Shape" points="8.8 0.8 39.9 0.8 37.5 9.1 18.8 34.8 37.6 34.8 34.6 46.5 0.3 46.5 2.2 38.7 21 12.6 5.6 12.6"></polygon>
                </g>
                <g id="Group" transform="translate(382.000000, 0.000000)" fill="#EBA121">
                    <path d="M26.2,7.5 C24.9,7.1 14.1,4 7.5,15.3 C3.3,22.4 3.4,28.7 3.5,33.7 L3.5,36.5 C3.4,40.7 2.8,43.7 1.4,46.7 C0.6,48.6 -1.7,53.5 3.2,56.1 C4.5,56.8 6,57.1 7.7,57.1 C10,57.1 12.6,56.5 15.5,55.3 C21,53.1 32.2,44.8 35.7,29.2 C37.8,20 35.2,14.6 32.6,11.7 C29.9,8.7 26.8,7.7 26.2,7.5 L26.2,7.5 Z M30.1,28 C27,41.6 17,48.4 13.4,49.9 C10.8,51 7.6,52.1 6.2,51.3 L6.1,51.2 C5.9,51 5.9,50.5 6.6,48.8 C8.3,45.1 9.1,41.3 9.2,36.4 L9.2,33.4 C9.1,28.9 9,23.8 12.4,18.1 C15.1,13.5 18.8,12.5 21.5,12.5 C23.1,12.5 24.2,12.9 24.4,12.9 L24.6,13 C24.7,13 26.8,13.6 28.5,15.7 C30.7,18.5 31.3,22.6 30.1,28 L30.1,28 Z" id="Shape"></path>
                    <path d="M32.1,2.3 C32.1,2.3 31.2,0.8 30.4,0.1 C30.4,0.1 27.1,2.6 26,6.8 C26,6.8 27,7 27.8,7.5 C27.8,7.4 29.1,4.4 32.1,2.3 L32.1,2.3 Z" id="Shape"></path>
                    <path d="M36.2,2.3 C30.6,3.7 29.2,8 29.2,8 C31.1,8 32.7,8.6 33.3,8.9 C33.9,9.1 37.5,10.6 42.2,8.7 C46.9,6.8 47.9,3 47.9,3 C42.8,3.4 41.8,0.9 36.2,2.3 L36.2,2.3 Z" id="Shape"></path>
                </g>
                <g id="Group" transform="translate(0.000000, 9.000000)" fill="#333333">
                    <path d="M73.7,17.1 L65.9,46.3 L52.9,46.3 L60.2,19 C60.8,16.7 60.9,15 60.6,13.8 C60.3,12.6 59.3,12 57.5,12 C56.3,12 54.9,12.4 53.3,13.1 C51.7,13.8 49.8,14.7 47.7,15.9 L47.4,17.1 L39.6,46.3 L26.6,46.3 L33.9,19 C34.5,16.7 34.6,15 34.3,13.8 C34,12.6 33,12 31.2,12 C30,12 28.6,12.4 27,13.1 C25.3,13.8 23.5,14.7 21.4,15.9 L13.3,46.3 L0.2,46.3 L12.1,1.8 L20.2,1.8 L21.2,6.5 C24.1,4.7 27.1,3.2 30.2,2 C33.2,0.9 35.9,0.3 38.3,0.3 C43.8,0.3 47,2.2 48.2,6.1 C51.1,4.4 53.9,3 56.8,1.9 C59.7,0.8 62.3,0.3 64.7,0.3 C69.5,0.3 72.6,1.8 74,4.7 C75.2,7.6 75.2,11.8 73.7,17.1 L73.7,17.1 Z" id="Shape"></path>
                    <path d="M98.2,12.7 C96.6,12.7 94.7,13 92.5,13.5 C90.3,14.1 88.3,14.7 86.5,15.5 L85.9,4.5 C88,3.4 90.8,2.4 94.3,1.6 C97.7,0.8 100.8,0.4 103.3,0.4 C106.7,0.4 109.5,1.1 111.7,2.6 C113.9,4.1 115.4,6.1 116.1,8.8 C116.8,11.5 116.7,14.5 115.8,17.9 L108.2,46.3 L101,46.3 L99.2,41.6 C95.2,45.4 91.4,47.3 87.7,47.3 C82.8,47.3 79.5,46 77.7,43.3 C75.9,40.6 75.6,37 76.9,32.4 C78.1,27.9 80.4,24.5 83.8,22.2 C87.2,19.9 91.3,18.8 96.1,18.8 L102.4,18.8 C102.8,16.8 102.6,15.3 101.9,14.3 C101.2,13.3 99.9,12.7 98.2,12.7 L98.2,12.7 Z M93.8,27.5 C92.4,27.5 91.2,28 90,28.9 C88.9,29.8 88.1,31 87.8,32.4 C87.5,33.5 87.6,34.5 88.1,35.2 C88.6,36 89.4,36.4 90.6,36.4 C93,36.4 95.7,35.2 98.6,32.9 L100.1,27.5 L93.8,27.5 L93.8,27.5 Z" id="Shape"></path>
                    <path d="M148.4,12.1 C146.1,12.1 142.5,13.4 137.9,16 L129.8,46.4 L116.7,46.4 L128.6,1.9 L136.7,1.9 L137.7,6.6 C140.6,4.8 143.7,3.3 146.9,2.1 C150.1,1 152.9,0.4 155.5,0.4 C160.5,0.4 163.7,2 165.1,5.1 C166.5,8.3 166.5,12.6 165,18 L157.4,46.4 L144.3,46.4 L151.6,19.1 C152.2,17 152.2,15.3 151.7,14 C151.1,12.7 150,12.1 148.4,12.1 L148.4,12.1 Z" id="Shape"></path>
                    <path d="M203.8,48.1 C202.8,52 200.9,55.4 198.3,58.4 C195.7,61.3 192.5,63.6 188.8,65.1 C185.1,66.7 181,67.4 176.7,67.4 C174.5,67.4 171.6,66.9 168.2,66 C164.8,65.1 162.2,63.8 160.4,62.2 L167,52.1 C170.9,54.5 174.8,55.8 179,55.8 C181.8,55.8 184.3,55.1 186.5,53.6 C188.6,52.2 190,50.2 190.7,47.9 L191.4,45.4 C188.6,46.6 185.9,47.2 183.5,47.2 C177.2,47.2 172.7,45.2 170.1,41.1 C167.5,37.1 167.1,31.3 169.1,23.9 C171.1,16.5 174.5,10.7 179.4,6.5 C184.3,2.3 190,0.2 196.5,0.2 C198.4,0.2 200.2,0.6 201.9,1.4 C203.6,2.2 205.1,3.4 206.4,4.9 L209.5,1.6 L216.2,1.6 L203.8,48.1 L203.8,48.1 Z M194.7,33.3 L199.8,14.3 C198.2,12.8 196.3,12 194.1,12 C191.6,12 189.4,13.1 187.3,15.3 C185.2,17.5 183.7,20.4 182.7,24 C181.7,27.7 181.7,30.6 182.6,32.7 C183.5,34.8 185.3,35.9 188,35.9 C189.8,35.9 192.1,35 194.7,33.3 L194.7,33.3 Z" id="Shape"></path>
                    <path d="M233,47.4 C228.6,47.4 225,46.5 222.1,44.7 C219.2,42.9 217.4,40.2 216.4,36.7 C215.5,33.2 215.7,28.9 217,24 C218.3,19.2 220.4,15.1 223.2,11.5 C226.1,8 229.4,5.2 233.3,3.3 C237.2,1.4 241.3,0.5 245.6,0.5 C250,0.5 253.6,1.4 256.5,3.3 C259.4,5.2 261.3,7.9 262.2,11.4 C263.1,15 262.9,19.2 261.6,24.2 C260.3,29 258.3,33.1 255.4,36.6 C252.5,40.1 249.2,42.8 245.3,44.6 C241.5,46.4 237.3,47.4 233,47.4 L233,47.4 Z M248.2,24.1 C249.1,20.7 249.1,17.9 248.1,15.7 C247.1,13.5 245.3,12.4 242.7,12.4 C240,12.4 237.5,13.5 235.3,15.6 C233.1,17.7 231.6,20.5 230.6,24 C229.7,27.5 229.7,30.3 230.7,32.4 C231.7,34.5 233.6,35.6 236.2,35.6 C238.8,35.6 241.3,34.6 243.5,32.5 C245.7,30.3 247.2,27.6 248.2,24.1 L248.2,24.1 Z" id="Shape"></path>
                </g>
            </g>
        </g>
    </g>
</svg>