<?xml version="1.0" encoding="UTF-8" standalone="no"?>
<svg width="574px" height="410px" viewBox="0 0 574 410" version="1.1" xmlns="http://www.w3.org/2000/svg" xmlns:xlink="http://www.w3.org/1999/xlink">
    <!-- Generator: Sketch 40.1 (33804) - http://www.bohemiancoding.com/sketch -->
    <title>silver1</title>
    <desc>Created with Sketch.</desc>
    <defs></defs>
    <g id="Page-1" stroke="none" stroke-width="1" fill="none" fill-rule="evenodd">
        <g id="silver1">
            <rect id="Rectangle-2" fill="#FFFFFF" x="0" y="0" width="574" height="410"></rect>
            <g id="Group" transform="translate(53.000000, 147.000000)">
                <g transform="translate(0.000000, 0.314607)" id="Shape">
                    <path d="M145.476487,38.7808989 C149.70085,45.0910112 149.70085,52.3213483 149.70085,59.8146067 C149.70085,67.3078652 149.70085,74.5382022 145.476487,80.8483146 C140.724079,87.8157303 132.143343,92.0224719 121.714448,92.0224719 C111.285552,92.0224719 102.704816,87.8157303 97.9524079,80.8483146 C93.7280453,74.5382022 93.7280453,67.3078652 93.7280453,59.8146067 C93.7280453,52.3213483 93.7280453,45.0910112 97.9524079,38.7808989 C102.704816,31.8134831 111.285552,27.6067416 121.714448,27.6067416 C132.275354,27.6067416 140.856091,31.8134831 145.476487,38.7808989 L145.476487,38.7808989 Z M107.325212,42.5932584 C104.024929,46.9314607 104.024929,53.1101124 104.024929,59.8146067 C104.024929,66.5191011 104.024929,72.6977528 107.325212,77.0359551 C110.229462,80.9797753 115.245892,83.3460674 121.846459,83.3460674 C128.315014,83.3460674 133.331445,80.9797753 136.367705,77.0359551 C139.667989,72.6977528 139.667989,66.5191011 139.667989,59.8146067 C139.667989,53.1101124 139.667989,46.9314607 136.367705,42.5932584 C133.463456,38.6494382 128.447025,36.2831461 121.846459,36.2831461 C115.245892,36.2831461 110.229462,38.6494382 107.325212,42.5932584 L107.325212,42.5932584 Z" fill="#303030"></path>
                    <path d="M48.7121813,35.3629213 C44.4878187,30.7617978 37.4912181,27.6067416 28.7784703,27.6067416 C21.517847,27.6067416 15.0492918,30.6303371 11.0889518,35.6258427 L11.0889518,4.73258427 C11.0889518,2.23483146 8.71274788,0.131460674 5.94050992,0.131460674 C3.03626062,0.131460674 0.792067989,2.23483146 0.792067989,4.73258427 L0.792067989,60.7348315 C0.792067989,70.594382 0.792067989,77.1674157 5.80849858,83.2146067 C9.90084986,88.341573 17.2934844,91.8910112 26.666289,91.8910112 C35.5110482,91.8910112 42.6396601,88.7359551 47.1280453,84.6606742 C55.4447592,77.1674157 55.4447592,67.9651685 55.4447592,60.0775281 C55.3127479,51.1382022 55.3127479,42.4617978 48.7121813,35.3629213 L48.7121813,35.3629213 Z M39.8674221,78.4820225 C36.5671388,81.6370787 31.5507082,83.2146067 26.5342776,83.2146067 C21.913881,83.2146067 17.5575071,81.9 14.5212465,78.7449438 C10.9569405,74.9325843 10.9569405,69.2797753 10.9569405,62.3123596 C10.9569405,52.5842697 10.9569405,45.3539326 15.4453258,40.752809 C18.0855524,37.9921348 22.4419263,36.1516854 27.9864023,36.1516854 C33.6628895,36.1516854 37.8872521,37.9921348 40.5274788,40.752809 C45.015864,45.3539326 45.015864,52.5842697 45.015864,59.9460674 C45.015864,66.6505618 45.015864,73.4865169 39.8674221,78.4820225 L39.8674221,78.4820225 Z" fill="#303030"></path>
                    <path d="M272.735411,34.311236 C269.171105,31.0247191 262.834561,27.6067416 253.85779,27.6067416 C244.88102,27.6067416 238.544476,31.0247191 234.98017,34.311236 C227.983569,40.752809 227.983569,48.3775281 227.983569,57.4483146 L227.983569,88.341573 L227.983569,88.341573 C228.247592,90.7078652 230.359773,92.5483146 233.132011,92.5483146 C235.772238,92.5483146 238.016431,90.7078652 238.280453,88.341573 L238.280453,88.341573 L238.280453,88.0786517 L238.280453,88.0786517 L238.280453,85.0550562 L238.280453,85.0550562 L238.280453,57.4483146 C238.280453,49.2977528 238.280453,43.7764045 242.504816,39.9640449 C245.013031,37.7292135 248.84136,36.1516854 253.725779,36.1516854 C258.610198,36.1516854 262.438527,37.7292135 264.946742,39.9640449 C269.171105,43.7764045 269.171105,49.2977528 269.171105,57.4483146 L269.171105,88.341573 L269.171105,88.341573 C269.435127,90.7078652 271.547309,92.5483146 274.319547,92.5483146 C276.959773,92.5483146 279.203966,90.7078652 279.467989,88.341573 L279.467989,88.341573 L279.467989,57.4483146 C279.732011,48.3775281 279.732011,40.752809 272.735411,34.311236 L272.735411,34.311236 Z" fill="#303030"></path>
                    <path d="M394.317847,34.311236 C390.753541,31.0247191 384.416997,27.6067416 375.440227,27.6067416 C366.463456,27.6067416 360.126912,31.0247191 356.562606,34.311236 C349.566006,40.752809 349.566006,48.3775281 349.566006,57.4483146 L349.566006,88.341573 L349.566006,88.341573 C349.830028,90.7078652 351.94221,92.5483146 354.714448,92.5483146 C357.486686,92.5483146 359.598867,90.7078652 359.86289,88.341573 L359.86289,88.341573 L359.86289,88.0786517 L359.86289,88.0786517 L359.86289,85.0550562 L359.86289,85.0550562 L359.86289,57.4483146 C359.86289,49.2977528 359.86289,43.7764045 364.087252,39.9640449 C366.595467,37.7292135 370.423796,36.1516854 375.308215,36.1516854 C380.192635,36.1516854 384.020963,37.7292135 386.529178,39.9640449 C390.753541,43.7764045 390.753541,49.2977528 390.753541,57.4483146 L390.753541,88.341573 L390.753541,88.341573 C391.017564,90.7078652 393.129745,92.5483146 395.901983,92.5483146 C398.674221,92.5483146 400.786402,90.7078652 401.050425,88.341573 L401.050425,88.341573 L401.050425,57.4483146 C401.314448,48.3775281 401.314448,40.752809 394.317847,34.311236 L394.317847,34.311236 Z" fill="#303030"></path>
                    <path d="M80.3949008,4.73258427 C80.3949008,2.23483146 78.0186969,0.131460674 75.2464589,0.131460674 C72.3422096,0.131460674 70.098017,2.23483146 70.098017,4.73258427 L70.098017,4.73258427 L70.098017,88.4730337 L70.098017,88.4730337 C70.3620397,90.8393258 72.474221,92.6797753 75.2464589,92.6797753 C78.0186969,92.6797753 80.1308782,90.8393258 80.3949008,88.4730337 L80.3949008,88.4730337 L80.3949008,4.73258427 L80.3949008,4.73258427 L80.3949008,4.73258427 Z" fill="#303030"></path>
                    <path d="M208.841926,35.494382 C203.033428,29.447191 194.584703,27.6067416 187.720113,27.6067416 C178.875354,27.6067416 171.746742,30.6303371 167.258357,35.1 C160.129745,42.1988764 160.129745,51.4011236 160.129745,59.4202247 C160.129745,68.3595506 160.129745,77.0359551 166.730312,84.0033708 C170.954674,88.6044944 177.951275,91.7595506 186.664023,91.7595506 C193.924646,91.7595506 200.393201,88.7359551 204.353541,83.7404494 L204.353541,85.0550562 C204.353541,93.0741573 204.353541,97.8067416 200.789235,101.750562 C198.016997,104.905618 193.132578,107.140449 185.871955,107.140449 C179.799433,107.140449 173.726912,105.694382 168.974504,103.32809 C168.842493,103.32809 168.842493,103.196629 168.710482,103.196629 C166.202266,102.144944 163.298017,103.196629 162.109915,105.3 C160.921813,107.534831 162.109915,110.164045 164.486119,111.08427 L164.61813,111.08427 C171.086686,114.107865 178.611331,115.553933 185.739943,115.553933 C195.508782,115.553933 203.033428,112.530337 207.785836,107.929213 C214.518414,101.35618 214.518414,94.1258427 214.518414,84.9235955 L214.518414,58.2370787 C214.782436,47.8516854 214.782436,41.6730337 208.841926,35.494382 L208.841926,35.494382 Z M199.997167,78.6134831 C197.356941,81.3741573 193.000567,83.2146067 187.456091,83.2146067 C181.911615,83.2146067 177.555241,81.3741573 174.915014,78.6134831 C170.426629,74.0123596 170.426629,66.7820225 170.426629,59.4202247 C170.426629,51.9269663 170.426629,45.2224719 175.179037,40.4898876 C177.819263,37.8606742 182.307649,36.1516854 187.720113,36.1516854 C193.000567,36.1516854 198.016997,37.8606742 200.789235,40.8842697 C204.353541,44.5651685 204.353541,50.0865169 204.353541,57.0539326 C204.353541,66.7820225 204.353541,74.0123596 199.997167,78.6134831 L199.997167,78.6134831 Z" fill="#303030"></path>
                    <g transform="translate(290.424929, 27.606742)" fill="#609E38">
                        <path d="M43.2997167,8.1505618 C48.58017,14.3292135 48.58017,21.2966292 48.58017,30.1044944 L48.58017,36.4146067 C48.58017,45.2224719 48.58017,52.3213483 43.2997167,58.3685393 C38.5473088,63.8898876 31.2866856,66.1247191 24.4220963,66.1247191 C17.5575071,66.1247191 10.2968839,63.8898876 5.54447592,58.3685393 C0.264022663,52.1898876 0.264022663,45.2224719 0.264022663,36.4146067 L0.264022663,30.2359551 C0.264022663,21.4280899 0.264022663,14.3292135 5.54447592,8.28202247 C10.2968839,2.76067416 17.5575071,0.525842697 24.4220963,0.525842697 C31.2866856,0.394382022 38.5473088,2.62921348 43.2997167,8.1505618 L43.2997167,8.1505618 Z M13.3331445,14.0662921 C9.90084986,18.0101124 9.90084986,22.8741573 9.90084986,30.6303371 L9.90084986,36.1516854 C9.90084986,43.9078652 9.90084986,48.7719101 13.3331445,52.7157303 C16.2373938,56.1337079 20.9898017,57.0539326 24.4220963,57.0539326 C27.8543909,57.0539326 32.6067989,56.1337079 35.5110482,52.7157303 C38.9433428,48.7719101 38.9433428,43.9078652 38.9433428,36.1516854 L38.9433428,30.6303371 C38.9433428,22.8741573 38.9433428,18.0101124 35.5110482,14.0662921 C32.6067989,10.6483146 27.8543909,9.72808989 24.4220963,9.72808989 C20.9898017,9.72808989 16.2373938,10.6483146 13.3331445,14.0662921 L13.3331445,14.0662921 Z"></path>
                        <path d="M45.9399433,17.747191 C47.6560907,19.3247191 47.6560907,21.9539326 45.9399433,23.5314607 L9.37280453,48.3775281 C7.65665722,49.9550562 4.88441926,49.9550562 3.16827195,48.3775281 L3.16827195,48.3775281 C1.45212465,46.8 1.45212465,44.1707865 3.16827195,42.5932584 L39.7354108,17.747191 C41.4515581,16.1696629 44.223796,16.1696629 45.9399433,17.747191 L45.9399433,17.747191 L45.9399433,17.747191 Z"></path>
                    </g>
                    <path d="M441.18187,92.4168539 C422.040227,92.4168539 412.007365,81.2426966 412.007365,60.0775281 C412.007365,39.7011236 422.172238,27.8696629 439.861756,27.8696629 C464.547875,27.8696629 465.735977,49.8235955 465.735977,54.1617978 C465.735977,57.8426966 465.735977,63.4955056 459.399433,63.4955056 L422.568272,63.4955056 C422.964306,75.1955056 429.960907,82.294382 441.049858,82.294382 C448.17847,82.294382 452.402833,79.6651685 455.967139,76.9044944 C457.023229,76.247191 457.683286,75.852809 459.003399,75.852809 C461.643626,75.852809 463.887819,78.0876404 463.887819,80.7168539 C463.887819,82.5573034 462.963739,83.6089888 462.171671,84.5292135 C460.983569,86.1067416 453.986969,92.4168539 441.18187,92.4168539 L441.18187,92.4168539 Z M455.439093,54.1617978 C455.175071,43.2505618 449.894618,37.5977528 439.993768,37.5977528 C430.092918,37.5977528 424.020397,43.5134831 422.964306,54.1617978 L455.439093,54.1617978 L455.439093,54.1617978 Z" fill="#303030"></path>
                </g>
                <g transform="translate(227.059490, 0.000000)" id="Shape" fill="#303030">
                    <path d="M6.46855524,5.70449438 C6.60056657,5.70449438 6.7325779,5.83595506 6.7325779,5.96741573 L6.7325779,7.01910112 C6.7325779,7.1505618 6.60056657,7.28202247 6.46855524,7.28202247 L3.69631728,7.28202247 L3.69631728,14.6438202 C3.69631728,15.6955056 4.22436261,16.2213483 5.01643059,16.2213483 C5.14844193,16.2213483 5.41246459,16.2213483 5.67648725,16.0898876 C5.80849858,16.0898876 5.94050992,16.0898876 5.94050992,16.2213483 L6.33654391,17.141573 C6.33654391,17.2730337 6.33654391,17.4044944 6.20453258,17.4044944 C5.80849858,17.5359551 5.41246459,17.6674157 5.01643059,17.6674157 C3.16827195,17.6674157 2.1121813,16.4842697 2.1121813,14.6438202 L2.1121813,7.28202247 L0.92407932,7.28202247 C0.792067989,7.28202247 0.660056657,7.1505618 0.660056657,7.01910112 L0.660056657,5.96741573 C0.660056657,5.83595506 0.792067989,5.70449438 0.92407932,5.70449438 L2.1121813,5.70449438 L2.1121813,2.81235955 C2.1121813,2.68089888 2.1121813,2.5494382 2.24419263,2.5494382 L3.43229462,2.15505618 C3.56430595,2.15505618 3.69631728,2.15505618 3.69631728,2.41797753 L3.69631728,5.83595506 L6.46855524,5.83595506 L6.46855524,5.70449438 Z"></path>
                    <path d="M16.3694051,17.2730337 C15.5773371,17.5359551 14.6532578,17.6674157 13.7291785,17.6674157 C10.2968839,17.6674157 8.31671388,15.3011236 8.31671388,11.6202247 C8.31671388,7.93932584 10.2968839,5.57303371 13.7291785,5.57303371 C16.5014164,5.57303371 18.2175637,6.88764045 18.2175637,9.12247191 C18.2175637,10.8314607 17.1614731,11.8831461 14.9172805,12.1460674 L10.1648725,12.9348315 C10.4288952,15.0382022 11.7490085,16.2213483 13.8611898,16.2213483 C14.6532578,16.2213483 15.4453258,16.0898876 16.1053824,15.958427 L16.8974504,15.6955056 C17.0294618,15.6955056 17.1614731,15.6955056 17.1614731,15.8269663 L17.4254958,16.747191 C17.4254958,16.8786517 17.4254958,17.0101124 17.2934844,17.0101124 L16.3694051,17.2730337 L16.3694051,17.2730337 Z M14.5212465,10.8314607 C15.8413598,10.5685393 16.5014164,10.0426966 16.5014164,9.12247191 C16.5014164,7.80786517 15.4453258,6.88764045 13.5971671,6.88764045 C11.3529745,6.88764045 9.90084986,8.46516854 9.90084986,11.488764 L14.5212465,10.8314607 L14.5212465,10.8314607 Z"></path>
                    <path d="M27.9864023,17.2730337 C27.1943343,17.5359551 26.4022663,17.6674157 25.6101983,17.6674157 C22.0458924,17.6674157 20.0657224,15.3011236 20.0657224,11.6202247 C20.0657224,7.93932584 22.0458924,5.57303371 25.6101983,5.57303371 C26.4022663,5.57303371 27.0623229,5.70449438 27.8543909,5.96741573 L28.6464589,6.23033708 C28.7784703,6.23033708 28.7784703,6.36179775 28.7784703,6.49325843 L28.5144476,7.41348315 C28.5144476,7.54494382 28.3824363,7.54494382 28.2504249,7.54494382 L27.5903683,7.41348315 C26.9303116,7.1505618 26.270255,7.1505618 25.7422096,7.1505618 C23.101983,7.1505618 21.7818697,8.85955056 21.7818697,11.7516854 C21.7818697,14.6438202 23.101983,16.352809 25.7422096,16.352809 C26.4022663,16.352809 27.0623229,16.2213483 27.8543909,15.958427 L28.5144476,15.8269663 C28.6464589,15.8269663 28.7784703,15.8269663 28.7784703,15.958427 L29.0424929,16.8786517 C29.0424929,17.0101124 29.0424929,17.141573 28.9104816,17.141573 L27.9864023,17.2730337 L27.9864023,17.2730337 Z"></path>
                    <path d="M33.2668555,4.91573034 C33.2668555,5.96741573 33.1348442,6.6247191 33.0028329,7.41348315 C33.0028329,7.67640449 33.1348442,7.67640449 33.2668555,7.54494382 C34.0589235,6.36179775 35.3790368,5.57303371 37.0951841,5.57303371 C39.7354108,5.57303371 41.4515581,7.41348315 41.4515581,10.305618 L41.4515581,17.2730337 C41.4515581,17.4044944 41.3195467,17.5359551 41.1875354,17.5359551 L39.9994334,17.5359551 C39.8674221,17.5359551 39.7354108,17.4044944 39.7354108,17.2730337 L39.7354108,10.4370787 C39.7354108,8.33370787 38.6793201,7.01910112 36.8311615,7.01910112 C34.0589235,7.01910112 33.0028329,9.25393258 33.0028329,11.8831461 L33.0028329,17.2730337 C33.0028329,17.4044944 32.8708215,17.5359551 32.7388102,17.5359551 L31.5507082,17.5359551 C31.4186969,17.5359551 31.2866856,17.4044944 31.2866856,17.2730337 L31.2866856,0.446067416 C31.2866856,0.314606742 31.4186969,0.183146067 31.5507082,0.183146067 L32.7388102,0.183146067 C32.8708215,0.183146067 33.0028329,0.314606742 33.0028329,0.446067416 L33.0028329,4.91573034 L33.2668555,4.91573034 Z"></path>
                    <path d="M55.7087819,7.41348315 C55.8407932,7.67640449 55.9728045,7.67640449 56.1048159,7.41348315 C57.0288952,6.0988764 58.3490085,5.44157303 60.0651558,5.44157303 C62.7053824,5.44157303 64.4215297,7.28202247 64.4215297,10.1741573 L64.4215297,17.141573 C64.4215297,17.2730337 64.2895184,17.4044944 64.1575071,17.4044944 L62.9694051,17.4044944 C62.8373938,17.4044944 62.7053824,17.2730337 62.7053824,17.141573 L62.7053824,10.305618 C62.7053824,8.20224719 61.6492918,6.88764045 59.8011331,6.88764045 C57.4249292,6.88764045 55.9728045,8.72808989 55.9728045,11.7516854 L55.9728045,17.141573 C55.9728045,17.2730337 55.8407932,17.4044944 55.7087819,17.4044944 L54.5206799,17.4044944 C54.3886686,17.4044944 54.2566572,17.2730337 54.2566572,17.141573 L54.2566572,5.83595506 C54.2566572,5.70449438 54.3886686,5.57303371 54.5206799,5.57303371 L55.3127479,5.57303371 C55.4447592,5.57303371 55.5767705,5.70449438 55.5767705,5.83595506 L55.7087819,7.41348315 L55.7087819,7.41348315 Z"></path>
                    <path d="M74.8504249,17.2730337 C74.0583569,17.5359551 73.1342776,17.6674157 72.2101983,17.6674157 C68.7779037,17.6674157 66.7977337,15.3011236 66.7977337,11.6202247 C66.7977337,7.93932584 68.7779037,5.57303371 72.2101983,5.57303371 C74.9824363,5.57303371 76.6985836,6.88764045 76.6985836,9.12247191 C76.6985836,10.8314607 75.6424929,11.8831461 73.3983003,12.1460674 L68.6458924,12.9348315 C68.909915,15.0382022 70.2300283,16.2213483 72.3422096,16.2213483 C73.1342776,16.2213483 73.9263456,16.0898876 74.5864023,15.958427 L75.3784703,15.6955056 C75.5104816,15.6955056 75.6424929,15.6955056 75.6424929,15.8269663 L75.9065156,16.747191 C75.9065156,16.8786517 75.9065156,17.0101124 75.7745042,17.0101124 L74.8504249,17.2730337 L74.8504249,17.2730337 Z M73.0022663,10.8314607 C74.3223796,10.5685393 74.9824363,10.0426966 74.9824363,9.12247191 C74.9824363,7.80786517 73.9263456,6.88764045 72.078187,6.88764045 C69.8339943,6.88764045 68.3818697,8.46516854 68.3818697,11.488764 L73.0022663,10.8314607 L73.0022663,10.8314607 Z"></path>
                    <path d="M92.2759207,13.4606742 C91.8798867,14.9067416 91.4838527,16.0898876 91.21983,17.2730337 C91.21983,17.4044944 91.0878187,17.4044944 90.9558074,17.4044944 L89.6356941,17.4044944 C89.5036827,17.4044944 89.3716714,17.2730337 89.3716714,17.2730337 C89.1076487,16.352809 88.7116147,15.1696629 88.4475921,14.2494382 L86.9954674,10.1741573 C86.8634561,9.77977528 86.7314448,9.25393258 86.5994334,8.85955056 C86.4674221,8.59662921 86.3354108,8.59662921 86.2033994,8.85955056 C86.0713881,9.25393258 86.0713881,9.77977528 85.8073654,10.1741573 L84.3552408,14.2494382 C83.9592068,15.1696629 83.6951841,16.352809 83.4311615,17.2730337 C83.4311615,17.4044944 83.2991501,17.4044944 83.1671388,17.4044944 L81.8470255,17.4044944 C81.7150142,17.4044944 81.5830028,17.2730337 81.5830028,17.2730337 C81.3189802,16.0898876 80.9229462,14.9067416 80.5269122,13.4606742 L78.1507082,5.96741573 C78.1507082,5.83595506 78.1507082,5.70449438 78.2827195,5.70449438 L79.4708215,5.70449438 C79.6028329,5.70449438 79.7348442,5.70449438 79.7348442,5.83595506 L81.7150142,12.0146067 C82.1110482,13.1977528 82.2430595,14.1179775 82.5070822,14.9067416 C82.5070822,15.1696629 82.7711048,15.1696629 82.7711048,14.9067416 C82.9031161,14.1179775 83.2991501,13.0662921 83.6951841,11.8831461 L85.8073654,5.83595506 C85.8073654,5.70449438 85.9393768,5.70449438 86.0713881,5.70449438 L86.7314448,5.70449438 C86.8634561,5.70449438 86.9954674,5.70449438 86.9954674,5.83595506 L89.1076487,11.8831461 C89.5036827,13.0662921 89.7677054,14.1179775 90.031728,14.9067416 C90.031728,15.1696629 90.2957507,15.1696629 90.2957507,14.9067416 C90.427762,14.1179775 90.6917847,13.1977528 90.9558074,12.0146067 L92.9359773,5.83595506 C92.9359773,5.70449438 93.0679887,5.70449438 93.2,5.70449438 L94.388102,5.70449438 C94.5201133,5.70449438 94.6521246,5.83595506 94.6521246,5.96741573 L92.2759207,13.4606742 L92.2759207,13.4606742 Z"></path>
                    <path d="M99.1405099,11.7516854 C97.2923513,11.2258427 96.5002833,10.305618 96.5002833,8.72808989 C96.5002833,6.75617978 98.0844193,5.57303371 100.724646,5.57303371 C101.780737,5.57303371 102.836827,5.70449438 103.628895,5.96741573 L104.552975,6.23033708 C104.684986,6.23033708 104.816997,6.36179775 104.684986,6.49325843 L104.420963,7.41348315 C104.420963,7.54494382 104.288952,7.54494382 104.156941,7.54494382 L103.232861,7.28202247 C102.572805,7.1505618 101.648725,7.01910112 100.724646,7.01910112 C99.0084986,7.01910112 98.0844193,7.67640449 98.0844193,8.72808989 C98.0844193,9.51685393 98.6124646,10.1741573 99.6685552,10.4370787 L102.572805,11.2258427 C104.420963,11.7516854 105.345042,12.8033708 105.345042,14.3808989 C105.345042,16.4842697 103.760907,17.7988764 100.856657,17.7988764 C99.4045326,17.7988764 98.2164306,17.6674157 97.1603399,17.2730337 L96.5002833,17.0101124 C96.368272,17.0101124 96.368272,16.8786517 96.368272,16.747191 L96.7643059,15.8269663 C96.7643059,15.6955056 96.8963173,15.6955056 97.0283286,15.6955056 L97.6883853,15.958427 C98.4804533,16.2213483 99.6685552,16.4842697 100.988669,16.4842697 C102.836827,16.4842697 103.892918,15.6955056 103.892918,14.5123596 C103.892918,13.5921348 103.364873,13.0662921 102.308782,12.6719101 L99.1405099,11.7516854 L99.1405099,11.7516854 Z"></path>
                    <path d="M122.374504,5.70449438 C122.506516,5.70449438 122.638527,5.83595506 122.638527,5.96741573 L122.638527,7.01910112 C122.638527,7.1505618 122.506516,7.28202247 122.374504,7.28202247 L119.602266,7.28202247 L119.602266,14.6438202 C119.602266,15.6955056 120.130312,16.2213483 120.92238,16.2213483 C121.054391,16.2213483 121.318414,16.2213483 121.582436,16.0898876 C121.714448,16.0898876 121.846459,16.0898876 121.846459,16.2213483 L122.242493,17.141573 C122.242493,17.2730337 122.242493,17.4044944 122.110482,17.4044944 C121.714448,17.5359551 121.318414,17.6674157 120.92238,17.6674157 C119.074221,17.6674157 118.01813,16.4842697 118.01813,14.6438202 L118.01813,7.28202247 L116.830028,7.28202247 C116.698017,7.28202247 116.566006,7.1505618 116.566006,7.01910112 L116.566006,5.96741573 C116.566006,5.83595506 116.698017,5.70449438 116.830028,5.70449438 L118.01813,5.70449438 L118.01813,2.81235955 C118.01813,2.68089888 118.01813,2.5494382 118.150142,2.5494382 L119.338244,2.15505618 C119.470255,2.15505618 119.602266,2.15505618 119.602266,2.41797753 L119.602266,5.83595506 L122.374504,5.83595506 L122.374504,5.70449438 Z"></path>
                    <path d="M126.86289,4.91573034 C126.86289,5.96741573 126.730878,6.6247191 126.598867,7.41348315 C126.598867,7.67640449 126.730878,7.67640449 126.86289,7.54494382 C127.654958,6.36179775 128.975071,5.57303371 130.823229,5.57303371 C133.463456,5.57303371 135.179603,7.41348315 135.179603,10.305618 L135.179603,17.2730337 C135.179603,17.4044944 135.047592,17.5359551 134.915581,17.5359551 L133.727479,17.5359551 C133.595467,17.5359551 133.463456,17.4044944 133.463456,17.2730337 L133.463456,10.4370787 C133.463456,8.33370787 132.407365,7.01910112 130.559207,7.01910112 C127.786969,7.01910112 126.730878,9.25393258 126.730878,11.8831461 L126.730878,17.2730337 C126.730878,17.4044944 126.598867,17.5359551 126.466856,17.5359551 L125.410765,17.5359551 C125.278754,17.5359551 125.146742,17.4044944 125.146742,17.2730337 L125.146742,0.446067416 C125.146742,0.314606742 125.278754,0.183146067 125.410765,0.183146067 L126.598867,0.183146067 C126.730878,0.183146067 126.86289,0.314606742 126.86289,0.446067416 L126.86289,4.91573034 L126.86289,4.91573034 Z"></path>
                    <path d="M139.667989,5.83595506 C140.328045,5.57303371 141.252125,5.44157303 142.308215,5.44157303 C145.344476,5.44157303 147.192635,7.28202247 147.192635,10.1741573 L147.192635,17.141573 C147.192635,17.2730337 147.060623,17.4044944 146.928612,17.4044944 L146.136544,17.4044944 C146.004533,17.4044944 145.872521,17.2730337 145.872521,17.141573 L145.74051,16.0898876 C145.608499,15.8269663 145.476487,15.8269663 145.212465,16.0898876 C144.420397,17.141573 143.100283,17.6674157 141.252125,17.6674157 C138.743909,17.6674157 137.291785,16.352809 137.291785,14.1179775 C137.291785,12.0146067 138.743909,10.5685393 141.648159,10.5685393 L145.344476,10.5685393 L145.344476,10.305618 C145.344476,8.20224719 144.156374,7.01910112 142.044193,7.01910112 C141.120113,7.01910112 140.460057,7.1505618 139.8,7.28202247 L139.007932,7.54494382 C138.875921,7.54494382 138.743909,7.54494382 138.743909,7.41348315 L138.479887,6.49325843 C138.479887,6.36179775 138.479887,6.23033708 138.611898,6.23033708 L139.667989,5.83595506 L139.667989,5.83595506 Z M141.912181,11.8831461 C140.064023,11.8831461 139.139943,12.6719101 139.139943,13.9865169 C139.139943,15.3011236 140.064023,16.2213483 141.648159,16.2213483 C144.156374,16.2213483 145.608499,14.7752809 145.608499,12.2775281 L145.608499,12.0146067 L141.912181,12.0146067 L141.912181,11.8831461 Z"></path>
                    <path d="M155.113314,5.70449438 C155.245326,5.70449438 155.377337,5.83595506 155.377337,5.96741573 L155.377337,7.01910112 C155.377337,7.1505618 155.245326,7.28202247 155.113314,7.28202247 L152.341076,7.28202247 L152.341076,14.6438202 C152.341076,15.6955056 152.869122,16.2213483 153.66119,16.2213483 C153.925212,16.2213483 154.057224,16.2213483 154.321246,16.0898876 C154.453258,16.0898876 154.585269,16.0898876 154.585269,16.2213483 L154.981303,17.141573 C154.981303,17.2730337 154.981303,17.4044944 154.849292,17.4044944 C154.453258,17.5359551 154.057224,17.6674157 153.66119,17.6674157 C151.813031,17.6674157 150.756941,16.4842697 150.756941,14.6438202 L150.756941,7.28202247 L149.568839,7.28202247 C149.436827,7.28202247 149.304816,7.1505618 149.304816,7.01910112 L149.304816,5.96741573 C149.304816,5.83595506 149.436827,5.70449438 149.568839,5.70449438 L150.756941,5.70449438 L150.756941,2.81235955 C150.756941,2.68089888 150.756941,2.5494382 150.888952,2.5494382 L152.077054,2.15505618 C152.209065,2.15505618 152.341076,2.15505618 152.341076,2.41797753 L152.341076,5.83595506 L155.113314,5.83595506 L155.113314,5.70449438 Z"></path>
                    <path d="M158.809632,1.49775281 C158.809632,2.15505618 158.67762,3.20674157 158.545609,3.99550562 C158.545609,4.12696629 158.413598,4.25842697 158.281586,4.25842697 L157.62153,4.25842697 C157.489518,4.25842697 157.357507,4.12696629 157.357507,4.12696629 C157.225496,3.33820225 157.093484,2.28651685 157.093484,1.62921348 L157.093484,0.57752809 C157.093484,0.446067416 157.225496,0.314606742 157.357507,0.314606742 L158.545609,0.314606742 C158.67762,0.314606742 158.809632,0.446067416 158.809632,0.57752809 L158.809632,1.49775281 L158.809632,1.49775281 Z"></path>
                    <path d="M163.56204,11.7516854 C161.713881,11.2258427 160.921813,10.305618 160.921813,8.72808989 C160.921813,6.75617978 162.505949,5.57303371 165.146176,5.57303371 C166.202266,5.57303371 167.258357,5.70449438 168.050425,5.96741573 L168.974504,6.23033708 C169.106516,6.23033708 169.106516,6.36179775 169.106516,6.49325843 L168.842493,7.41348315 C168.842493,7.54494382 168.710482,7.54494382 168.57847,7.54494382 L167.654391,7.28202247 C166.994334,7.1505618 166.070255,7.01910112 165.146176,7.01910112 C163.430028,7.01910112 162.505949,7.67640449 162.505949,8.72808989 C162.505949,9.51685393 163.033994,10.1741573 164.090085,10.4370787 L166.994334,11.2258427 C168.842493,11.7516854 169.766572,12.8033708 169.766572,14.3808989 C169.766572,16.4842697 168.182436,17.7988764 165.278187,17.7988764 C163.826062,17.7988764 162.63796,17.6674157 161.58187,17.2730337 L160.921813,17.0101124 C160.789802,17.0101124 160.789802,16.8786517 160.789802,16.747191 L161.185836,15.8269663 C161.185836,15.6955056 161.317847,15.6955056 161.449858,15.6955056 L162.109915,15.958427 C162.901983,16.2213483 164.090085,16.4842697 165.410198,16.4842697 C167.258357,16.4842697 168.314448,15.6955056 168.314448,14.5123596 C168.314448,13.5921348 167.786402,13.0662921 166.730312,12.6719101 L163.56204,11.7516854 L163.56204,11.7516854 Z"></path>
                    <path d="M195.112748,13.4606742 C194.716714,14.9067416 194.32068,16.0898876 194.056657,17.2730337 C194.056657,17.4044944 193.924646,17.4044944 193.792635,17.4044944 L192.472521,17.4044944 C192.34051,17.4044944 192.208499,17.2730337 192.208499,17.2730337 C191.944476,16.352809 191.548442,15.1696629 191.284419,14.2494382 L189.832295,10.1741573 C189.700283,9.77977528 189.568272,9.25393258 189.436261,8.85955056 C189.304249,8.59662921 189.172238,8.59662921 189.040227,8.85955056 C188.908215,9.25393258 188.908215,9.77977528 188.644193,10.1741573 L187.192068,14.2494382 C186.796034,15.1696629 186.532011,16.352809 186.267989,17.2730337 C186.267989,17.4044944 186.135977,17.4044944 186.003966,17.4044944 L184.683853,17.4044944 C184.551841,17.4044944 184.41983,17.2730337 184.41983,17.2730337 C184.155807,16.0898876 183.759773,14.9067416 183.363739,13.4606742 L180.987535,5.96741573 C180.987535,5.83595506 180.987535,5.70449438 181.119547,5.70449438 L182.307649,5.70449438 C182.43966,5.70449438 182.571671,5.70449438 182.571671,5.83595506 L184.551841,12.0146067 C184.947875,13.1977528 185.079887,14.1179775 185.343909,14.9067416 C185.343909,15.1696629 185.607932,15.1696629 185.607932,14.9067416 C185.739943,14.1179775 186.135977,13.0662921 186.532011,11.8831461 L188.644193,5.83595506 C188.644193,5.70449438 188.776204,5.70449438 188.908215,5.70449438 L189.568272,5.70449438 C189.700283,5.70449438 189.832295,5.70449438 189.832295,5.83595506 L191.944476,11.8831461 C192.34051,13.0662921 192.604533,14.1179775 192.868555,14.9067416 C192.868555,15.1696629 193.132578,15.1696629 193.132578,14.9067416 C193.264589,14.1179775 193.528612,13.1977528 193.792635,12.0146067 L195.772805,5.83595506 C195.772805,5.70449438 195.904816,5.70449438 196.036827,5.70449438 L197.224929,5.70449438 C197.356941,5.70449438 197.488952,5.83595506 197.356941,5.96741573 L195.112748,13.4606742 L195.112748,13.4606742 Z"></path>
                    <path d="M209.766006,11.6202247 C209.766006,15.4325843 207.785836,17.6674157 204.485552,17.6674157 C201.185269,17.6674157 199.205099,15.3011236 199.205099,11.6202247 C199.205099,7.93932584 201.185269,5.57303371 204.485552,5.57303371 C207.653824,5.44157303 209.766006,7.80786517 209.766006,11.6202247 L209.766006,11.6202247 Z M200.657224,11.6202247 C200.657224,14.5123596 202.109348,16.2213483 204.353541,16.2213483 C206.729745,16.2213483 208.18187,14.5123596 208.18187,11.6202247 C208.18187,8.72808989 206.729745,7.01910112 204.353541,7.01910112 C201.977337,7.01910112 200.657224,8.72808989 200.657224,11.6202247 L200.657224,11.6202247 Z"></path>
                    <path d="M218.346742,6.75617978 C218.346742,6.88764045 218.214731,7.01910112 218.08272,7.01910112 C215.442493,7.1505618 213.990368,9.38539326 213.990368,13.4606742 L213.990368,17.2730337 C213.990368,17.4044944 213.858357,17.5359551 213.726346,17.5359551 L212.538244,17.5359551 C212.406232,17.5359551 212.274221,17.4044944 212.274221,17.2730337 L212.274221,5.96741573 C212.274221,5.83595506 212.406232,5.70449438 212.538244,5.70449438 L213.330312,5.70449438 C213.462323,5.70449438 213.594334,5.83595506 213.594334,5.96741573 L213.726346,7.80786517 C213.726346,7.93932584 213.858357,8.07078652 213.990368,7.80786517 C214.914448,6.36179775 216.10255,5.57303371 217.950708,5.44157303 C218.08272,5.44157303 218.214731,5.57303371 218.214731,5.70449438 L218.214731,6.75617978 L218.346742,6.75617978 Z"></path>
                    <path d="M226.135411,5.70449438 C226.267422,5.70449438 226.399433,5.83595506 226.399433,5.96741573 L226.399433,7.01910112 C226.399433,7.1505618 226.267422,7.28202247 226.135411,7.28202247 L223.363173,7.28202247 L223.363173,14.6438202 C223.363173,15.6955056 223.891218,16.2213483 224.683286,16.2213483 C224.947309,16.2213483 225.07932,16.2213483 225.343343,16.0898876 C225.475354,16.0898876 225.607365,16.0898876 225.607365,16.2213483 L226.003399,17.141573 C226.003399,17.2730337 226.003399,17.4044944 225.871388,17.4044944 C225.475354,17.5359551 225.07932,17.6674157 224.683286,17.6674157 C222.835127,17.6674157 221.779037,16.4842697 221.779037,14.6438202 L221.779037,7.28202247 L220.590935,7.28202247 C220.458924,7.28202247 220.326912,7.1505618 220.326912,7.01910112 L220.326912,5.96741573 C220.326912,5.83595506 220.458924,5.70449438 220.590935,5.70449438 L221.779037,5.70449438 L221.779037,2.81235955 C221.779037,2.68089888 221.779037,2.5494382 221.911048,2.5494382 L223.09915,2.15505618 C223.231161,2.15505618 223.363173,2.15505618 223.363173,2.41797753 L223.363173,5.83595506 L226.135411,5.83595506 L226.135411,5.70449438 Z"></path>
                    <path d="M230.491785,4.91573034 C230.491785,5.96741573 230.359773,6.6247191 230.227762,7.41348315 C230.227762,7.67640449 230.359773,7.67640449 230.491785,7.54494382 C231.283853,6.36179775 232.603966,5.57303371 234.320113,5.57303371 C236.96034,5.57303371 238.676487,7.41348315 238.676487,10.305618 L238.676487,17.2730337 C238.676487,17.4044944 238.544476,17.5359551 238.412465,17.5359551 L237.224363,17.5359551 C237.092351,17.5359551 236.96034,17.4044944 236.96034,17.2730337 L236.96034,10.4370787 C236.96034,8.33370787 235.904249,7.01910112 234.056091,7.01910112 C231.283853,7.01910112 230.227762,9.25393258 230.227762,11.8831461 L230.227762,17.2730337 C230.227762,17.4044944 230.095751,17.5359551 229.963739,17.5359551 L228.775637,17.5359551 C228.643626,17.5359551 228.511615,17.4044944 228.511615,17.2730337 L228.511615,0.446067416 C228.511615,0.314606742 228.643626,0.183146067 228.775637,0.183146067 L229.963739,0.183146067 C230.095751,0.183146067 230.227762,0.314606742 230.227762,0.446067416 L230.227762,4.91573034 L230.491785,4.91573034 Z"></path>
                </g>
            </g>
        </g>
    </g>
</svg>