<?xml version="1.0" encoding="UTF-8" standalone="no"?>
<svg width="574px" height="410px" viewBox="0 0 574 410" version="1.1" xmlns="http://www.w3.org/2000/svg" xmlns:xlink="http://www.w3.org/1999/xlink">
    <!-- Generator: Sketch 40.1 (33804) - http://www.bohemiancoding.com/sketch -->
    <title>Group 4</title>
    <desc>Created with Sketch.</desc>
    <defs></defs>
    <g id="Page-1" stroke="none" stroke-width="1" fill="none" fill-rule="evenodd">
        <g id="Group-4">
            <rect id="Rectangle-2" fill="#FFFFFF" x="0" y="0" width="574" height="410"></rect>
            <g id="sellsuki" transform="translate(16.000000, 144.000000)">
                <g id="Layer_1">
                    <g id="Group">
                        <g transform="translate(148.701587, 24.111111)" id="Shape">
                            <path d="M391.09619,9.81666667 C391.09619,15.1555556 386.80254,19.2888889 381.650159,19.2888889 C376.326032,19.2888889 372.204127,14.9833333 372.204127,9.81666667 C372.204127,4.65 376.497778,0.344444444 381.650159,0.344444444 C386.974286,0.344444444 391.09619,4.65 391.09619,9.81666667 L391.09619,9.81666667 Z" fill="#53C8E5"></path>
                            <g transform="translate(0.000000, 10.333333)">
                                <path d="M56.8784127,46.1555556 C56.8784127,49.9444444 55.8479365,53.5611111 53.6152381,56.4888889 C51.3825397,59.5888889 48.1193651,62 43.8257143,63.7222222 C39.5320635,65.4444444 34.3796825,66.3055556 28.5403175,66.3055556 C21.4987302,66.3055556 15.6593651,65.1 11.0222222,62.6888889 C7.75904762,60.9666667 5.18285714,58.7277778 3.12190476,55.8 C1.06095238,52.8722222 0.0304761905,50.1166667 0.0304761905,47.5333333 C0.0304761905,45.9833333 0.717460317,44.6055556 1.91968254,43.5722222 C3.12190476,42.5388889 4.66761905,41.85 6.5568254,41.85 C8.10253968,41.85 9.3047619,42.3666667 10.5069841,43.2277778 C11.5374603,44.0888889 12.3961905,45.4666667 13.2549206,47.0166667 C14.1136508,49.0833333 15.144127,50.8055556 16.1746032,52.1833333 C17.2050794,53.5611111 18.7507937,54.5944444 20.64,55.6277778 C22.5292063,56.4888889 25.1053968,57.0055556 28.1968254,57.0055556 C32.4904762,57.0055556 35.9253968,56.1444444 38.6733333,54.25 C41.4212698,52.5277778 42.6234921,50.2888889 42.6234921,47.5333333 C42.6234921,45.4666667 41.9365079,43.7444444 40.3907937,42.3666667 C39.0168254,40.9888889 37.127619,39.9555556 34.7231746,39.2666667 C32.4904762,38.5777778 29.3990476,37.8888889 25.6206349,37.0277778 C20.468254,35.9944444 16.1746032,34.6166667 12.7396825,33.2388889 C9.3047619,31.8611111 6.5568254,29.7944444 4.49587302,27.3833333 C2.43492063,24.9722222 1.40444444,21.8722222 1.40444444,18.0833333 C1.40444444,14.6388889 2.43492063,11.5388889 4.66761905,8.78333333 C6.72857143,6.02777778 9.99174603,3.96111111 13.9419048,2.58333333 C18.0638095,1.03333333 22.7009524,0.344444444 28.1968254,0.344444444 C32.6622222,0.344444444 36.4406349,0.861111111 39.5320635,1.72222222 C42.7952381,2.75555556 45.3714286,3.96111111 47.432381,5.51111111 C49.4933333,7.06111111 51.0390476,8.78333333 52.0695238,10.5055556 C53.1,12.2277778 53.6152381,13.95 53.6152381,15.6722222 C53.6152381,17.2222222 52.928254,18.6 51.7260317,19.8055556 C50.5238095,21.0111111 48.9780952,21.7 47.2606349,21.7 C45.5431746,21.7 44.3409524,21.3555556 43.4822222,20.6666667 C42.6234921,19.9777778 41.7647619,18.7722222 40.7342857,17.05 C39.3603175,14.6388889 37.8146032,12.7444444 36.0971429,11.3666667 C34.2079365,9.98888889 31.288254,9.3 27.3380952,9.3 C23.5596825,9.3 20.64,9.98888889 18.2355556,11.5388889 C16.0028571,13.0888889 14.8006349,14.8111111 14.8006349,16.8777778 C14.8006349,18.0833333 15.144127,19.2888889 16.0028571,20.15 C16.8615873,21.0111111 17.8920635,21.8722222 19.2660317,22.5611111 C20.64,23.25 22.0139683,23.7666667 23.3879365,24.1111111 C24.7619048,24.4555556 27.1663492,24.9722222 30.2577778,25.8333333 C34.2079365,26.6944444 37.9863492,27.5555556 41.2495238,28.5888889 C44.5126984,29.6222222 47.2606349,30.8277778 49.4933333,32.2055556 C51.7260317,33.5833333 53.6152381,35.4777778 54.8174603,37.7166667 C56.1914286,40.1277778 56.8784127,42.8833333 56.8784127,46.1555556 L56.8784127,46.1555556 Z" fill="#231F20"></path>
                                <path d="M105.310794,45.1222222 L79.3771429,45.1222222 C79.3771429,47.8777778 80.064127,50.1166667 81.2663492,52.1833333 C82.4685714,54.25 84.0142857,55.8 86.0752381,56.8333333 C87.9644444,57.8666667 90.1971429,58.3833333 92.6015873,58.3833333 C94.1473016,58.3833333 95.6930159,58.2111111 96.8952381,57.8666667 C98.2692063,57.5222222 99.4714286,57.0055556 100.673651,56.3166667 C101.875873,55.6277778 103.078095,54.7666667 104.108571,54.0777778 C105.139048,53.2166667 106.513016,52.1833333 108.230476,50.8055556 C108.91746,50.2888889 109.947937,49.9444444 111.150159,49.9444444 C112.524127,49.9444444 113.554603,50.2888889 114.413333,50.9777778 C115.272063,51.6666667 115.615556,52.5277778 115.615556,53.7333333 C115.615556,54.7666667 115.100317,55.9722222 114.241587,57.5222222 C113.382857,58.9 111.837143,60.2777778 109.947937,61.6555556 C108.05873,63.0333333 105.654286,64.0666667 102.734603,64.9277778 C99.8149206,65.7888889 96.551746,66.3055556 92.7733333,66.3055556 C84.1860317,66.3055556 77.6596825,64.0666667 72.8507937,59.7611111 C68.0419048,55.4555556 65.8092063,49.6 65.8092063,42.0222222 C65.8092063,38.5777778 66.3244444,35.3055556 67.5266667,32.2055556 C68.7288889,29.2777778 70.4463492,26.6944444 72.6790476,24.4555556 C74.911746,22.3888889 77.6596825,20.6666667 80.9228571,19.4611111 C84.1860317,18.2555556 87.7926984,17.7388889 91.9146032,17.7388889 C97.0669841,17.7388889 101.532381,18.7722222 105.310794,20.6666667 C109.089206,22.5611111 111.837143,25.1444444 113.726349,28.2444444 C115.615556,31.3444444 116.474286,34.4444444 116.474286,37.7166667 C116.474286,40.6444444 115.44381,42.7111111 113.554603,43.5722222 C111.493651,44.6055556 108.745714,45.1222222 105.310794,45.1222222 L105.310794,45.1222222 Z M79.2053968,38.4055556 L103.249841,38.4055556 C102.906349,34.2722222 101.704127,31.3444444 99.6431746,29.2777778 C97.5822222,27.2111111 94.6625397,26.1777778 91.227619,26.1777778 C87.9644444,26.1777778 85.2165079,27.2111111 82.9838095,29.2777778 C81.0946032,31.3444444 79.7206349,34.2722222 79.2053968,38.4055556 L79.2053968,38.4055556 Z" fill="#231F20"></path>
                                <path d="M127.466032,59.0722222 L127.466032,7.57777778 C127.466032,5.16666667 127.98127,3.44444444 129.183492,2.23888889 C130.385714,1.03333333 131.931429,0.344444444 133.992381,0.344444444 C136.053333,0.344444444 137.599048,1.03333333 138.80127,2.06666667 C140.003492,3.27222222 140.690476,4.99444444 140.690476,7.40555556 L140.690476,58.9 C140.690476,61.3111111 140.003492,63.0333333 138.80127,64.2388889 C137.599048,65.4444444 135.881587,66.1333333 133.992381,66.1333333 C132.103175,66.1333333 130.385714,65.4444444 129.183492,64.2388889 C127.98127,63.2055556 127.466032,61.4833333 127.466032,59.0722222 L127.466032,59.0722222 Z" fill="#231F20"></path>
                                <path d="M154.430159,59.0722222 L154.430159,7.57777778 C154.430159,5.16666667 154.945397,3.44444444 156.147619,2.23888889 C157.349841,1.03333333 158.895556,0.344444444 160.956508,0.344444444 C163.01746,0.344444444 164.563175,1.03333333 165.765397,2.06666667 C166.967619,3.27222222 167.654603,4.99444444 167.654603,7.40555556 L167.654603,58.9 C167.654603,61.3111111 166.967619,63.0333333 165.765397,64.2388889 C164.563175,65.4444444 162.845714,66.1333333 160.956508,66.1333333 C159.067302,66.1333333 157.349841,65.4444444 156.147619,64.2388889 C155.117143,63.2055556 154.430159,61.4833333 154.430159,59.0722222 L154.430159,59.0722222 Z" fill="#231F20"></path>
                                <path d="M224.330794,50.8055556 C224.330794,54.0777778 223.472063,56.8333333 221.582857,59.2444444 C219.865397,61.6555556 217.11746,63.3777778 213.68254,64.5833333 C210.247619,65.7888889 205.953968,66.4777778 200.973333,66.4777778 C196.164444,66.4777778 192.04254,65.7888889 188.779365,64.5833333 C185.344444,63.2055556 182.768254,61.6555556 181.22254,59.7611111 C179.676825,57.8666667 178.818095,55.8 178.818095,53.9055556 C178.818095,52.5277778 179.333333,51.4944444 180.36381,50.6333333 C181.394286,49.7722222 182.768254,49.2555556 184.313968,49.2555556 C185.687937,49.2555556 186.718413,49.6 187.577143,50.1166667 C188.264127,50.8055556 188.951111,51.4944444 189.638095,52.7 C191.012063,54.7666667 192.557778,56.3166667 194.446984,57.5222222 C196.33619,58.5555556 198.912381,59.0722222 202.175556,59.0722222 C204.923492,59.0722222 206.984444,58.5555556 208.701905,57.5222222 C210.419365,56.4888889 211.278095,55.2833333 211.278095,53.9055556 C211.278095,51.8388889 210.419365,50.2888889 208.701905,49.2555556 C206.984444,48.2222222 204.064762,47.3611111 199.942857,46.5 C195.305714,45.4666667 191.699048,44.4333333 188.779365,43.2277778 C185.859683,42.1944444 183.626984,40.6444444 181.909524,38.75 C180.192063,36.8555556 179.333333,34.6166667 179.333333,32.0333333 C179.333333,29.6222222 180.192063,27.3833333 181.737778,25.3166667 C183.283492,23.25 185.687937,21.5277778 188.779365,20.3222222 C191.870794,19.1166667 195.649206,18.4277778 199.942857,18.4277778 C203.377778,18.4277778 206.469206,18.7722222 209.217143,19.4611111 C211.965079,20.15 214.197778,21.0111111 216.086984,22.0444444 C217.97619,23.0777778 219.350159,24.2833333 220.208889,25.6611111 C221.239365,27.0388889 221.582857,28.2444444 221.582857,29.45 C221.582857,30.8277778 221.067619,31.8611111 220.037143,32.7222222 C219.006667,33.5833333 217.632698,34.1 215.743492,34.1 C214.369524,34.1 213.167302,33.7555556 212.308571,33.0666667 C211.278095,32.3777778 210.247619,31.3444444 209.045397,29.9666667 C208.014921,28.7611111 206.812698,27.9 205.43873,27.2111111 C204.064762,26.5222222 202.175556,26.1777778 199.942857,26.1777778 C197.538413,26.1777778 195.47746,26.6944444 193.931746,27.5555556 C192.386032,28.4166667 191.527302,29.6222222 191.527302,31 C191.527302,32.2055556 192.04254,33.2388889 193.244762,34.1 C194.446984,34.9611111 195.992698,35.4777778 198.053651,36.1666667 C200.114603,36.6833333 202.690794,37.3722222 206.29746,38.0611111 C210.419365,38.9222222 213.854286,39.9555556 216.430476,41.3333333 C219.006667,42.5388889 221.067619,44.0888889 222.441587,45.8111111 C223.64381,46.6722222 224.330794,48.5666667 224.330794,50.8055556 L224.330794,50.8055556 Z" fill="#F9A020"></path>
                                <path d="M270.015238,59.5888889 L270.015238,58.0388889 C268.469524,59.7611111 266.752063,61.3111111 265.034603,62.5166667 C263.317143,63.7222222 261.427937,64.5833333 259.366984,65.2722222 C257.306032,65.7888889 254.901587,66.1333333 252.325397,66.1333333 C249.062222,66.1333333 246.314286,65.6166667 243.738095,64.4111111 C241.161905,63.2055556 239.272698,61.6555556 237.89873,59.4166667 C236.18127,56.8333333 235.494286,53.2166667 235.494286,48.5666667 L235.494286,24.9722222 C235.494286,22.5611111 236.009524,20.8388889 237.383492,19.6333333 C238.585714,18.4277778 240.131429,17.9111111 242.192381,17.9111111 C244.253333,17.9111111 245.799048,18.4277778 247.00127,19.6333333 C248.203492,20.8388889 248.890476,22.5611111 248.890476,24.9722222 L248.890476,43.9166667 C248.890476,46.6722222 249.233968,48.9111111 249.749206,50.8055556 C250.264444,52.7 251.123175,54.0777778 252.497143,55.2833333 C253.871111,56.3166667 255.588571,56.8333333 257.993016,56.8333333 C260.225714,56.8333333 262.286667,56.3166667 264.347619,55.1111111 C266.408571,53.9055556 267.78254,52.3555556 268.64127,50.4611111 C269.328254,48.7388889 269.843492,45.1222222 269.843492,39.4388889 L269.843492,24.9722222 C269.843492,22.5611111 270.530476,20.8388889 271.732698,19.6333333 C272.934921,18.4277778 274.652381,17.9111111 276.541587,17.9111111 C278.60254,17.9111111 280.148254,18.4277778 281.350476,19.6333333 C282.552698,20.8388889 283.239683,22.5611111 283.239683,24.9722222 L283.239683,59.4166667 C283.239683,61.6555556 282.724444,63.3777778 281.522222,64.5833333 C280.32,65.7888889 278.946032,66.3055556 277.056825,66.3055556 C275.167619,66.3055556 273.793651,65.7888889 272.591429,64.5833333 C270.702222,63.3777778 270.015238,61.6555556 270.015238,59.5888889 L270.015238,59.5888889 Z" fill="#F9A020"></path>
                                <path d="M328.924127,60.9666667 L317.245397,43.7444444 L310.032063,49.7722222 L310.032063,59.2444444 C310.032063,61.4833333 309.345079,63.3777778 307.971111,64.5833333 C306.597143,65.7888889 305.051429,66.4777778 303.333968,66.4777778 C301.273016,66.4777778 299.727302,65.7888889 298.525079,64.5833333 C297.322857,63.3777778 296.807619,61.4833333 296.807619,59.2444444 L296.807619,8.61111111 C296.807619,6.02777778 297.322857,3.96111111 298.525079,2.58333333 C299.727302,1.20555556 301.273016,0.516666667 303.333968,0.516666667 C305.394921,0.516666667 306.940635,1.20555556 308.142857,2.41111111 C309.345079,3.61666667 310.032063,5.51111111 310.032063,7.92222222 L310.032063,36.6833333 L324.973968,22.7333333 C326.863175,21.0111111 328.237143,19.8055556 329.267619,19.1166667 C330.298095,18.4277778 331.500317,18.0833333 332.874286,18.0833333 C334.591746,18.0833333 335.965714,18.6 336.99619,19.4611111 C338.026667,20.3222222 338.713651,21.5277778 338.713651,23.0777778 C338.713651,24.8 336.99619,27.2111111 333.389524,29.9666667 L326.347937,35.8222222 L339.915873,54.9388889 C340.946349,56.3166667 341.633333,57.5222222 342.148571,58.2111111 C342.66381,58.9 342.835556,59.5888889 342.835556,60.2777778 C342.835556,62.1722222 342.320317,63.7222222 341.118095,64.7555556 C339.915873,65.7888889 338.370159,66.3055556 336.480952,66.3055556 C334.935238,66.3055556 333.56127,65.9611111 332.70254,65.1 C331.672063,64.4111111 330.469841,62.8611111 328.924127,60.9666667 L328.924127,60.9666667 Z" fill="#F9A020"></path>
                                <path d="M363.788571,24.8 L363.788571,59.0722222 C363.788571,61.4833333 363.101587,63.2055556 361.899365,64.4111111 C360.697143,65.6166667 358.979683,66.3055556 357.090476,66.3055556 C355.20127,66.3055556 353.48381,65.6166667 352.281587,64.4111111 C351.079365,63.2055556 350.392381,61.3111111 350.392381,59.0722222 L350.392381,25.1444444 C350.392381,22.7333333 351.079365,21.0111111 352.281587,19.8055556 C353.48381,18.6 355.029524,18.0833333 357.090476,18.0833333 C358.979683,18.0833333 360.697143,18.6 361.899365,19.8055556 C363.101587,21.0111111 363.788571,22.7333333 363.788571,24.8 L363.788571,24.8 Z" fill="#F9A020"></path>
                            </g>
                        </g>
                        <g id="Shape">
                            <g>
                                <path d="M125.889841,11.5388889 C124.515873,6.37222222 121.939683,1.55 116.100317,1.03333333 C110.260952,0.516666667 104.421587,3.27222222 99.9561905,6.88888889 C97.38,8.95555556 94.4603175,11.0222222 91.712381,12.9166667 C81.9228571,19.2888889 75.2247619,18.4277778 75.2247619,18.4277778 C75.2247619,18.4277778 68.8701587,19.2888889 59.0806349,12.9166667 C56.1609524,11.0222222 53.7565079,8.95555556 51.0085714,6.88888889 C46.5431746,3.27222222 40.8755556,0.516666667 34.8644444,1.03333333 C29.0250794,1.55 26.4488889,6.37222222 25.0749206,11.5388889 C25.0749206,11.5388889 21.9834921,20.15 22.4987302,59.5888889 C22.4987302,59.5888889 22.3269841,89.3833333 25.7619048,96.7888889 C25.7619048,96.7888889 33.3187302,123.827778 75.2247619,124 C117.130794,123.827778 124.859365,96.7888889 124.859365,96.7888889 C128.12254,89.3833333 128.294286,59.5888889 128.294286,59.5888889 C128.98127,20.15 125.889841,11.5388889 125.889841,11.5388889 L125.889841,11.5388889 Z" fill="#010101"></path>
                                <path d="M98.7539683,19.6333333 C98.7539683,19.6333333 111.634921,24.1111111 120.050476,32.8944444 C120.050476,32.8944444 120.909206,33.7555556 121.59619,33.7555556 C121.252698,28.7611111 121.939683,23.7666667 121.424444,18.7722222 C121.252698,17.2222222 121.252698,15.5 120.73746,13.95 C120.393968,12.5722222 119.706984,10.85 118.504762,9.98888889 C116.272063,8.61111111 112.665397,9.81666667 110.432698,10.85 C106.48254,12.9166667 103.391111,15.8444444 99.9561905,18.6 C99.9561905,18.7722222 99.0974603,19.8055556 98.7539683,19.6333333 L98.7539683,19.6333333 Z" fill="#F9A020"></path>
                                <path d="M115.928571,15.8444444 C110.089206,12.7444444 102.360635,20.8388889 102.188889,21.0111111 C106.48254,22.9055556 113.867619,26.6944444 119.706984,32.55 C119.706984,32.0333333 119.87873,31 119.87873,30.8277778 C119.87873,30.1388889 119.87873,29.45 120.050476,28.5888889 C119.87873,24.2833333 120.222222,18.0833333 115.928571,15.8444444 L115.928571,15.8444444 Z" fill="#FFFFFF"></path>
                                <path d="M121.767937,66.65 C121.767937,66.65 122.283175,40.8166667 103.906349,31.3444444 C103.906349,31.3444444 91.884127,24.4555556 75.74,24.9722222 C59.595873,24.4555556 47.5736508,31.3444444 47.5736508,31.3444444 C29.1968254,40.8166667 29.7120635,66.65 29.7120635,66.65 C27.9946032,98.5111111 39.3298413,104.538889 39.3298413,104.538889 C44.6539683,110.05 52.5542857,107.811111 52.5542857,107.811111 C67.4961905,102.816667 72.6485714,96.9611111 72.6485714,91.7944444 C72.6485714,85.7666667 66.1222222,84.9055556 62.8590476,82.15 C59.595873,79.3944444 59.767619,74.9166667 59.767619,74.9166667 C59.767619,74.9166667 59.9393651,74.4 60.7980952,73.8833333 C62.1720635,72.85 65.9504762,71.4722222 75.74,71.4722222 L75.911746,71.4722222 L76.0834921,71.4722222 L76.0834921,71.4722222 C91.1971429,71.4722222 92.055873,74.9166667 92.055873,74.9166667 C92.055873,74.9166667 92.227619,79.3944444 88.9644444,82.15 C85.7012698,84.9055556 79.0031746,85.7666667 79.0031746,92.4833333 L79.0031746,92.4833333 C79.5184127,97.4777778 84.6707937,102.988889 99.0974603,107.811111 C99.0974603,107.811111 106.997778,110.05 112.321905,104.538889 C112.150159,104.711111 123.485397,98.6833333 121.767937,66.65 L121.767937,66.65 Z" fill="#F9A020"></path>
                                <path d="M112.837143,19.8055556 C113.008889,19.6333333 113.180635,19.6333333 113.524127,19.6333333 C114.382857,19.8055556 113.695873,21.8722222 113.524127,22.3888889 C113.352381,23.5944444 113.008889,24.8 113.008889,26.0055556 C113.008889,26.35 113.008889,27.0388889 113.352381,27.2111111 C113.352381,27.2111111 107.513016,23.5944444 106.139048,23.25 C107.684762,23.7666667 109.05873,22.9055556 110.260952,22.0444444 C110.77619,21.7 111.119683,21.3555556 111.634921,21.0111111 C111.806667,20.8388889 112.150159,20.6666667 112.321905,20.4944444 C112.493651,20.15 112.665397,19.9777778 112.837143,19.8055556 L112.837143,19.8055556 Z" fill="#010101"></path>
                                <path d="M103.734603,31.3444444 C103.734603,31.3444444 91.712381,24.4555556 75.568254,24.9722222 C59.424127,24.4555556 47.4019048,31.3444444 47.4019048,31.3444444 C39.1580952,35.65 34.6926984,43.0555556 32.288254,49.9444444 L118.676508,49.9444444 C116.44381,43.0555556 111.978413,35.65 103.734603,31.3444444 L103.734603,31.3444444 Z" fill="#2BC4F2"></path>
                                <path d="M109.573968,66.9944444 C109.573968,64.2388889 107.34127,61.8277778 104.593333,61.8277778 C101.845397,61.8277778 99.6126984,64.0666667 99.6126984,66.9944444 C99.6126984,69.75 101.845397,71.9888889 104.593333,71.9888889 C107.34127,72.1611111 109.573968,69.75 109.573968,66.9944444 L109.573968,66.9944444 Z" fill="#010101"></path>
                                <path d="M108.715238,54.7666667 C109.05873,56.3166667 107.513016,58.0388889 105.108571,58.5555556 C102.704127,59.2444444 100.471429,58.5555556 99.9561905,57.0055556 C99.6126984,55.4555556 101.158413,53.7333333 103.562857,53.2166667 C106.139048,52.5277778 108.371746,53.2166667 108.715238,54.7666667 L108.715238,54.7666667 Z" fill="#FFFFFF"></path>
                                <path d="M52.5542857,19.6333333 C52.5542857,19.6333333 39.6733333,24.1111111 31.2577778,32.8944444 C31.2577778,32.8944444 30.3990476,33.7555556 29.7120635,33.7555556 C30.0555556,28.7611111 29.3685714,23.7666667 29.8838095,18.7722222 C30.0555556,17.2222222 30.0555556,15.5 30.5707937,13.95 C30.9142857,12.5722222 31.6012698,10.85 32.8034921,9.98888889 C35.0361905,8.61111111 38.6428571,9.81666667 40.8755556,10.85 C44.8257143,12.9166667 47.9171429,15.8444444 51.3520635,18.6 C51.3520635,18.7722222 52.2107937,19.8055556 52.5542857,19.6333333 L52.5542857,19.6333333 Z" fill="#F9A020"></path>
                                <path d="M35.3796825,15.8444444 C41.2190476,12.7444444 48.947619,20.8388889 49.1193651,21.0111111 C44.8257143,22.9055556 37.4406349,26.6944444 31.6012698,32.55 C31.6012698,32.0333333 31.4295238,31 31.4295238,30.8277778 C31.4295238,30.1388889 31.4295238,29.45 31.2577778,28.5888889 C31.4295238,24.2833333 31.0860317,18.0833333 35.3796825,15.8444444 L35.3796825,15.8444444 Z" fill="#FFFFFF"></path>
                                <path d="M38.4711111,19.8055556 C38.2993651,19.6333333 38.127619,19.6333333 37.784127,19.6333333 C36.9253968,19.8055556 37.612381,21.8722222 37.784127,22.3888889 C37.955873,23.5944444 38.2993651,24.8 38.2993651,26.0055556 C38.2993651,26.35 38.2993651,27.0388889 37.955873,27.2111111 C37.955873,27.2111111 43.7952381,23.5944444 45.1692063,23.25 C43.6234921,23.7666667 42.2495238,22.9055556 41.0473016,22.0444444 C40.5320635,21.7 40.1885714,21.3555556 39.6733333,21.0111111 C39.5015873,20.8388889 39.1580952,20.6666667 38.9863492,20.4944444 C38.8146032,20.15 38.6428571,19.9777778 38.4711111,19.8055556 L38.4711111,19.8055556 Z" fill="#010101"></path>
                                <path d="M41.7342857,66.9944444 C41.7342857,64.2388889 43.9669841,61.8277778 46.8866667,61.8277778 C49.6346032,61.8277778 51.8673016,64.0666667 51.8673016,66.9944444 C51.8673016,69.75 49.6346032,71.9888889 46.8866667,71.9888889 C43.9669841,72.1611111 41.7342857,69.75 41.7342857,66.9944444 L41.7342857,66.9944444 Z" fill="#010101"></path>
                                <path d="M43.7952381,54.7666667 C43.451746,56.3166667 44.9974603,58.0388889 47.4019048,58.5555556 C49.8063492,59.2444444 52.0390476,58.5555556 52.5542857,57.0055556 C52.8977778,55.4555556 51.3520635,53.7333333 48.947619,53.2166667 C46.5431746,52.5277778 44.1387302,53.2166667 43.7952381,54.7666667 L43.7952381,54.7666667 Z" fill="#FFFFFF"></path>
                                <path d="M75.3965079,103.85 C59.252381,103.85 56.6761905,113.666667 56.6761905,113.666667 C60.7980952,115.905556 75.3965079,115.733333 75.3965079,115.733333 C75.3965079,115.733333 89.9949206,115.905556 94.1168254,113.666667 C94.1168254,113.494444 91.5406349,103.85 75.3965079,103.85 L75.3965079,103.85 Z" fill="#FFFFFF"></path>
                                <path d="M29.7120635,80.2555556 C30.9142857,76.6388889 36.4101587,74.9166667 36.4101587,74.9166667 C45.5126984,72.5055556 48.432381,87.1444444 48.432381,87.1444444 C65.4352381,98.3388889 70.244127,92.1388889 72.3050794,92.1388889 C72.1333333,97.3055556 66.9809524,102.988889 52.2107937,107.983333 C52.2107937,107.983333 44.9974603,109.877778 39.8450794,105.227778 C39.5015873,105.055556 38.9863492,104.538889 38.4711111,104.194444 C36.5819048,102.816667 30.9142857,96.9611111 29.7120635,80.2555556 L29.7120635,80.2555556 Z" fill="#FFFFFF"></path>
                                <path d="M121.767937,80.2555556 C120.565714,76.6388889 115.069841,74.9166667 115.069841,74.9166667 C105.967302,72.5055556 103.047619,87.1444444 103.047619,87.1444444 C86.0447619,98.3388889 81.064127,92.1388889 79.0031746,92.1388889 C79.0031746,97.3055556 84.3273016,102.988889 99.0974603,107.983333 C99.0974603,107.983333 106.310794,109.877778 111.634921,105.227778 C111.978413,105.055556 112.493651,104.538889 113.008889,104.194444 C114.726349,102.816667 120.565714,96.9611111 121.767937,80.2555556 L121.767937,80.2555556 Z" fill="#FFFFFF"></path>
                                <g transform="translate(0.000000, 41.333333)">
                                    <path d="M23.0139683,8.95555556 C22.8422222,7.57777778 22.6704762,6.2 22.6704762,4.65 C14.5984127,9.12777778 -17.0028571,28.0722222 22.8422222,30.8277778 C22.6704762,31 22.3269841,16.8777778 23.0139683,8.95555556 L23.0139683,8.95555556 Z" fill="#2BC4F2"></path>
                                    <path d="M25.2466667,33.5833333 L22.4987302,33.4111111 C8.75904762,32.3777778 1.88920635,29.45 0.686984127,24.2833333 C-1.03047619,16.7055556 10.991746,8.43888889 21.2965079,2.75555556 L24.7314286,0.861111111 L24.9031746,4.82222222 C24.9031746,6.2 25.0749206,7.57777778 25.2466667,8.78333333 L25.2466667,9.12777778 L25.2466667,9.47222222 C24.5596825,17.05 25.0749206,31 25.0749206,31.1722222 L25.2466667,33.5833333 L25.2466667,33.5833333 Z M20.4377778,8.78333333 C10.82,14.4666667 4.80888889,20.3222222 5.49587302,23.25 C5.66761905,24.1111111 7.38507937,27.2111111 20.2660317,28.4166667 C20.0942857,23.9388889 20.0942857,15.1555556 20.6095238,9.12777778 C20.4377778,8.95555556 20.4377778,8.95555556 20.4377778,8.78333333 L20.4377778,8.78333333 Z" fill="#010101"></path>
                                </g>
                            </g>
                            <path d="M87.4187302,38.0611111 C87.4187302,39.6111111 86.388254,40.8166667 85.1860317,40.8166667 L65.4352381,40.8166667 C64.2330159,40.8166667 63.2025397,39.6111111 63.2025397,38.0611111 L63.2025397,38.0611111 C63.2025397,36.5111111 64.2330159,35.3055556 65.4352381,35.3055556 L85.1860317,35.3055556 C86.56,35.3055556 87.4187302,36.5111111 87.4187302,38.0611111 L87.4187302,38.0611111 L87.4187302,38.0611111 Z" fill="#F9A020"></path>
                        </g>
                    </g>
                </g>
            </g>
        </g>
    </g>
</svg>