<?xml version="1.0" encoding="UTF-8" standalone="no"?>
<svg width="574px" height="410px" viewBox="0 0 574 410" version="1.1" xmlns="http://www.w3.org/2000/svg" xmlns:xlink="http://www.w3.org/1999/xlink">
    <!-- Generator: Sketch 40.1 (33804) - http://www.bohemiancoding.com/sketch -->
    <title>Group 10</title>
    <desc>Created with Sketch.</desc>
    <defs>
        <linearGradient x1="-124.225499%" y1="49.9998586%" x2="100.004028%" y2="49.9998586%" id="linearGradient-1">
            <stop stop-color="#62BB98" offset="0%"></stop>
            <stop stop-color="#36A1CC" offset="100%"></stop>
        </linearGradient>
        <linearGradient x1="-76.9508581%" y1="49.9978742%" x2="177.020251%" y2="49.9978742%" id="linearGradient-2">
            <stop stop-color="#62BB98" offset="0%"></stop>
            <stop stop-color="#36A1CC" offset="100%"></stop>
        </linearGradient>
        <linearGradient x1="-136.933769%" y1="49.9998069%" x2="117.086101%" y2="49.9998069%" id="linearGradient-3">
            <stop stop-color="#62BB98" offset="0%"></stop>
            <stop stop-color="#36A1CC" offset="100%"></stop>
        </linearGradient>
        <linearGradient x1="0.000961467347%" y1="49.999717%" x2="224.369655%" y2="49.999717%" id="linearGradient-4">
            <stop stop-color="#62BB98" offset="0%"></stop>
            <stop stop-color="#36A1CC" offset="100%"></stop>
        </linearGradient>
        <linearGradient x1="-12.0156173%" y1="49.9964499%" x2="112.014424%" y2="49.9964499%" id="linearGradient-5">
            <stop stop-color="#62BB98" offset="0%"></stop>
            <stop stop-color="#36A1CC" offset="100%"></stop>
        </linearGradient>
        <linearGradient x1="-17.0572123%" y1="49.9998069%" x2="237.076428%" y2="49.9998069%" id="linearGradient-6">
            <stop stop-color="#62BB98" offset="0%"></stop>
            <stop stop-color="#36A1CC" offset="100%"></stop>
        </linearGradient>
        <linearGradient x1="-76.9538719%" y1="49.9965231%" x2="177.022528%" y2="49.9965231%" id="linearGradient-7">
            <stop stop-color="#62BB98" offset="0%"></stop>
            <stop stop-color="#36A1CC" offset="100%"></stop>
        </linearGradient>
    </defs>
    <g id="Page-1" stroke="none" stroke-width="1" fill="none" fill-rule="evenodd">
        <g id="Group-10">
            <rect id="Rectangle-2" fill="#FFFFFF" x="0" y="0" width="574" height="410"></rect>
            <g id="Group-9" transform="translate(13.000000, 45.000000)">
                <g id="g206" transform="translate(272.000000, 282.612337) scale(1, -1) translate(-272.000000, -282.612337) translate(0.000000, 247.612337)">
                    <g id="g214" transform="translate(0.192323, 1.167741)" fill="#21A5A4">
                        <path d="M35.0615763,28.9116269 L51.4125476,28.9116269 L51.4125476,17.8088465 C51.4125476,15.4664613 50.2212085,13.2308335 48.1789129,12.0753406 C43.8800069,9.64503738 38.7238409,8.25718983 33.7252595,8.25718983 C19.0446843,8.25718983 9.17989244,18.6315073 9.17989244,34.0736663 C9.17989244,48.3540524 19.5174379,59.532191 32.7167185,59.532191 C38.4654023,59.532191 42.6571509,58.2762204 46.0105498,56.4676227 C49.6034771,54.5271481 54.0221475,55.1802528 56.6695676,58.2762204 C57.0603773,58.7283698 56.9910401,59.4379932 56.5182865,59.8147844 C49.4963196,65.4540926 42.5941171,67.7650786 32.9877639,67.7650786 C14.54407,67.7650786 0.0904165136,52.8881064 0.0904165136,33.8978304 C0.0904165136,14.0597742 13.8065744,0.206418056 33.4542141,0.206418056 C42.6319373,0.206418056 49.9123428,3.55985965 54.8920141,6.83794301 C58.0752217,8.93541397 59.9536293,12.5023706 59.9536293,16.3016818 L59.9536293,25.5895846 C59.9536293,31.8757176 54.8352837,36.9623987 48.5319023,36.9623987 L30.4664113,36.9623987 C29.7793427,36.9623987 29.2246452,36.4097716 29.2246452,35.7315475 L29.2246452,34.7330508 C29.2246452,31.517766 31.8405484,28.9116269 35.0615763,28.9116269" id="path216"></path>
                    </g>
                    <g id="g218" transform="translate(86.746228, 2.449459)" fill="#21A5A4">
                        <path d="M8.84805087,28.9116269 L42.7287257,28.9116269 C43.3149402,28.9116269 43.7939971,29.3826159 43.7939971,29.9666423 L43.7939971,35.9953013 C43.7939971,36.5793277 43.3149402,37.0565965 42.7287257,37.0565965 L8.84805087,37.0565965 L8.84805087,57.2526043 L43.4725247,57.2526043 C45.92454,57.2526043 47.9101052,59.2307581 47.9101052,61.673621 L47.9101052,64.3362787 C47.9101052,64.9203051 47.4373516,65.3912941 46.8448337,65.3912941 L11.4513474,65.3912941 C5.147966,65.3912941 0.0359237182,60.2983331 0.0359237182,54.0184799 L0.0359237182,11.3971164 C0.0359237182,5.11098339 5.147966,0.0117426072 11.4513474,0.0117426072 L47.3049806,0.0117426072 C47.891195,0.0117426072 48.3639486,0.495291302 48.3639486,1.07303779 L48.3639486,3.91781128 C48.3639486,6.25391667 46.4540241,8.15671218 44.1028628,8.15671218 L8.84805087,8.15671218 L8.84805087,28.9116269 Z" id="path220"></path>
                    </g>
                    <g id="g222" transform="translate(154.655247, 2.313896)" fill="#21A5A4">
                        <path d="M4.92402543,57.293969 L22.2772343,57.293969 L22.2772343,1.20860025 C22.2772343,0.630853755 22.7562913,0.14730506 23.3362024,0.14730506 L30.1186407,0.14730506 C30.7048552,0.14730506 31.1839122,0.630853755 31.1839122,1.20860025 L31.1839122,57.293969 L48.5308177,57.293969 C50.8252485,57.293969 52.6784426,59.1402458 52.6784426,61.4198325 L52.6784426,64.4718412 C52.6784426,65.0558675 52.1993857,65.5268565 51.6131712,65.5268565 L1.84167195,65.5268565 C1.25545748,65.5268565 0.782703876,65.0558675 0.782703876,64.4718412 L0.782703876,61.4198325 C0.782703876,59.1402458 2.635898,57.293969 4.92402543,57.293969" id="path224"></path>
                    </g>
                    <g id="g226" transform="translate(230.754709, 1.517789)" fill="#A7AAA8">
                        <path d="M4.92402543,66.3261036 L1.53280626,66.3261036 C0.952895173,66.3261036 0.47383819,65.8551146 0.47383819,65.2648084 L0.47383819,12.3256461 C0.47383819,6.03951305 5.58588048,0.946552122 11.8955652,0.946552122 L44.2823387,0.946552122 C44.8559464,0.946552122 45.3287,1.41754111 45.3287,1.9952876 L45.3287,4.90285962 C45.3287,7.27036427 43.3998653,9.17943964 41.0234905,9.17943964 L14.9464018,9.17943964 C11.8199246,9.17943964 9.28596534,11.7102205 9.28596534,14.8250276 L9.28596534,61.9804452 C9.28596534,64.3856289 7.33191711,66.3261036 4.92402543,66.3261036" id="path228"></path>
                    </g>
                    <g id="g230" transform="translate(299.803209, 2.463713)" fill="#A7AAA8">
                        <path d="M4.92402543,0 L8.37197504,0 C8.96449289,0 9.43724649,0.477268842 9.43724649,1.06129519 L9.43724649,61.1029714 C9.43724649,63.4704761 7.51471517,65.3795514 5.14464378,65.3795514 L1.77863813,65.3795514 C1.14199661,65.3795514 0.625119342,64.8646035 0.625119342,64.2303383 L0.625119342,4.28913972 C0.625119342,1.92163507 2.54765066,0 4.92402543,0" id="path232"></path>
                    </g>
                    <g id="g234" transform="translate(337.779998, 2.125051)" fill="#A7AAA8">
                        <path d="M47.6683391,16.0872781 L12.7665164,60.3225639 C10.0749726,63.7325242 5.96516794,65.7169578 1.6158348,65.7169578 C1.03592372,65.7169578 0.556866735,65.2459688 0.556866735,64.6556626 L0.556866735,4.21835563 C0.556866735,2.08320555 2.30290337,0.337406364 4.45235642,0.337406364 L8.12722775,0.337406364 C8.71344222,0.337406364 9.1924992,0.814675205 9.1924992,1.39870155 L9.1924992,51.1602581 L45.7205942,4.9468186 C48.0213284,2.03924658 51.5260084,0.337406364 55.2387001,0.337406364 C55.8249145,0.337406364 56.2976681,0.814675205 56.2976681,1.39870155 L56.2976681,61.603654 C56.2976681,63.8769608 54.4507774,65.7169578 52.1689533,65.7169578 L48.7336105,65.7169578 C48.147396,65.7169578 47.6683391,65.2459688 47.6683391,64.6556626 L47.6683391,16.0872781 Z" id="path236"></path>
                    </g>
                    <g id="g238" transform="translate(421.639099, 1.517789)" fill="#A7AAA8">
                        <path d="M52.5923645,66.3261036 L50.3105404,66.3261036 C45.9990276,66.3261036 41.8766162,64.5803044 38.8888134,61.4843368 L9.72306783,29.4068467 L9.72306783,61.7229712 C9.72306783,64.2663117 7.65555874,66.3261036 5.10268929,66.3261036 L1.97621213,66.3261036 C1.38369428,66.3261036 0.910940678,65.8551146 0.910940678,65.2648084 L0.910940678,6.27186762 C0.910940678,3.33289633 3.3062256,0.946552122 6.24990469,0.946552122 L8.65779637,0.946552122 C9.24401084,0.946552122 9.72306783,1.42382096 9.72306783,2.00784731 L9.72306783,16.7969015 C9.72306783,17.9209953 10.1706079,18.9948502 10.9585306,19.7986714 L22.5000219,31.4415192 L39.9288713,7.29548369 C43.1183823,3.28893736 47.9782893,0.946552122 53.1155451,0.946552122 L53.8656475,0.946552122 C54.7544243,0.946552122 55.2523914,1.97016819 54.6976939,2.66095204 L28.6458187,37.5957753 L53.3550736,64.5237857 C54.0106253,65.19573 53.5315683,66.3261036 52.5923645,66.3261036" id="path240"></path>
                    </g>
                    <g id="g242" transform="translate(493.823913, 0.934212)" fill="#A7AAA8">
                        <path d="M27.6457205,38.4544095 L27.6394171,38.4544095 C13.4820226,41.4812987 10.8850295,44.7782216 10.8850295,50.1726155 C10.8850295,55.8244833 16.1672631,59.7619513 23.7250173,59.7619513 C28.1373843,59.7619513 32.1589416,58.8074136 36.0355211,56.7915807 C39.5465045,54.9641435 43.851714,55.8307632 46.2596057,58.9706898 C46.612595,59.4353989 46.5243477,60.1136231 46.0515941,60.4778546 C39.3321896,65.6147745 32.6379986,67.8252828 23.9078154,67.8252828 C11.256929,67.8252828 2.07290233,60.1261828 2.07290233,49.5320705 C2.07290233,37.5187113 10.9165464,33.129094 24.1977709,30.2529212 C37.7437375,27.4081477 40.2209663,24.1803032 40.2209663,18.8173086 C40.2209663,12.7509704 34.8000584,8.67534568 26.7380336,8.67534568 C20.6867875,8.67534568 15.7386331,10.0506335 10.7841754,13.2407989 C7.45599001,15.3947886 3.04992644,14.8484414 0.471843459,11.8403917 C0.0873371961,11.3945221 0.144067628,10.6974584 0.591607705,10.3206672 C8.3384634,3.70798181 16.5895896,0.624573902 26.4669882,0.624573902 C40.0192581,0.624573902 49.1276442,8.22319625 49.1276442,19.5457715 C49.1276442,29.5370179 42.6981952,35.1826059 27.6457205,38.4544095" id="path244"></path>
                    </g>
                </g>
                <g id="Group-8" transform="translate(171.837539, 0.000000)">
                    <g id="g246" transform="translate(149.474591, 67.527524) scale(1, -1) translate(-149.474591, -67.527524) translate(105.974591, 0.527524)" fill="url(#linearGradient-1)">
                        <g id="g248">
                            <g id="g254">
                                <g id="g256">
                                    <path d="M42.1339702,62.3589421 L78.1010643,0.232354568 C83.3391742,12.0070793 86.2639431,25.0314948 86.2639431,38.7466941 L86.2639431,38.7466941 C86.2639431,87.8802654 48.9290153,128.31624 0.979193286,133.4406 L0.979193286,133.4406 L42.1339702,62.3589421 Z" id="path264"></path>
                                </g>
                            </g>
                        </g>
                    </g>
                    <g id="g266" transform="translate(96.306251, 33.224430) scale(1, -1) translate(-96.306251, -33.224430) translate(58.306251, 0.224430)" fill="url(#linearGradient-2)">
                        <g id="g268">
                            <g id="g274">
                                <g id="g276">
                                    <polygon id="path284" points="38.2721666 65.7026924 0.647283248 0.712491847 75.9411736 0.712491847 38.3162903 65.7026924"></polygon>
                                </g>
                            </g>
                        </g>
                    </g>
                    <g id="g286" transform="translate(141.715879, 111.334949) scale(1, -1) translate(-141.715879, -111.334949) translate(103.215879, 78.334949)" fill="url(#linearGradient-3)">
                        <g id="g288">
                            <g id="g294">
                                <g id="g296">
                                    <path d="M0.882473391,0.839794618 L76.1511503,0.839794618 C76.1574536,0.846074471 76.1574536,0.852354324 76.163757,0.858634178 L76.163757,0.858634178 L38.5325703,65.8676743 L0.882473391,0.839794618 Z" id="path304"></path>
                                </g>
                            </g>
                        </g>
                    </g>
                    <g id="g306" transform="translate(43.696463, 67.527524) scale(1, -1) translate(-43.696463, -67.527524) translate(0.196463, 0.527524)" fill="url(#linearGradient-4)">
                        <g id="g308">
                            <g id="g314">
                                <g id="g316">
                                    <path d="M0.816389958,38.7466941 C0.816389958,25.0566142 3.74115891,12.0573181 8.96035868,0.288873246 L8.96035868,0.288873246 L86.0444094,133.43432 C38.1261043,128.272281 0.816389958,87.855146 0.816389958,38.7466941" id="path324"></path>
                                </g>
                            </g>
                        </g>
                    </g>
                    <g id="g326" transform="translate(96.606607, 171.546203) scale(1, -1) translate(-96.606607, -171.546203) translate(19.106607, 152.046203)" fill="url(#linearGradient-5)">
                        <g id="g328">
                            <g id="g334">
                                <g id="g336">
                                    <path d="M0.431883695,38.9288099 C17.8355196,15.3416813 45.8792633,0.0125597064 77.5222378,0.0125597064 L77.5222378,0.0125597064 C109.165212,0.0125597064 137.208956,15.3416813 154.612592,38.9288099 L154.612592,38.9288099 L0.431883695,38.9288099 Z" id="path344"></path>
                                </g>
                            </g>
                        </g>
                    </g>
                    <g id="g346" transform="translate(51.803226, 111.334949) scale(1, -1) translate(-51.803226, -111.334949) translate(13.803226, 78.334949)" fill="url(#linearGradient-6)">
                        <g id="g348">
                            <g id="g354">
                                <g id="g356">
                                    <path d="M0.0433116868,0.90259315 C0.0559184496,0.88375359 0.0685252123,0.864914031 0.081131975,0.839794618 L0.081131975,0.839794618 L75.2930784,0.839794618 L37.6492849,65.8676743 L0.0433116868,0.90259315 Z" id="path364"></path>
                                </g>
                            </g>
                        </g>
                    </g>
                    <g id="g366" transform="translate(96.306251, 106.431237) scale(1, -1) translate(-96.306251, -106.431237) translate(58.306251, 73.431237)" fill="url(#linearGradient-7)">
                        <g id="g368">
                            <g id="g374">
                                <g id="g376">
                                    <polygon id="path384" points="0.647283248 65.2970605 38.2910768 0.275460686 75.9411736 65.2970605"></polygon>
                                </g>
                            </g>
                        </g>
                    </g>
                </g>
            </g>
        </g>
    </g>
</svg>